<?xml version="1.0" encoding="utf-8" standalone="no"?>
<!DOCTYPE svg PUBLIC "-//W3C//DTD SVG 1.1//EN"
  "http://www.w3.org/Graphics/SVG/1.1/DTD/svg11.dtd">
<svg xmlns:xlink="http://www.w3.org/1999/xlink" width="504pt" height="288pt" viewBox="0 0 504 288" xmlns="http://www.w3.org/2000/svg" version="1.1">
 <metadata>
  <rdf:RDF xmlns:dc="http://purl.org/dc/elements/1.1/" xmlns:cc="http://creativecommons.org/ns#" xmlns:rdf="http://www.w3.org/1999/02/22-rdf-syntax-ns#">
   <cc:Work>
    <dc:type rdf:resource="http://purl.org/dc/dcmitype/StillImage"/>
    <dc:date>2026-03-14T08:21:02.559648</dc:date>
    <dc:format>image/svg+xml</dc:format>
    <dc:creator>
     <cc:Agent>
      <dc:title>Matplotlib v3.10.7, https://matplotlib.org/</dc:title>
     </cc:Agent>
    </dc:creator>
   </cc:Work>
  </rdf:RDF>
 </metadata>
 <defs>
  <style type="text/css">*{stroke-linejoin: round; stroke-linecap: butt}</style>
 </defs>
 <g id="figure_1">
  <g id="patch_1">
   <path d="M 0 288
L 504 288
L 504 0
L 0 0
L 0 288
z
" style="fill: none; opacity: 0"/>
  </g>
  <g id="axes_1">
   <g id="patch_2">
    <path d="M 21.87 240.28
L 431.45 240.28
L 431.45 10.8
L 21.87 10.8
L 21.87 240.28
z
" style="fill: none"/>
   </g>
   <g id="FillBetweenPolyCollection_1">
    <defs>
     <path id="m3f793c1994" d="M 21.87 -58.150909
L 21.87 -59.163579
L 22.197664 -59.172524
L 22.525328 -59.181468
L 22.852992 -59.190412
L 23.180656 -59.199357
L 23.50832 -59.208301
L 23.835984 -59.217246
L 24.163648 -59.22619
L 24.491312 -59.235135
L 24.818976 -59.244079
L 25.14664 -59.253024
L 25.474304 -59.261968
L 25.801968 -59.270913
L 26.129632 -59.279857
L 26.457296 -59.288802
L 26.78496 -59.297746
L 27.112624 -59.306691
L 27.440288 -59.315635
L 27.767952 -59.363469
L 28.095616 -59.411302
L 28.42328 -59.459136
L 28.750944 -59.506969
L 29.078608 -59.554803
L 29.406272 -59.602636
L 29.733936 -59.65047
L 30.0616 -59.698303
L 30.389264 -59.746137
L 30.716928 -59.79397
L 31.044592 -59.841804
L 31.372256 -59.889637
L 31.69992 -59.93747
L 32.027584 -59.985304
L 32.355248 -60.033137
L 32.682912 -60.080971
L 33.010576 -60.128804
L 33.33824 -60.176638
L 33.665904 -60.224471
L 33.993568 -60.272305
L 34.321232 -60.320138
L 34.648896 -60.367972
L 34.97656 -60.415805
L 35.304224 -60.463639
L 35.631888 -60.511472
L 35.959552 -60.559306
L 36.287216 -60.607139
L 36.61488 -60.654973
L 36.942544 -60.702806
L 37.270208 -60.75064
L 37.597872 -60.798473
L 37.925536 -60.846307
L 38.2532 -60.89414
L 38.580864 -60.941974
L 38.908528 -60.989807
L 39.236192 -61.037641
L 39.563856 -61.085474
L 39.89152 -61.133308
L 40.219184 -61.181141
L 40.546848 -61.248419
L 40.874512 -61.335142
L 41.202176 -61.421864
L 41.52984 -61.508587
L 41.857504 -61.595309
L 42.185168 -61.682032
L 42.512832 -61.768754
L 42.840496 -61.855477
L 43.16816 -61.942199
L 43.495824 -62.028922
L 43.823488 -62.115644
L 44.151152 -62.202367
L 44.478816 -62.289089
L 44.80648 -62.375812
L 45.134144 -62.462534
L 45.461808 -62.549257
L 45.789472 -62.635979
L 46.117136 -62.722702
L 46.4448 -62.809424
L 46.772464 -62.896147
L 47.100128 -62.982869
L 47.427792 -63.069592
L 47.755456 -63.156314
L 48.08312 -63.243037
L 48.410784 -63.329759
L 48.738448 -63.416482
L 49.066112 -63.498927
L 49.393776 -63.581371
L 49.72144 -63.663816
L 50.049104 -63.746261
L 50.376768 -63.828705
L 50.704432 -63.91115
L 51.032096 -63.993595
L 51.35976 -64.07604
L 51.687424 -64.158484
L 52.015088 -64.240929
L 52.342752 -64.323374
L 52.670416 -64.405818
L 52.99808 -64.488263
L 53.325744 -64.570708
L 53.653408 -64.653153
L 53.981072 -64.735597
L 54.308736 -64.818042
L 54.6364 -64.900487
L 54.964064 -64.982931
L 55.291728 -65.065376
L 55.619392 -65.147821
L 55.947056 -65.230266
L 56.27472 -65.31271
L 56.602384 -65.395155
L 56.930048 -65.4776
L 57.257712 -65.560044
L 57.585376 -65.642489
L 57.91304 -65.724934
L 58.240704 -65.807379
L 58.568368 -65.889823
L 58.896032 -65.972268
L 59.223696 -66.054713
L 59.55136 -66.137157
L 59.879024 -66.219602
L 60.206688 -66.302047
L 60.534352 -66.384492
L 60.862016 -66.466936
L 61.18968 -66.549381
L 61.517344 -66.631826
L 61.845008 -66.71427
L 62.172672 -66.796715
L 62.500336 -66.87916
L 62.828 -66.961605
L 63.155664 -67.044049
L 63.483328 -67.126494
L 63.810992 -67.208939
L 64.138656 -67.291383
L 64.46632 -67.373828
L 64.793984 -67.456273
L 65.121648 -67.538718
L 65.449312 -67.621162
L 65.776976 -67.703607
L 66.10464 -67.786052
L 66.432304 -67.868496
L 66.759968 -67.950941
L 67.087632 -68.033386
L 67.415296 -68.115831
L 67.74296 -68.198275
L 68.070624 -68.28072
L 68.398288 -68.363165
L 68.725952 -68.445609
L 69.053616 -68.528054
L 69.38128 -68.610499
L 69.708944 -68.712388
L 70.036608 -68.833722
L 70.364272 -68.955056
L 70.691936 -69.076389
L 71.0196 -69.197723
L 71.347264 -69.319057
L 71.674928 -69.44039
L 72.002592 -69.561724
L 72.330256 -69.683058
L 72.65792 -69.804392
L 72.985584 -69.925725
L 73.313248 -70.047059
L 73.640912 -70.168393
L 73.968576 -70.289727
L 74.29624 -70.41106
L 74.623904 -70.532394
L 74.951568 -70.653728
L 75.279232 -70.775061
L 75.606896 -70.896395
L 75.93456 -71.017729
L 76.262224 -71.139063
L 76.589888 -71.260396
L 76.917552 -71.38173
L 77.245216 -71.503064
L 77.57288 -71.624398
L 77.900544 -71.745731
L 78.228208 -71.867065
L 78.555872 -71.988399
L 78.883536 -72.109732
L 79.2112 -72.231066
L 79.538864 -72.3524
L 79.866528 -72.473734
L 80.194192 -72.595067
L 80.521856 -72.716401
L 80.84952 -72.837735
L 81.177184 -72.959069
L 81.504848 -73.080402
L 81.832512 -73.201736
L 82.160176 -73.32307
L 82.48784 -73.445959
L 82.815504 -73.498848
L 83.143168 -73.551737
L 83.470832 -73.604626
L 83.798496 -73.657515
L 84.12616 -73.710404
L 84.453824 -73.763293
L 84.781488 -73.816183
L 85.109152 -73.869072
L 85.436816 -73.921961
L 85.76448 -73.97485
L 86.092144 -74.027739
L 86.419808 -74.080628
L 86.747472 -74.133517
L 87.075136 -74.186406
L 87.4028 -74.239295
L 87.730464 -74.292184
L 88.058128 -74.345073
L 88.385792 -74.397962
L 88.713456 -74.450851
L 89.04112 -74.50374
L 89.368784 -74.556629
L 89.696448 -74.609518
L 90.024112 -74.662407
L 90.351776 -74.715297
L 90.67944 -74.768186
L 91.007104 -74.821075
L 91.334768 -74.873964
L 91.662432 -74.926853
L 91.990096 -74.979742
L 92.31776 -75.032631
L 92.645424 -75.08552
L 92.973088 -75.138409
L 93.300752 -75.191298
L 93.628416 -75.244187
L 93.95608 -75.297076
L 94.283744 -75.349965
L 94.611408 -75.402854
L 94.939072 -75.455743
L 95.266736 -75.508632
L 95.5944 -75.580966
L 95.922064 -75.672744
L 96.249728 -75.764522
L 96.577392 -75.8563
L 96.905056 -75.948078
L 97.23272 -76.039856
L 97.560384 -76.131635
L 97.888048 -76.223413
L 98.215712 -76.315191
L 98.543376 -76.406969
L 98.87104 -76.498747
L 99.198704 -76.590525
L 99.526368 -76.682303
L 99.854032 -76.774081
L 100.181696 -76.865859
L 100.50936 -76.957637
L 100.837024 -77.049415
L 101.164688 -77.141193
L 101.492352 -77.232971
L 101.820016 -77.32475
L 102.14768 -77.416528
L 102.475344 -77.508306
L 102.803008 -77.600084
L 103.130672 -77.691862
L 103.458336 -77.78364
L 103.786 -77.875418
L 104.113664 -77.967196
L 104.441328 -78.058974
L 104.768992 -78.150752
L 105.096656 -78.24253
L 105.42432 -78.334308
L 105.751984 -78.426086
L 106.079648 -78.517865
L 106.407312 -78.609643
L 106.734976 -78.701421
L 107.06264 -78.793199
L 107.390304 -78.884977
L 107.717968 -78.976755
L 108.045632 -79.068533
L 108.373296 -79.160311
L 108.70096 -79.252089
L 109.028624 -79.343867
L 109.356288 -79.435645
L 109.683952 -79.527423
L 110.011616 -79.619201
L 110.33928 -79.71098
L 110.666944 -79.802758
L 110.994608 -79.894536
L 111.322272 -79.986314
L 111.649936 -80.078092
L 111.9776 -80.16987
L 112.305264 -80.261648
L 112.632928 -80.353426
L 112.960592 -80.445204
L 113.288256 -80.536982
L 113.61592 -80.62876
L 113.943584 -80.720538
L 114.271248 -80.812316
L 114.598912 -80.904095
L 114.926576 -80.995873
L 115.25424 -81.087651
L 115.581904 -81.179429
L 115.909568 -81.271207
L 116.237232 -81.362985
L 116.564896 -81.454763
L 116.89256 -81.546541
L 117.220224 -81.638319
L 117.547888 -81.730097
L 117.875552 -81.821875
L 118.203216 -81.933098
L 118.53088 -82.063765
L 118.858544 -82.194432
L 119.186208 -82.325099
L 119.513872 -82.455766
L 119.841536 -82.586433
L 120.1692 -82.7171
L 120.496864 -82.847768
L 120.824528 -82.978435
L 121.152192 -83.109102
L 121.479856 -83.239769
L 121.80752 -83.370436
L 122.135184 -83.501103
L 122.462848 -83.63177
L 122.790512 -83.762437
L 123.118176 -83.893104
L 123.44584 -84.023771
L 123.773504 -84.154439
L 124.101168 -84.285106
L 124.428832 -84.415773
L 124.756496 -84.54644
L 125.08416 -84.677107
L 125.411824 -84.807774
L 125.739488 -84.938441
L 126.067152 -85.069108
L 126.394816 -85.199775
L 126.72248 -85.330442
L 127.050144 -85.461109
L 127.377808 -85.591777
L 127.705472 -85.722444
L 128.033136 -85.853111
L 128.3608 -85.983778
L 128.688464 -86.114445
L 129.016128 -86.245112
L 129.343792 -86.375779
L 129.671456 -86.506446
L 129.99912 -86.637113
L 130.326784 -86.754947
L 130.654448 -86.872781
L 130.982112 -86.990614
L 131.309776 -87.108448
L 131.63744 -87.226282
L 131.965104 -87.344116
L 132.292768 -87.461949
L 132.620432 -87.579783
L 132.948096 -87.697617
L 133.27576 -87.81545
L 133.603424 -87.933284
L 133.931088 -88.051118
L 134.258752 -88.168952
L 134.586416 -88.286785
L 134.91408 -88.404619
L 135.241744 -88.522453
L 135.569408 -88.640287
L 135.897072 -88.75812
L 136.224736 -88.875954
L 136.5524 -88.993788
L 136.880064 -89.111621
L 137.207728 -89.229455
L 137.535392 -89.347289
L 137.863056 -89.504012
L 138.19072 -89.660734
L 138.518384 -89.817457
L 138.846048 -89.97418
L 139.173712 -90.130902
L 139.501376 -90.287625
L 139.82904 -90.444348
L 140.156704 -90.601071
L 140.484368 -90.757793
L 140.812032 -90.914516
L 141.139696 -91.071239
L 141.46736 -91.227962
L 141.795024 -91.384684
L 142.122688 -91.541407
L 142.450352 -91.69813
L 142.778016 -91.854853
L 143.10568 -92.011575
L 143.433344 -92.168298
L 143.761008 -92.325021
L 144.088672 -92.481744
L 144.416336 -92.638466
L 144.744 -92.795189
L 145.071664 -92.951912
L 145.399328 -93.108634
L 145.726992 -93.265357
L 146.054656 -93.42208
L 146.38232 -93.578803
L 146.709984 -93.735525
L 147.037648 -93.892248
L 147.365312 -94.048971
L 147.692976 -94.205694
L 148.02064 -94.362416
L 148.348304 -94.519139
L 148.675968 -94.675862
L 149.003632 -94.832585
L 149.331296 -94.989307
L 149.65896 -95.14603
L 149.986624 -95.302753
L 150.314288 -95.459475
L 150.641952 -95.616198
L 150.969616 -95.772921
L 151.29728 -95.929644
L 151.624944 -96.086366
L 151.952608 -96.243089
L 152.280272 -96.399812
L 152.607936 -96.556535
L 152.9356 -96.713257
L 153.263264 -96.86998
L 153.590928 -97.026703
L 153.918592 -97.20287
L 154.246256 -97.398482
L 154.57392 -97.594094
L 154.901584 -97.789705
L 155.229248 -97.985317
L 155.556912 -98.180929
L 155.884576 -98.376541
L 156.21224 -98.572152
L 156.539904 -98.767764
L 156.867568 -98.963376
L 157.195232 -99.158988
L 157.522896 -99.354599
L 157.85056 -99.550211
L 158.178224 -99.745823
L 158.505888 -99.941435
L 158.833552 -100.137046
L 159.161216 -100.332658
L 159.48888 -100.52827
L 159.816544 -100.723882
L 160.144208 -100.919493
L 160.471872 -101.115105
L 160.799536 -101.310717
L 161.1272 -101.506329
L 161.454864 -101.70194
L 161.782528 -101.897552
L 162.110192 -102.093164
L 162.437856 -102.288776
L 162.76552 -102.484387
L 163.093184 -102.679999
L 163.420848 -102.875611
L 163.748512 -103.071223
L 164.076176 -103.266834
L 164.40384 -103.462446
L 164.731504 -103.658058
L 165.059168 -103.85367
L 165.386832 -104.049281
L 165.714496 -104.244893
L 166.04216 -104.440505
L 166.369824 -104.636117
L 166.697488 -104.831728
L 167.025152 -105.066229
L 167.352816 -105.30073
L 167.68048 -105.535231
L 168.008144 -105.769731
L 168.335808 -106.004232
L 168.663472 -106.238733
L 168.991136 -106.473234
L 169.3188 -106.707734
L 169.646464 -106.942235
L 169.974128 -107.176736
L 170.301792 -107.411237
L 170.629456 -107.645738
L 170.95712 -107.880238
L 171.284784 -108.114739
L 171.612448 -108.34924
L 171.940112 -108.583741
L 172.267776 -108.818241
L 172.59544 -109.052742
L 172.923104 -109.287243
L 173.250768 -109.521744
L 173.578432 -109.756244
L 173.906096 -109.990745
L 174.23376 -110.225246
L 174.561424 -110.459747
L 174.889088 -110.694247
L 175.216752 -110.928748
L 175.544416 -111.163249
L 175.87208 -111.39775
L 176.199744 -111.632251
L 176.527408 -111.886196
L 176.855072 -112.159586
L 177.182736 -112.432975
L 177.5104 -112.706365
L 177.838064 -112.979755
L 178.165728 -113.253145
L 178.493392 -113.526535
L 178.821056 -113.799924
L 179.14872 -114.073314
L 179.476384 -114.346704
L 179.804048 -114.620094
L 180.131712 -114.893483
L 180.459376 -115.166873
L 180.78704 -115.440263
L 181.114704 -115.713653
L 181.442368 -115.987043
L 181.770032 -116.260432
L 182.097696 -116.533822
L 182.42536 -116.807212
L 182.753024 -117.080602
L 183.080688 -117.373436
L 183.408352 -117.685715
L 183.736016 -117.997994
L 184.06368 -118.310272
L 184.391344 -118.622551
L 184.719008 -118.93483
L 185.046672 -119.247109
L 185.374336 -119.559388
L 185.702 -119.871666
L 186.029664 -120.183945
L 186.357328 -120.496224
L 186.684992 -120.847392
L 187.012656 -121.19856
L 187.34032 -121.549727
L 187.667984 -121.900895
L 187.995648 -122.252063
L 188.323312 -122.603231
L 188.650976 -122.954399
L 188.97864 -123.305566
L 189.306304 -123.656734
L 189.633968 -124.009458
L 189.961632 -124.284014
L 190.289296 -124.558571
L 190.61696 -124.833127
L 190.944624 -125.107683
L 191.272288 -125.38224
L 191.599952 -125.656796
L 191.927616 -125.931353
L 192.25528 -126.205909
L 192.582944 -126.480466
L 192.910608 -126.755022
L 193.238272 -127.029579
L 193.565936 -127.304135
L 193.8936 -127.578692
L 194.221264 -127.853248
L 194.548928 -128.127804
L 194.876592 -128.402361
L 195.204256 -128.676917
L 195.53192 -128.951474
L 195.859584 -129.22603
L 196.187248 -129.500587
L 196.514912 -129.775143
L 196.842576 -130.0497
L 197.17024 -130.324256
L 197.497904 -130.598813
L 197.825568 -130.873369
L 198.153232 -131.147925
L 198.480896 -131.422482
L 198.80856 -131.697038
L 199.136224 -131.971595
L 199.463888 -132.246151
L 199.791552 -132.520708
L 200.119216 -132.795264
L 200.44688 -133.069821
L 200.774544 -133.344377
L 201.102208 -133.618934
L 201.429872 -133.89349
L 201.757536 -134.168046
L 202.0852 -134.442603
L 202.412864 -134.717159
L 202.740528 -134.991716
L 203.068192 -135.266272
L 203.395856 -135.540829
L 203.72352 -135.815385
L 204.051184 -136.089942
L 204.378848 -136.364498
L 204.706512 -136.639054
L 205.034176 -136.913611
L 205.36184 -137.188167
L 205.689504 -137.462724
L 206.017168 -137.73728
L 206.344832 -138.011837
L 206.672496 -138.286393
L 207.00016 -138.56095
L 207.327824 -138.835506
L 207.655488 -139.110063
L 207.983152 -139.384619
L 208.310816 -139.659175
L 208.63848 -139.933732
L 208.966144 -140.208677
L 209.293808 -140.457567
L 209.621472 -140.706457
L 209.949136 -140.955346
L 210.2768 -141.204236
L 210.604464 -141.453126
L 210.932128 -141.702015
L 211.259792 -141.950905
L 211.587456 -142.199795
L 211.91512 -142.448685
L 212.242784 -142.697574
L 212.570448 -142.946464
L 212.898112 -143.195354
L 213.225776 -143.444243
L 213.55344 -143.693133
L 213.881104 -143.942023
L 214.208768 -144.190913
L 214.536432 -144.439802
L 214.864096 -144.688692
L 215.19176 -144.937582
L 215.519424 -145.186471
L 215.847088 -145.435361
L 216.174752 -145.684251
L 216.502416 -145.93314
L 216.83008 -146.18203
L 217.157744 -146.43092
L 217.485408 -146.67981
L 217.813072 -146.928699
L 218.140736 -147.177589
L 218.4684 -147.426479
L 218.796064 -147.675368
L 219.123728 -147.924258
L 219.451392 -148.173148
L 219.779056 -148.422037
L 220.10672 -148.670927
L 220.434384 -148.919817
L 220.762048 -149.168707
L 221.089712 -149.417596
L 221.417376 -149.666486
L 221.74504 -149.915376
L 222.072704 -150.164265
L 222.400368 -150.413155
L 222.728032 -150.662045
L 223.055696 -150.910934
L 223.38336 -151.159824
L 223.711024 -151.408714
L 224.038688 -151.657604
L 224.366352 -151.906493
L 224.694016 -152.155383
L 225.02168 -152.404273
L 225.349344 -152.653162
L 225.677008 -152.902052
L 226.004672 -153.150942
L 226.332336 -153.399832
L 226.66 -153.648721
L 226.987664 -153.897611
L 227.315328 -154.146501
L 227.642992 -154.39539
L 227.970656 -154.64428
L 228.29832 -154.89317
L 228.625984 -155.142059
L 228.953648 -155.390949
L 229.281312 -155.639839
L 229.608976 -155.888729
L 229.93664 -156.137618
L 230.264304 -156.386508
L 230.591968 -156.635398
L 230.919632 -156.884287
L 231.247296 -157.133177
L 231.57496 -157.382067
L 231.902624 -157.630956
L 232.230288 -157.879846
L 232.557952 -158.128736
L 232.885616 -158.377626
L 233.21328 -158.626515
L 233.540944 -158.875405
L 233.868608 -159.124295
L 234.196272 -159.373184
L 234.523936 -159.622074
L 234.8516 -159.870964
L 235.179264 -160.119853
L 235.506928 -160.368743
L 235.834592 -160.617633
L 236.162256 -160.866523
L 236.48992 -161.115412
L 236.817584 -161.364302
L 237.145248 -161.613192
L 237.472912 -161.862081
L 237.800576 -162.110971
L 238.12824 -162.359861
L 238.455904 -162.60875
L 238.783568 -162.85764
L 239.111232 -163.10653
L 239.438896 -163.35542
L 239.76656 -163.604309
L 240.094224 -163.853199
L 240.421888 -164.102089
L 240.749552 -164.350978
L 241.077216 -164.599868
L 241.40488 -164.848758
L 241.732544 -165.097648
L 242.060208 -165.346537
L 242.387872 -165.595427
L 242.715536 -165.844317
L 243.0432 -166.093206
L 243.370864 -166.342096
L 243.698528 -166.590986
L 244.026192 -166.839875
L 244.353856 -167.088765
L 244.68152 -167.337655
L 245.009184 -167.586545
L 245.336848 -167.835434
L 245.664512 -168.084324
L 245.992176 -168.333214
L 246.31984 -168.582103
L 246.647504 -168.830993
L 246.975168 -169.079883
L 247.302832 -169.328772
L 247.630496 -169.577662
L 247.95816 -169.826552
L 248.285824 -170.075442
L 248.613488 -170.324331
L 248.941152 -170.573221
L 249.268816 -170.822111
L 249.59648 -171.071
L 249.924144 -171.31989
L 250.251808 -171.56878
L 250.579472 -171.817669
L 250.907136 -172.066559
L 251.2348 -172.315449
L 251.562464 -172.564339
L 251.890128 -172.813228
L 252.217792 -173.062118
L 252.545456 -173.311008
L 252.87312 -173.559897
L 253.200784 -173.808787
L 253.528448 -174.057677
L 253.856112 -174.306566
L 254.183776 -174.555456
L 254.51144 -174.804346
L 254.839104 -175.053236
L 255.166768 -175.302125
L 255.494432 -175.551015
L 255.822096 -175.799905
L 256.14976 -176.048794
L 256.477424 -176.297684
L 256.805088 -176.546574
L 257.132752 -176.795464
L 257.460416 -177.044353
L 257.78808 -177.293243
L 258.115744 -177.542133
L 258.443408 -177.791022
L 258.771072 -178.039912
L 259.098736 -178.288802
L 259.4264 -178.537691
L 259.754064 -178.786581
L 260.081728 -179.035471
L 260.409392 -179.284361
L 260.737056 -179.53325
L 261.06472 -179.78214
L 261.392384 -180.03103
L 261.720048 -180.279919
L 262.047712 -180.528809
L 262.375376 -180.777699
L 262.70304 -181.026588
L 263.030704 -181.275478
L 263.358368 -181.524368
L 263.686032 -181.773258
L 264.013696 -182.022147
L 264.34136 -182.271037
L 264.669024 -182.519927
L 264.996688 -182.768816
L 265.324352 -183.017706
L 265.652016 -183.266596
L 265.97968 -183.515485
L 266.307344 -183.764375
L 266.635008 -184.013265
L 266.962672 -184.262155
L 267.290336 -184.511044
L 267.618 -184.759934
L 267.945664 -185.008824
L 268.273328 -185.257713
L 268.600992 -185.506603
L 268.928656 -185.755493
L 269.25632 -186.004383
L 269.583984 -186.253272
L 269.911648 -186.502162
L 270.239312 -186.751052
L 270.566976 -186.999941
L 270.89464 -187.248831
L 271.222304 -187.497721
L 271.549968 -187.74661
L 271.877632 -187.9955
L 272.205296 -188.24439
L 272.53296 -188.49328
L 272.860624 -188.742169
L 273.188288 -188.991059
L 273.515952 -189.239949
L 273.843616 -189.488838
L 274.17128 -189.737728
L 274.498944 -189.986618
L 274.826608 -190.235507
L 275.154272 -190.484397
L 275.481936 -190.733287
L 275.8096 -190.982177
L 276.137264 -191.231066
L 276.464928 -191.479956
L 276.792592 -191.728846
L 277.120256 -191.977735
L 277.44792 -192.226625
L 277.775584 -192.475515
L 278.103248 -192.724404
L 278.430912 -192.973294
L 278.758576 -193.222184
L 279.08624 -193.471074
L 279.413904 -193.719963
L 279.741568 -193.968853
L 280.069232 -194.217743
L 280.396896 -194.466632
L 280.72456 -194.715522
L 281.052224 -194.964412
L 281.379888 -195.213301
L 281.707552 -195.462191
L 282.035216 -195.711081
L 282.36288 -195.959971
L 282.690544 -196.20886
L 283.018208 -196.45775
L 283.345872 -196.70664
L 283.673536 -196.955529
L 284.0012 -197.204419
L 284.328864 -197.453309
L 284.656528 -197.702199
L 284.984192 -197.951088
L 285.311856 -198.199978
L 285.63952 -198.448868
L 285.967184 -198.697757
L 286.294848 -198.946647
L 286.622512 -199.195537
L 286.950176 -199.444426
L 287.27784 -199.693316
L 287.605504 -199.942206
L 287.933168 -200.191096
L 288.260832 -200.439985
L 288.588496 -200.688875
L 288.91616 -200.937765
L 289.243824 -201.186654
L 289.571488 -201.435544
L 289.899152 -201.684434
L 290.226816 -201.933323
L 290.55448 -202.182213
L 290.882144 -202.431103
L 291.209808 -202.679993
L 291.537472 -202.928882
L 291.865136 -203.177772
L 292.1928 -203.426662
L 292.520464 -203.675551
L 292.848128 -203.924441
L 293.175792 -204.173331
L 293.503456 -204.42222
L 293.83112 -204.67111
L 294.158784 -204.92
L 294.486448 -205.16889
L 294.814112 -205.417779
L 295.141776 -205.666669
L 295.46944 -205.915559
L 295.797104 -206.164448
L 296.124768 -206.413338
L 296.452432 -206.662228
L 296.780096 -206.911117
L 297.10776 -207.074451
L 297.435424 -207.237785
L 297.763088 -207.401119
L 298.090752 -207.564453
L 298.418416 -207.727787
L 298.74608 -207.891121
L 299.073744 -208.054455
L 299.401408 -208.217788
L 299.729072 -208.381122
L 300.056736 -208.544456
L 300.3844 -208.70779
L 300.712064 -208.871124
L 301.039728 -209.034458
L 301.367392 -209.197792
L 301.695056 -209.361126
L 302.02272 -209.524459
L 302.350384 -209.687793
L 302.678048 -209.851127
L 303.005712 -210.014461
L 303.333376 -210.177795
L 303.66104 -210.341129
L 303.988704 -210.504463
L 304.316368 -210.667796
L 304.644032 -210.83113
L 304.971696 -210.994464
L 305.29936 -211.157798
L 305.627024 -211.321132
L 305.954688 -211.484466
L 306.282352 -211.6478
L 306.610016 -211.811134
L 306.93768 -211.974467
L 307.265344 -212.137801
L 307.593008 -212.301135
L 307.920672 -212.464469
L 308.248336 -212.627803
L 308.576 -212.791137
L 308.903664 -212.954471
L 309.231328 -213.117804
L 309.558992 -213.281138
L 309.886656 -213.444472
L 310.21432 -213.607806
L 310.541984 -213.77114
L 310.869648 -213.934474
L 311.197312 -214.097808
L 311.524976 -214.261142
L 311.85264 -214.424475
L 312.180304 -214.587809
L 312.507968 -214.751143
L 312.835632 -214.914477
L 313.163296 -215.077811
L 313.49096 -215.241145
L 313.818624 -215.404479
L 314.146288 -215.567812
L 314.473952 -215.731146
L 314.801616 -215.89448
L 315.12928 -216.057814
L 315.456944 -216.221148
L 315.784608 -216.384482
L 316.112272 -216.547816
L 316.439936 -216.71115
L 316.7676 -216.874483
L 317.095264 -217.037817
L 317.422928 -217.201151
L 317.750592 -217.364485
L 318.078256 -217.527819
L 318.40592 -217.691153
L 318.733584 -217.854487
L 319.061248 -218.01782
L 319.388912 -218.181154
L 319.716576 -218.344488
L 320.04424 -218.507822
L 320.371904 -218.671156
L 320.699568 -218.83449
L 321.027232 -218.997824
L 321.354896 -219.161158
L 321.68256 -219.324491
L 322.010224 -219.487825
L 322.337888 -219.651159
L 322.665552 -219.814493
L 322.993216 -219.977827
L 323.32088 -220.141161
L 323.648544 -220.304495
L 323.976208 -220.467828
L 324.303872 -220.631162
L 324.631536 -220.794496
L 324.9592 -220.95783
L 325.286864 -221.121164
L 325.614528 -221.284498
L 325.942192 -221.447832
L 326.269856 -221.611166
L 326.59752 -221.774499
L 326.925184 -221.937833
L 327.252848 -222.101167
L 327.580512 -222.264501
L 327.908176 -222.427835
L 328.23584 -222.591169
L 328.563504 -222.754503
L 328.891168 -222.917836
L 329.218832 -223.08117
L 329.546496 -223.244504
L 329.87416 -223.407838
L 330.201824 -223.571172
L 330.529488 -223.734506
L 330.857152 -223.89784
L 331.184816 -224.061174
L 331.51248 -224.224507
L 331.840144 -224.387841
L 332.167808 -224.551175
L 332.495472 -224.714509
L 332.823136 -224.877843
L 333.1508 -225.041177
L 333.478464 -225.204511
L 333.806128 -225.367844
L 334.133792 -225.531178
L 334.461456 -225.694512
L 334.78912 -225.857846
L 335.116784 -226.02118
L 335.444448 -226.184514
L 335.772112 -226.347848
L 336.099776 -226.511182
L 336.42744 -226.674515
L 336.755104 -226.837849
L 337.082768 -227.001183
L 337.410432 -227.164517
L 337.738096 -227.327851
L 338.06576 -227.491185
L 338.393424 -227.654519
L 338.721088 -227.817852
L 339.048752 -227.981186
L 339.376416 -228.14452
L 339.70408 -228.307854
L 340.031744 -228.471188
L 340.359408 -228.634522
L 340.687072 -228.797856
L 341.014736 -228.96119
L 341.3424 -229.124523
L 341.670064 -229.287857
L 341.997728 -229.451191
L 342.325392 -229.614525
L 342.653056 -229.777859
L 342.98072 -229.941193
L 343.308384 -230.104527
L 343.636048 -230.267861
L 343.963712 -230.431194
L 344.291376 -230.594528
L 344.61904 -230.757862
L 344.946704 -230.921196
L 345.274368 -231.08453
L 345.602032 -231.247864
L 345.929696 -231.411198
L 346.25736 -231.574531
L 346.585024 -231.737865
L 346.912688 -231.901199
L 347.240352 -232.064533
L 347.568016 -232.227867
L 347.89568 -232.391201
L 348.223344 -232.554535
L 348.551008 -232.717869
L 348.878672 -232.881202
L 349.206336 -233.044536
L 349.534 -233.20787
L 349.861664 -233.371204
L 350.189328 -233.534538
L 350.516992 -233.697872
L 350.844656 -233.861206
L 351.17232 -234.024539
L 351.499984 -234.187873
L 351.827648 -234.351207
L 352.155312 -234.514541
L 352.482976 -234.677875
L 352.81064 -234.841209
L 353.138304 -235.004543
L 353.465968 -235.167877
L 353.793632 -235.33121
L 354.121296 -235.494544
L 354.44896 -235.657878
L 354.776624 -235.821212
L 355.104288 -235.984546
L 355.431952 -236.14788
L 355.759616 -236.311214
L 356.08728 -236.474547
L 356.414944 -236.637881
L 356.742608 -236.801215
L 357.070272 -236.964549
L 357.397936 -237.127883
L 357.7256 -237.291217
L 358.053264 -237.454551
L 358.380928 -237.617885
L 358.708592 -237.781218
L 359.036256 -237.944552
L 359.36392 -238.107886
L 359.691584 -238.27122
L 360.019248 -238.434554
L 360.346912 -238.597888
L 360.674576 -238.761222
L 361.00224 -238.924555
L 361.329904 -239.087889
L 361.657568 -239.251223
L 361.985232 -239.414557
L 362.312896 -239.577891
L 362.64056 -239.741225
L 362.968224 -239.904559
L 363.295888 -240.067893
L 363.623552 -240.231226
L 363.951216 -240.39456
L 364.27888 -240.557894
L 364.606544 -240.721228
L 364.934208 -240.884562
L 365.261872 -241.047896
L 365.589536 -241.21123
L 365.9172 -241.374563
L 366.244864 -241.537897
L 366.572528 -241.701231
L 366.900192 -241.864565
L 367.227856 -242.027899
L 367.55552 -242.191233
L 367.883184 -242.354567
L 368.210848 -242.517901
L 368.538512 -242.681234
L 368.866176 -242.844568
L 369.19384 -243.007902
L 369.521504 -243.171236
L 369.849168 -243.33457
L 370.176832 -243.497904
L 370.504496 -243.661238
L 370.83216 -243.824571
L 371.159824 -243.987905
L 371.487488 -244.151239
L 371.815152 -244.314573
L 372.142816 -244.477907
L 372.47048 -244.641241
L 372.798144 -244.804575
L 373.125808 -244.967909
L 373.453472 -245.131242
L 373.781136 -245.294576
L 374.1088 -245.45791
L 374.436464 -245.621244
L 374.764128 -245.784578
L 375.091792 -245.947912
L 375.419456 -246.111246
L 375.74712 -246.274579
L 376.074784 -246.437913
L 376.402448 -246.601247
L 376.730112 -246.764581
L 377.057776 -246.927915
L 377.38544 -247.091249
L 377.713104 -247.254583
L 378.040768 -247.417917
L 378.368432 -247.58125
L 378.696096 -247.744584
L 379.02376 -247.907918
L 379.351424 -248.071252
L 379.679088 -248.234586
L 380.006752 -248.39792
L 380.334416 -248.561254
L 380.66208 -248.724587
L 380.989744 -248.887921
L 381.317408 -249.051255
L 381.645072 -249.214589
L 381.972736 -249.377923
L 382.3004 -249.541257
L 382.628064 -249.704591
L 382.955728 -249.867925
L 383.283392 -250.031258
L 383.611056 -250.194592
L 383.93872 -250.357926
L 384.266384 -250.52126
L 384.594048 -250.684594
L 384.921712 -250.847928
L 385.249376 -251.011262
L 385.57704 -251.174595
L 385.904704 -251.337929
L 386.232368 -251.501263
L 386.560032 -251.664597
L 386.887696 -251.827931
L 387.21536 -251.991265
L 387.543024 -252.154599
L 387.870688 -252.317933
L 388.198352 -252.481266
L 388.526016 -252.6446
L 388.85368 -252.807934
L 389.181344 -252.971268
L 389.509008 -253.134602
L 389.836672 -253.297936
L 390.164336 -253.46127
L 390.492 -253.624604
L 390.819664 -253.787937
L 391.147328 -253.951271
L 391.474992 -254.114605
L 391.802656 -254.277939
L 392.13032 -254.441273
L 392.457984 -254.604607
L 392.785648 -254.767941
L 393.113312 -254.931274
L 393.440976 -255.094608
L 393.76864 -255.257942
L 394.096304 -255.421276
L 394.423968 -255.58461
L 394.751632 -255.747944
L 395.079296 -255.911278
L 395.40696 -256.074612
L 395.734624 -256.237945
L 396.062288 -256.401279
L 396.389952 -256.564613
L 396.717616 -256.727947
L 397.04528 -256.891281
L 397.372944 -257.054615
L 397.700608 -257.217949
L 398.028272 -257.381282
L 398.355936 -257.544616
L 398.6836 -257.70795
L 399.011264 -257.871284
L 399.338928 -258.034618
L 399.666592 -258.197952
L 399.994256 -258.361286
L 400.32192 -258.52462
L 400.649584 -258.687953
L 400.977248 -258.851287
L 401.304912 -259.014621
L 401.632576 -259.177955
L 401.96024 -259.341289
L 402.287904 -259.504623
L 402.615568 -259.667957
L 402.943232 -259.83129
L 403.270896 -259.994624
L 403.59856 -260.157958
L 403.926224 -260.235736
L 404.253888 -260.313514
L 404.581552 -260.391292
L 404.909216 -260.46907
L 405.23688 -260.546848
L 405.564544 -260.624626
L 405.892208 -260.702404
L 406.219872 -260.780182
L 406.547536 -260.85796
L 406.8752 -260.935739
L 407.202864 -261.013517
L 407.530528 -261.091295
L 407.858192 -261.169073
L 408.185856 -261.246851
L 408.51352 -261.324629
L 408.841184 -261.402407
L 409.168848 -261.480185
L 409.496512 -261.557963
L 409.824176 -261.635741
L 410.15184 -261.713519
L 410.479504 -261.791297
L 410.807168 -261.869075
L 411.134832 -261.946853
L 411.462496 -262.024631
L 411.79016 -262.102409
L 412.117824 -262.180187
L 412.445488 -262.257965
L 412.773152 -262.335743
L 413.100816 -262.413521
L 413.42848 -262.491299
L 413.756144 -262.569077
L 414.083808 -262.646855
L 414.411472 -262.724633
L 414.739136 -262.802411
L 415.0668 -262.880189
L 415.394464 -262.957967
L 415.722128 -263.035745
L 416.049792 -263.113523
L 416.377456 -263.191301
L 416.70512 -263.269079
L 417.032784 -263.346858
L 417.360448 -263.424636
L 417.688112 -263.502414
L 418.015776 -263.580192
L 418.34344 -263.65797
L 418.671104 -263.735748
L 418.998768 -263.813526
L 419.326432 -263.891304
L 419.654096 -263.969082
L 419.98176 -264.04686
L 420.309424 -264.124638
L 420.637088 -264.202416
L 420.964752 -264.280194
L 421.292416 -264.357972
L 421.62008 -264.43575
L 421.947744 -264.513528
L 422.275408 -264.591306
L 422.603072 -264.669084
L 422.930736 -264.746862
L 423.2584 -264.82464
L 423.586064 -264.902418
L 423.913728 -264.980196
L 424.241392 -265.057974
L 424.569056 -265.135752
L 424.89672 -265.21353
L 425.224384 -265.291308
L 425.552048 -265.369086
L 425.879712 -265.446864
L 426.207376 -265.524642
L 426.53504 -265.60242
L 426.862704 -265.680198
L 427.190368 -265.757976
L 427.518032 -265.835755
L 427.845696 -265.913533
L 428.17336 -265.991311
L 428.501024 -266.069089
L 428.828688 -266.146867
L 429.156352 -266.224645
L 429.484016 -266.302423
L 429.81168 -266.380201
L 430.139344 -266.457979
L 430.467008 -266.535757
L 430.794672 -266.613535
L 431.122336 -266.691313
L 431.45 -266.769091
L 431.45 -58.150909
L 431.45 -58.150909
L 431.122336 -58.150909
L 430.794672 -58.150909
L 430.467008 -58.150909
L 430.139344 -58.150909
L 429.81168 -58.150909
L 429.484016 -58.150909
L 429.156352 -58.150909
L 428.828688 -58.150909
L 428.501024 -58.150909
L 428.17336 -58.150909
L 427.845696 -58.150909
L 427.518032 -58.150909
L 427.190368 -58.150909
L 426.862704 -58.150909
L 426.53504 -58.150909
L 426.207376 -58.150909
L 425.879712 -58.150909
L 425.552048 -58.150909
L 425.224384 -58.150909
L 424.89672 -58.150909
L 424.569056 -58.150909
L 424.241392 -58.150909
L 423.913728 -58.150909
L 423.586064 -58.150909
L 423.2584 -58.150909
L 422.930736 -58.150909
L 422.603072 -58.150909
L 422.275408 -58.150909
L 421.947744 -58.150909
L 421.62008 -58.150909
L 421.292416 -58.150909
L 420.964752 -58.150909
L 420.637088 -58.150909
L 420.309424 -58.150909
L 419.98176 -58.150909
L 419.654096 -58.150909
L 419.326432 -58.150909
L 418.998768 -58.150909
L 418.671104 -58.150909
L 418.34344 -58.150909
L 418.015776 -58.150909
L 417.688112 -58.150909
L 417.360448 -58.150909
L 417.032784 -58.150909
L 416.70512 -58.150909
L 416.377456 -58.150909
L 416.049792 -58.150909
L 415.722128 -58.150909
L 415.394464 -58.150909
L 415.0668 -58.150909
L 414.739136 -58.150909
L 414.411472 -58.150909
L 414.083808 -58.150909
L 413.756144 -58.150909
L 413.42848 -58.150909
L 413.100816 -58.150909
L 412.773152 -58.150909
L 412.445488 -58.150909
L 412.117824 -58.150909
L 411.79016 -58.150909
L 411.462496 -58.150909
L 411.134832 -58.150909
L 410.807168 -58.150909
L 410.479504 -58.150909
L 410.15184 -58.150909
L 409.824176 -58.150909
L 409.496512 -58.150909
L 409.168848 -58.150909
L 408.841184 -58.150909
L 408.51352 -58.150909
L 408.185856 -58.150909
L 407.858192 -58.150909
L 407.530528 -58.150909
L 407.202864 -58.150909
L 406.8752 -58.150909
L 406.547536 -58.150909
L 406.219872 -58.150909
L 405.892208 -58.150909
L 405.564544 -58.150909
L 405.23688 -58.150909
L 404.909216 -58.150909
L 404.581552 -58.150909
L 404.253888 -58.150909
L 403.926224 -58.150909
L 403.59856 -58.150909
L 403.270896 -58.150909
L 402.943232 -58.150909
L 402.615568 -58.150909
L 402.287904 -58.150909
L 401.96024 -58.150909
L 401.632576 -58.150909
L 401.304912 -58.150909
L 400.977248 -58.150909
L 400.649584 -58.150909
L 400.32192 -58.150909
L 399.994256 -58.150909
L 399.666592 -58.150909
L 399.338928 -58.150909
L 399.011264 -58.150909
L 398.6836 -58.150909
L 398.355936 -58.150909
L 398.028272 -58.150909
L 397.700608 -58.150909
L 397.372944 -58.150909
L 397.04528 -58.150909
L 396.717616 -58.150909
L 396.389952 -58.150909
L 396.062288 -58.150909
L 395.734624 -58.150909
L 395.40696 -58.150909
L 395.079296 -58.150909
L 394.751632 -58.150909
L 394.423968 -58.150909
L 394.096304 -58.150909
L 393.76864 -58.150909
L 393.440976 -58.150909
L 393.113312 -58.150909
L 392.785648 -58.150909
L 392.457984 -58.150909
L 392.13032 -58.150909
L 391.802656 -58.150909
L 391.474992 -58.150909
L 391.147328 -58.150909
L 390.819664 -58.150909
L 390.492 -58.150909
L 390.164336 -58.150909
L 389.836672 -58.150909
L 389.509008 -58.150909
L 389.181344 -58.150909
L 388.85368 -58.150909
L 388.526016 -58.150909
L 388.198352 -58.150909
L 387.870688 -58.150909
L 387.543024 -58.150909
L 387.21536 -58.150909
L 386.887696 -58.150909
L 386.560032 -58.150909
L 386.232368 -58.150909
L 385.904704 -58.150909
L 385.57704 -58.150909
L 385.249376 -58.150909
L 384.921712 -58.150909
L 384.594048 -58.150909
L 384.266384 -58.150909
L 383.93872 -58.150909
L 383.611056 -58.150909
L 383.283392 -58.150909
L 382.955728 -58.150909
L 382.628064 -58.150909
L 382.3004 -58.150909
L 381.972736 -58.150909
L 381.645072 -58.150909
L 381.317408 -58.150909
L 380.989744 -58.150909
L 380.66208 -58.150909
L 380.334416 -58.150909
L 380.006752 -58.150909
L 379.679088 -58.150909
L 379.351424 -58.150909
L 379.02376 -58.150909
L 378.696096 -58.150909
L 378.368432 -58.150909
L 378.040768 -58.150909
L 377.713104 -58.150909
L 377.38544 -58.150909
L 377.057776 -58.150909
L 376.730112 -58.150909
L 376.402448 -58.150909
L 376.074784 -58.150909
L 375.74712 -58.150909
L 375.419456 -58.150909
L 375.091792 -58.150909
L 374.764128 -58.150909
L 374.436464 -58.150909
L 374.1088 -58.150909
L 373.781136 -58.150909
L 373.453472 -58.150909
L 373.125808 -58.150909
L 372.798144 -58.150909
L 372.47048 -58.150909
L 372.142816 -58.150909
L 371.815152 -58.150909
L 371.487488 -58.150909
L 371.159824 -58.150909
L 370.83216 -58.150909
L 370.504496 -58.150909
L 370.176832 -58.150909
L 369.849168 -58.150909
L 369.521504 -58.150909
L 369.19384 -58.150909
L 368.866176 -58.150909
L 368.538512 -58.150909
L 368.210848 -58.150909
L 367.883184 -58.150909
L 367.55552 -58.150909
L 367.227856 -58.150909
L 366.900192 -58.150909
L 366.572528 -58.150909
L 366.244864 -58.150909
L 365.9172 -58.150909
L 365.589536 -58.150909
L 365.261872 -58.150909
L 364.934208 -58.150909
L 364.606544 -58.150909
L 364.27888 -58.150909
L 363.951216 -58.150909
L 363.623552 -58.150909
L 363.295888 -58.150909
L 362.968224 -58.150909
L 362.64056 -58.150909
L 362.312896 -58.150909
L 361.985232 -58.150909
L 361.657568 -58.150909
L 361.329904 -58.150909
L 361.00224 -58.150909
L 360.674576 -58.150909
L 360.346912 -58.150909
L 360.019248 -58.150909
L 359.691584 -58.150909
L 359.36392 -58.150909
L 359.036256 -58.150909
L 358.708592 -58.150909
L 358.380928 -58.150909
L 358.053264 -58.150909
L 357.7256 -58.150909
L 357.397936 -58.150909
L 357.070272 -58.150909
L 356.742608 -58.150909
L 356.414944 -58.150909
L 356.08728 -58.150909
L 355.759616 -58.150909
L 355.431952 -58.150909
L 355.104288 -58.150909
L 354.776624 -58.150909
L 354.44896 -58.150909
L 354.121296 -58.150909
L 353.793632 -58.150909
L 353.465968 -58.150909
L 353.138304 -58.150909
L 352.81064 -58.150909
L 352.482976 -58.150909
L 352.155312 -58.150909
L 351.827648 -58.150909
L 351.499984 -58.150909
L 351.17232 -58.150909
L 350.844656 -58.150909
L 350.516992 -58.150909
L 350.189328 -58.150909
L 349.861664 -58.150909
L 349.534 -58.150909
L 349.206336 -58.150909
L 348.878672 -58.150909
L 348.551008 -58.150909
L 348.223344 -58.150909
L 347.89568 -58.150909
L 347.568016 -58.150909
L 347.240352 -58.150909
L 346.912688 -58.150909
L 346.585024 -58.150909
L 346.25736 -58.150909
L 345.929696 -58.150909
L 345.602032 -58.150909
L 345.274368 -58.150909
L 344.946704 -58.150909
L 344.61904 -58.150909
L 344.291376 -58.150909
L 343.963712 -58.150909
L 343.636048 -58.150909
L 343.308384 -58.150909
L 342.98072 -58.150909
L 342.653056 -58.150909
L 342.325392 -58.150909
L 341.997728 -58.150909
L 341.670064 -58.150909
L 341.3424 -58.150909
L 341.014736 -58.150909
L 340.687072 -58.150909
L 340.359408 -58.150909
L 340.031744 -58.150909
L 339.70408 -58.150909
L 339.376416 -58.150909
L 339.048752 -58.150909
L 338.721088 -58.150909
L 338.393424 -58.150909
L 338.06576 -58.150909
L 337.738096 -58.150909
L 337.410432 -58.150909
L 337.082768 -58.150909
L 336.755104 -58.150909
L 336.42744 -58.150909
L 336.099776 -58.150909
L 335.772112 -58.150909
L 335.444448 -58.150909
L 335.116784 -58.150909
L 334.78912 -58.150909
L 334.461456 -58.150909
L 334.133792 -58.150909
L 333.806128 -58.150909
L 333.478464 -58.150909
L 333.1508 -58.150909
L 332.823136 -58.150909
L 332.495472 -58.150909
L 332.167808 -58.150909
L 331.840144 -58.150909
L 331.51248 -58.150909
L 331.184816 -58.150909
L 330.857152 -58.150909
L 330.529488 -58.150909
L 330.201824 -58.150909
L 329.87416 -58.150909
L 329.546496 -58.150909
L 329.218832 -58.150909
L 328.891168 -58.150909
L 328.563504 -58.150909
L 328.23584 -58.150909
L 327.908176 -58.150909
L 327.580512 -58.150909
L 327.252848 -58.150909
L 326.925184 -58.150909
L 326.59752 -58.150909
L 326.269856 -58.150909
L 325.942192 -58.150909
L 325.614528 -58.150909
L 325.286864 -58.150909
L 324.9592 -58.150909
L 324.631536 -58.150909
L 324.303872 -58.150909
L 323.976208 -58.150909
L 323.648544 -58.150909
L 323.32088 -58.150909
L 322.993216 -58.150909
L 322.665552 -58.150909
L 322.337888 -58.150909
L 322.010224 -58.150909
L 321.68256 -58.150909
L 321.354896 -58.150909
L 321.027232 -58.150909
L 320.699568 -58.150909
L 320.371904 -58.150909
L 320.04424 -58.150909
L 319.716576 -58.150909
L 319.388912 -58.150909
L 319.061248 -58.150909
L 318.733584 -58.150909
L 318.40592 -58.150909
L 318.078256 -58.150909
L 317.750592 -58.150909
L 317.422928 -58.150909
L 317.095264 -58.150909
L 316.7676 -58.150909
L 316.439936 -58.150909
L 316.112272 -58.150909
L 315.784608 -58.150909
L 315.456944 -58.150909
L 315.12928 -58.150909
L 314.801616 -58.150909
L 314.473952 -58.150909
L 314.146288 -58.150909
L 313.818624 -58.150909
L 313.49096 -58.150909
L 313.163296 -58.150909
L 312.835632 -58.150909
L 312.507968 -58.150909
L 312.180304 -58.150909
L 311.85264 -58.150909
L 311.524976 -58.150909
L 311.197312 -58.150909
L 310.869648 -58.150909
L 310.541984 -58.150909
L 310.21432 -58.150909
L 309.886656 -58.150909
L 309.558992 -58.150909
L 309.231328 -58.150909
L 308.903664 -58.150909
L 308.576 -58.150909
L 308.248336 -58.150909
L 307.920672 -58.150909
L 307.593008 -58.150909
L 307.265344 -58.150909
L 306.93768 -58.150909
L 306.610016 -58.150909
L 306.282352 -58.150909
L 305.954688 -58.150909
L 305.627024 -58.150909
L 305.29936 -58.150909
L 304.971696 -58.150909
L 304.644032 -58.150909
L 304.316368 -58.150909
L 303.988704 -58.150909
L 303.66104 -58.150909
L 303.333376 -58.150909
L 303.005712 -58.150909
L 302.678048 -58.150909
L 302.350384 -58.150909
L 302.02272 -58.150909
L 301.695056 -58.150909
L 301.367392 -58.150909
L 301.039728 -58.150909
L 300.712064 -58.150909
L 300.3844 -58.150909
L 300.056736 -58.150909
L 299.729072 -58.150909
L 299.401408 -58.150909
L 299.073744 -58.150909
L 298.74608 -58.150909
L 298.418416 -58.150909
L 298.090752 -58.150909
L 297.763088 -58.150909
L 297.435424 -58.150909
L 297.10776 -58.150909
L 296.780096 -58.150909
L 296.452432 -58.150909
L 296.124768 -58.150909
L 295.797104 -58.150909
L 295.46944 -58.150909
L 295.141776 -58.150909
L 294.814112 -58.150909
L 294.486448 -58.150909
L 294.158784 -58.150909
L 293.83112 -58.150909
L 293.503456 -58.150909
L 293.175792 -58.150909
L 292.848128 -58.150909
L 292.520464 -58.150909
L 292.1928 -58.150909
L 291.865136 -58.150909
L 291.537472 -58.150909
L 291.209808 -58.150909
L 290.882144 -58.150909
L 290.55448 -58.150909
L 290.226816 -58.150909
L 289.899152 -58.150909
L 289.571488 -58.150909
L 289.243824 -58.150909
L 288.91616 -58.150909
L 288.588496 -58.150909
L 288.260832 -58.150909
L 287.933168 -58.150909
L 287.605504 -58.150909
L 287.27784 -58.150909
L 286.950176 -58.150909
L 286.622512 -58.150909
L 286.294848 -58.150909
L 285.967184 -58.150909
L 285.63952 -58.150909
L 285.311856 -58.150909
L 284.984192 -58.150909
L 284.656528 -58.150909
L 284.328864 -58.150909
L 284.0012 -58.150909
L 283.673536 -58.150909
L 283.345872 -58.150909
L 283.018208 -58.150909
L 282.690544 -58.150909
L 282.36288 -58.150909
L 282.035216 -58.150909
L 281.707552 -58.150909
L 281.379888 -58.150909
L 281.052224 -58.150909
L 280.72456 -58.150909
L 280.396896 -58.150909
L 280.069232 -58.150909
L 279.741568 -58.150909
L 279.413904 -58.150909
L 279.08624 -58.150909
L 278.758576 -58.150909
L 278.430912 -58.150909
L 278.103248 -58.150909
L 277.775584 -58.150909
L 277.44792 -58.150909
L 277.120256 -58.150909
L 276.792592 -58.150909
L 276.464928 -58.150909
L 276.137264 -58.150909
L 275.8096 -58.150909
L 275.481936 -58.150909
L 275.154272 -58.150909
L 274.826608 -58.150909
L 274.498944 -58.150909
L 274.17128 -58.150909
L 273.843616 -58.150909
L 273.515952 -58.150909
L 273.188288 -58.150909
L 272.860624 -58.150909
L 272.53296 -58.150909
L 272.205296 -58.150909
L 271.877632 -58.150909
L 271.549968 -58.150909
L 271.222304 -58.150909
L 270.89464 -58.150909
L 270.566976 -58.150909
L 270.239312 -58.150909
L 269.911648 -58.150909
L 269.583984 -58.150909
L 269.25632 -58.150909
L 268.928656 -58.150909
L 268.600992 -58.150909
L 268.273328 -58.150909
L 267.945664 -58.150909
L 267.618 -58.150909
L 267.290336 -58.150909
L 266.962672 -58.150909
L 266.635008 -58.150909
L 266.307344 -58.150909
L 265.97968 -58.150909
L 265.652016 -58.150909
L 265.324352 -58.150909
L 264.996688 -58.150909
L 264.669024 -58.150909
L 264.34136 -58.150909
L 264.013696 -58.150909
L 263.686032 -58.150909
L 263.358368 -58.150909
L 263.030704 -58.150909
L 262.70304 -58.150909
L 262.375376 -58.150909
L 262.047712 -58.150909
L 261.720048 -58.150909
L 261.392384 -58.150909
L 261.06472 -58.150909
L 260.737056 -58.150909
L 260.409392 -58.150909
L 260.081728 -58.150909
L 259.754064 -58.150909
L 259.4264 -58.150909
L 259.098736 -58.150909
L 258.771072 -58.150909
L 258.443408 -58.150909
L 258.115744 -58.150909
L 257.78808 -58.150909
L 257.460416 -58.150909
L 257.132752 -58.150909
L 256.805088 -58.150909
L 256.477424 -58.150909
L 256.14976 -58.150909
L 255.822096 -58.150909
L 255.494432 -58.150909
L 255.166768 -58.150909
L 254.839104 -58.150909
L 254.51144 -58.150909
L 254.183776 -58.150909
L 253.856112 -58.150909
L 253.528448 -58.150909
L 253.200784 -58.150909
L 252.87312 -58.150909
L 252.545456 -58.150909
L 252.217792 -58.150909
L 251.890128 -58.150909
L 251.562464 -58.150909
L 251.2348 -58.150909
L 250.907136 -58.150909
L 250.579472 -58.150909
L 250.251808 -58.150909
L 249.924144 -58.150909
L 249.59648 -58.150909
L 249.268816 -58.150909
L 248.941152 -58.150909
L 248.613488 -58.150909
L 248.285824 -58.150909
L 247.95816 -58.150909
L 247.630496 -58.150909
L 247.302832 -58.150909
L 246.975168 -58.150909
L 246.647504 -58.150909
L 246.31984 -58.150909
L 245.992176 -58.150909
L 245.664512 -58.150909
L 245.336848 -58.150909
L 245.009184 -58.150909
L 244.68152 -58.150909
L 244.353856 -58.150909
L 244.026192 -58.150909
L 243.698528 -58.150909
L 243.370864 -58.150909
L 243.0432 -58.150909
L 242.715536 -58.150909
L 242.387872 -58.150909
L 242.060208 -58.150909
L 241.732544 -58.150909
L 241.40488 -58.150909
L 241.077216 -58.150909
L 240.749552 -58.150909
L 240.421888 -58.150909
L 240.094224 -58.150909
L 239.76656 -58.150909
L 239.438896 -58.150909
L 239.111232 -58.150909
L 238.783568 -58.150909
L 238.455904 -58.150909
L 238.12824 -58.150909
L 237.800576 -58.150909
L 237.472912 -58.150909
L 237.145248 -58.150909
L 236.817584 -58.150909
L 236.48992 -58.150909
L 236.162256 -58.150909
L 235.834592 -58.150909
L 235.506928 -58.150909
L 235.179264 -58.150909
L 234.8516 -58.150909
L 234.523936 -58.150909
L 234.196272 -58.150909
L 233.868608 -58.150909
L 233.540944 -58.150909
L 233.21328 -58.150909
L 232.885616 -58.150909
L 232.557952 -58.150909
L 232.230288 -58.150909
L 231.902624 -58.150909
L 231.57496 -58.150909
L 231.247296 -58.150909
L 230.919632 -58.150909
L 230.591968 -58.150909
L 230.264304 -58.150909
L 229.93664 -58.150909
L 229.608976 -58.150909
L 229.281312 -58.150909
L 228.953648 -58.150909
L 228.625984 -58.150909
L 228.29832 -58.150909
L 227.970656 -58.150909
L 227.642992 -58.150909
L 227.315328 -58.150909
L 226.987664 -58.150909
L 226.66 -58.150909
L 226.332336 -58.150909
L 226.004672 -58.150909
L 225.677008 -58.150909
L 225.349344 -58.150909
L 225.02168 -58.150909
L 224.694016 -58.150909
L 224.366352 -58.150909
L 224.038688 -58.150909
L 223.711024 -58.150909
L 223.38336 -58.150909
L 223.055696 -58.150909
L 222.728032 -58.150909
L 222.400368 -58.150909
L 222.072704 -58.150909
L 221.74504 -58.150909
L 221.417376 -58.150909
L 221.089712 -58.150909
L 220.762048 -58.150909
L 220.434384 -58.150909
L 220.10672 -58.150909
L 219.779056 -58.150909
L 219.451392 -58.150909
L 219.123728 -58.150909
L 218.796064 -58.150909
L 218.4684 -58.150909
L 218.140736 -58.150909
L 217.813072 -58.150909
L 217.485408 -58.150909
L 217.157744 -58.150909
L 216.83008 -58.150909
L 216.502416 -58.150909
L 216.174752 -58.150909
L 215.847088 -58.150909
L 215.519424 -58.150909
L 215.19176 -58.150909
L 214.864096 -58.150909
L 214.536432 -58.150909
L 214.208768 -58.150909
L 213.881104 -58.150909
L 213.55344 -58.150909
L 213.225776 -58.150909
L 212.898112 -58.150909
L 212.570448 -58.150909
L 212.242784 -58.150909
L 211.91512 -58.150909
L 211.587456 -58.150909
L 211.259792 -58.150909
L 210.932128 -58.150909
L 210.604464 -58.150909
L 210.2768 -58.150909
L 209.949136 -58.150909
L 209.621472 -58.150909
L 209.293808 -58.150909
L 208.966144 -58.150909
L 208.63848 -58.150909
L 208.310816 -58.150909
L 207.983152 -58.150909
L 207.655488 -58.150909
L 207.327824 -58.150909
L 207.00016 -58.150909
L 206.672496 -58.150909
L 206.344832 -58.150909
L 206.017168 -58.150909
L 205.689504 -58.150909
L 205.36184 -58.150909
L 205.034176 -58.150909
L 204.706512 -58.150909
L 204.378848 -58.150909
L 204.051184 -58.150909
L 203.72352 -58.150909
L 203.395856 -58.150909
L 203.068192 -58.150909
L 202.740528 -58.150909
L 202.412864 -58.150909
L 202.0852 -58.150909
L 201.757536 -58.150909
L 201.429872 -58.150909
L 201.102208 -58.150909
L 200.774544 -58.150909
L 200.44688 -58.150909
L 200.119216 -58.150909
L 199.791552 -58.150909
L 199.463888 -58.150909
L 199.136224 -58.150909
L 198.80856 -58.150909
L 198.480896 -58.150909
L 198.153232 -58.150909
L 197.825568 -58.150909
L 197.497904 -58.150909
L 197.17024 -58.150909
L 196.842576 -58.150909
L 196.514912 -58.150909
L 196.187248 -58.150909
L 195.859584 -58.150909
L 195.53192 -58.150909
L 195.204256 -58.150909
L 194.876592 -58.150909
L 194.548928 -58.150909
L 194.221264 -58.150909
L 193.8936 -58.150909
L 193.565936 -58.150909
L 193.238272 -58.150909
L 192.910608 -58.150909
L 192.582944 -58.150909
L 192.25528 -58.150909
L 191.927616 -58.150909
L 191.599952 -58.150909
L 191.272288 -58.150909
L 190.944624 -58.150909
L 190.61696 -58.150909
L 190.289296 -58.150909
L 189.961632 -58.150909
L 189.633968 -58.150909
L 189.306304 -58.150909
L 188.97864 -58.150909
L 188.650976 -58.150909
L 188.323312 -58.150909
L 187.995648 -58.150909
L 187.667984 -58.150909
L 187.34032 -58.150909
L 187.012656 -58.150909
L 186.684992 -58.150909
L 186.357328 -58.150909
L 186.029664 -58.150909
L 185.702 -58.150909
L 185.374336 -58.150909
L 185.046672 -58.150909
L 184.719008 -58.150909
L 184.391344 -58.150909
L 184.06368 -58.150909
L 183.736016 -58.150909
L 183.408352 -58.150909
L 183.080688 -58.150909
L 182.753024 -58.150909
L 182.42536 -58.150909
L 182.097696 -58.150909
L 181.770032 -58.150909
L 181.442368 -58.150909
L 181.114704 -58.150909
L 180.78704 -58.150909
L 180.459376 -58.150909
L 180.131712 -58.150909
L 179.804048 -58.150909
L 179.476384 -58.150909
L 179.14872 -58.150909
L 178.821056 -58.150909
L 178.493392 -58.150909
L 178.165728 -58.150909
L 177.838064 -58.150909
L 177.5104 -58.150909
L 177.182736 -58.150909
L 176.855072 -58.150909
L 176.527408 -58.150909
L 176.199744 -58.150909
L 175.87208 -58.150909
L 175.544416 -58.150909
L 175.216752 -58.150909
L 174.889088 -58.150909
L 174.561424 -58.150909
L 174.23376 -58.150909
L 173.906096 -58.150909
L 173.578432 -58.150909
L 173.250768 -58.150909
L 172.923104 -58.150909
L 172.59544 -58.150909
L 172.267776 -58.150909
L 171.940112 -58.150909
L 171.612448 -58.150909
L 171.284784 -58.150909
L 170.95712 -58.150909
L 170.629456 -58.150909
L 170.301792 -58.150909
L 169.974128 -58.150909
L 169.646464 -58.150909
L 169.3188 -58.150909
L 168.991136 -58.150909
L 168.663472 -58.150909
L 168.335808 -58.150909
L 168.008144 -58.150909
L 167.68048 -58.150909
L 167.352816 -58.150909
L 167.025152 -58.150909
L 166.697488 -58.150909
L 166.369824 -58.150909
L 166.04216 -58.150909
L 165.714496 -58.150909
L 165.386832 -58.150909
L 165.059168 -58.150909
L 164.731504 -58.150909
L 164.40384 -58.150909
L 164.076176 -58.150909
L 163.748512 -58.150909
L 163.420848 -58.150909
L 163.093184 -58.150909
L 162.76552 -58.150909
L 162.437856 -58.150909
L 162.110192 -58.150909
L 161.782528 -58.150909
L 161.454864 -58.150909
L 161.1272 -58.150909
L 160.799536 -58.150909
L 160.471872 -58.150909
L 160.144208 -58.150909
L 159.816544 -58.150909
L 159.48888 -58.150909
L 159.161216 -58.150909
L 158.833552 -58.150909
L 158.505888 -58.150909
L 158.178224 -58.150909
L 157.85056 -58.150909
L 157.522896 -58.150909
L 157.195232 -58.150909
L 156.867568 -58.150909
L 156.539904 -58.150909
L 156.21224 -58.150909
L 155.884576 -58.150909
L 155.556912 -58.150909
L 155.229248 -58.150909
L 154.901584 -58.150909
L 154.57392 -58.150909
L 154.246256 -58.150909
L 153.918592 -58.150909
L 153.590928 -58.150909
L 153.263264 -58.150909
L 152.9356 -58.150909
L 152.607936 -58.150909
L 152.280272 -58.150909
L 151.952608 -58.150909
L 151.624944 -58.150909
L 151.29728 -58.150909
L 150.969616 -58.150909
L 150.641952 -58.150909
L 150.314288 -58.150909
L 149.986624 -58.150909
L 149.65896 -58.150909
L 149.331296 -58.150909
L 149.003632 -58.150909
L 148.675968 -58.150909
L 148.348304 -58.150909
L 148.02064 -58.150909
L 147.692976 -58.150909
L 147.365312 -58.150909
L 147.037648 -58.150909
L 146.709984 -58.150909
L 146.38232 -58.150909
L 146.054656 -58.150909
L 145.726992 -58.150909
L 145.399328 -58.150909
L 145.071664 -58.150909
L 144.744 -58.150909
L 144.416336 -58.150909
L 144.088672 -58.150909
L 143.761008 -58.150909
L 143.433344 -58.150909
L 143.10568 -58.150909
L 142.778016 -58.150909
L 142.450352 -58.150909
L 142.122688 -58.150909
L 141.795024 -58.150909
L 141.46736 -58.150909
L 141.139696 -58.150909
L 140.812032 -58.150909
L 140.484368 -58.150909
L 140.156704 -58.150909
L 139.82904 -58.150909
L 139.501376 -58.150909
L 139.173712 -58.150909
L 138.846048 -58.150909
L 138.518384 -58.150909
L 138.19072 -58.150909
L 137.863056 -58.150909
L 137.535392 -58.150909
L 137.207728 -58.150909
L 136.880064 -58.150909
L 136.5524 -58.150909
L 136.224736 -58.150909
L 135.897072 -58.150909
L 135.569408 -58.150909
L 135.241744 -58.150909
L 134.91408 -58.150909
L 134.586416 -58.150909
L 134.258752 -58.150909
L 133.931088 -58.150909
L 133.603424 -58.150909
L 133.27576 -58.150909
L 132.948096 -58.150909
L 132.620432 -58.150909
L 132.292768 -58.150909
L 131.965104 -58.150909
L 131.63744 -58.150909
L 131.309776 -58.150909
L 130.982112 -58.150909
L 130.654448 -58.150909
L 130.326784 -58.150909
L 129.99912 -58.150909
L 129.671456 -58.150909
L 129.343792 -58.150909
L 129.016128 -58.150909
L 128.688464 -58.150909
L 128.3608 -58.150909
L 128.033136 -58.150909
L 127.705472 -58.150909
L 127.377808 -58.150909
L 127.050144 -58.150909
L 126.72248 -58.150909
L 126.394816 -58.150909
L 126.067152 -58.150909
L 125.739488 -58.150909
L 125.411824 -58.150909
L 125.08416 -58.150909
L 124.756496 -58.150909
L 124.428832 -58.150909
L 124.101168 -58.150909
L 123.773504 -58.150909
L 123.44584 -58.150909
L 123.118176 -58.150909
L 122.790512 -58.150909
L 122.462848 -58.150909
L 122.135184 -58.150909
L 121.80752 -58.150909
L 121.479856 -58.150909
L 121.152192 -58.150909
L 120.824528 -58.150909
L 120.496864 -58.150909
L 120.1692 -58.150909
L 119.841536 -58.150909
L 119.513872 -58.150909
L 119.186208 -58.150909
L 118.858544 -58.150909
L 118.53088 -58.150909
L 118.203216 -58.150909
L 117.875552 -58.150909
L 117.547888 -58.150909
L 117.220224 -58.150909
L 116.89256 -58.150909
L 116.564896 -58.150909
L 116.237232 -58.150909
L 115.909568 -58.150909
L 115.581904 -58.150909
L 115.25424 -58.150909
L 114.926576 -58.150909
L 114.598912 -58.150909
L 114.271248 -58.150909
L 113.943584 -58.150909
L 113.61592 -58.150909
L 113.288256 -58.150909
L 112.960592 -58.150909
L 112.632928 -58.150909
L 112.305264 -58.150909
L 111.9776 -58.150909
L 111.649936 -58.150909
L 111.322272 -58.150909
L 110.994608 -58.150909
L 110.666944 -58.150909
L 110.33928 -58.150909
L 110.011616 -58.150909
L 109.683952 -58.150909
L 109.356288 -58.150909
L 109.028624 -58.150909
L 108.70096 -58.150909
L 108.373296 -58.150909
L 108.045632 -58.150909
L 107.717968 -58.150909
L 107.390304 -58.150909
L 107.06264 -58.150909
L 106.734976 -58.150909
L 106.407312 -58.150909
L 106.079648 -58.150909
L 105.751984 -58.150909
L 105.42432 -58.150909
L 105.096656 -58.150909
L 104.768992 -58.150909
L 104.441328 -58.150909
L 104.113664 -58.150909
L 103.786 -58.150909
L 103.458336 -58.150909
L 103.130672 -58.150909
L 102.803008 -58.150909
L 102.475344 -58.150909
L 102.14768 -58.150909
L 101.820016 -58.150909
L 101.492352 -58.150909
L 101.164688 -58.150909
L 100.837024 -58.150909
L 100.50936 -58.150909
L 100.181696 -58.150909
L 99.854032 -58.150909
L 99.526368 -58.150909
L 99.198704 -58.150909
L 98.87104 -58.150909
L 98.543376 -58.150909
L 98.215712 -58.150909
L 97.888048 -58.150909
L 97.560384 -58.150909
L 97.23272 -58.150909
L 96.905056 -58.150909
L 96.577392 -58.150909
L 96.249728 -58.150909
L 95.922064 -58.150909
L 95.5944 -58.150909
L 95.266736 -58.150909
L 94.939072 -58.150909
L 94.611408 -58.150909
L 94.283744 -58.150909
L 93.95608 -58.150909
L 93.628416 -58.150909
L 93.300752 -58.150909
L 92.973088 -58.150909
L 92.645424 -58.150909
L 92.31776 -58.150909
L 91.990096 -58.150909
L 91.662432 -58.150909
L 91.334768 -58.150909
L 91.007104 -58.150909
L 90.67944 -58.150909
L 90.351776 -58.150909
L 90.024112 -58.150909
L 89.696448 -58.150909
L 89.368784 -58.150909
L 89.04112 -58.150909
L 88.713456 -58.150909
L 88.385792 -58.150909
L 88.058128 -58.150909
L 87.730464 -58.150909
L 87.4028 -58.150909
L 87.075136 -58.150909
L 86.747472 -58.150909
L 86.419808 -58.150909
L 86.092144 -58.150909
L 85.76448 -58.150909
L 85.436816 -58.150909
L 85.109152 -58.150909
L 84.781488 -58.150909
L 84.453824 -58.150909
L 84.12616 -58.150909
L 83.798496 -58.150909
L 83.470832 -58.150909
L 83.143168 -58.150909
L 82.815504 -58.150909
L 82.48784 -58.150909
L 82.160176 -58.150909
L 81.832512 -58.150909
L 81.504848 -58.150909
L 81.177184 -58.150909
L 80.84952 -58.150909
L 80.521856 -58.150909
L 80.194192 -58.150909
L 79.866528 -58.150909
L 79.538864 -58.150909
L 79.2112 -58.150909
L 78.883536 -58.150909
L 78.555872 -58.150909
L 78.228208 -58.150909
L 77.900544 -58.150909
L 77.57288 -58.150909
L 77.245216 -58.150909
L 76.917552 -58.150909
L 76.589888 -58.150909
L 76.262224 -58.150909
L 75.93456 -58.150909
L 75.606896 -58.150909
L 75.279232 -58.150909
L 74.951568 -58.150909
L 74.623904 -58.150909
L 74.29624 -58.150909
L 73.968576 -58.150909
L 73.640912 -58.150909
L 73.313248 -58.150909
L 72.985584 -58.150909
L 72.65792 -58.150909
L 72.330256 -58.150909
L 72.002592 -58.150909
L 71.674928 -58.150909
L 71.347264 -58.150909
L 71.0196 -58.150909
L 70.691936 -58.150909
L 70.364272 -58.150909
L 70.036608 -58.150909
L 69.708944 -58.150909
L 69.38128 -58.150909
L 69.053616 -58.150909
L 68.725952 -58.150909
L 68.398288 -58.150909
L 68.070624 -58.150909
L 67.74296 -58.150909
L 67.415296 -58.150909
L 67.087632 -58.150909
L 66.759968 -58.150909
L 66.432304 -58.150909
L 66.10464 -58.150909
L 65.776976 -58.150909
L 65.449312 -58.150909
L 65.121648 -58.150909
L 64.793984 -58.150909
L 64.46632 -58.150909
L 64.138656 -58.150909
L 63.810992 -58.150909
L 63.483328 -58.150909
L 63.155664 -58.150909
L 62.828 -58.150909
L 62.500336 -58.150909
L 62.172672 -58.150909
L 61.845008 -58.150909
L 61.517344 -58.150909
L 61.18968 -58.150909
L 60.862016 -58.150909
L 60.534352 -58.150909
L 60.206688 -58.150909
L 59.879024 -58.150909
L 59.55136 -58.150909
L 59.223696 -58.150909
L 58.896032 -58.150909
L 58.568368 -58.150909
L 58.240704 -58.150909
L 57.91304 -58.150909
L 57.585376 -58.150909
L 57.257712 -58.150909
L 56.930048 -58.150909
L 56.602384 -58.150909
L 56.27472 -58.150909
L 55.947056 -58.150909
L 55.619392 -58.150909
L 55.291728 -58.150909
L 54.964064 -58.150909
L 54.6364 -58.150909
L 54.308736 -58.150909
L 53.981072 -58.150909
L 53.653408 -58.150909
L 53.325744 -58.150909
L 52.99808 -58.150909
L 52.670416 -58.150909
L 52.342752 -58.150909
L 52.015088 -58.150909
L 51.687424 -58.150909
L 51.35976 -58.150909
L 51.032096 -58.150909
L 50.704432 -58.150909
L 50.376768 -58.150909
L 50.049104 -58.150909
L 49.72144 -58.150909
L 49.393776 -58.150909
L 49.066112 -58.150909
L 48.738448 -58.150909
L 48.410784 -58.150909
L 48.08312 -58.150909
L 47.755456 -58.150909
L 47.427792 -58.150909
L 47.100128 -58.150909
L 46.772464 -58.150909
L 46.4448 -58.150909
L 46.117136 -58.150909
L 45.789472 -58.150909
L 45.461808 -58.150909
L 45.134144 -58.150909
L 44.80648 -58.150909
L 44.478816 -58.150909
L 44.151152 -58.150909
L 43.823488 -58.150909
L 43.495824 -58.150909
L 43.16816 -58.150909
L 42.840496 -58.150909
L 42.512832 -58.150909
L 42.185168 -58.150909
L 41.857504 -58.150909
L 41.52984 -58.150909
L 41.202176 -58.150909
L 40.874512 -58.150909
L 40.546848 -58.150909
L 40.219184 -58.150909
L 39.89152 -58.150909
L 39.563856 -58.150909
L 39.236192 -58.150909
L 38.908528 -58.150909
L 38.580864 -58.150909
L 38.2532 -58.150909
L 37.925536 -58.150909
L 37.597872 -58.150909
L 37.270208 -58.150909
L 36.942544 -58.150909
L 36.61488 -58.150909
L 36.287216 -58.150909
L 35.959552 -58.150909
L 35.631888 -58.150909
L 35.304224 -58.150909
L 34.97656 -58.150909
L 34.648896 -58.150909
L 34.321232 -58.150909
L 33.993568 -58.150909
L 33.665904 -58.150909
L 33.33824 -58.150909
L 33.010576 -58.150909
L 32.682912 -58.150909
L 32.355248 -58.150909
L 32.027584 -58.150909
L 31.69992 -58.150909
L 31.372256 -58.150909
L 31.044592 -58.150909
L 30.716928 -58.150909
L 30.389264 -58.150909
L 30.0616 -58.150909
L 29.733936 -58.150909
L 29.406272 -58.150909
L 29.078608 -58.150909
L 28.750944 -58.150909
L 28.42328 -58.150909
L 28.095616 -58.150909
L 27.767952 -58.150909
L 27.440288 -58.150909
L 27.112624 -58.150909
L 26.78496 -58.150909
L 26.457296 -58.150909
L 26.129632 -58.150909
L 25.801968 -58.150909
L 25.474304 -58.150909
L 25.14664 -58.150909
L 24.818976 -58.150909
L 24.491312 -58.150909
L 24.163648 -58.150909
L 23.835984 -58.150909
L 23.50832 -58.150909
L 23.180656 -58.150909
L 22.852992 -58.150909
L 22.525328 -58.150909
L 22.197664 -58.150909
L 21.87 -58.150909
z
" style="stroke: #e74c3c; stroke-opacity: 0.3"/>
    </defs>
    <g clip-path="url(#p6afe7bbe6b)">
     <use xlink:href="#m3f793c1994" x="0" y="288" style="fill: #e74c3c; fill-opacity: 0.3; stroke: #e74c3c; stroke-opacity: 0.3"/>
    </g>
   </g>
   <g id="FillBetweenPolyCollection_2"/>
   <g id="matplotlib.axis_1">
    <g id="xtick_1">
     <g id="line2d_1">
      <defs>
       <path id="mc19c9bc9c0" d="M 0 0
L 0 3.5
" style="stroke: #000000; stroke-width: 0.8"/>
      </defs>
      <g>
       <use xlink:href="#mc19c9bc9c0" x="21.87" y="240.28" style="stroke: #000000; stroke-width: 0.8"/>
      </g>
     </g>
     <g id="text_1">
      <!-- 50k -->
      <g transform="translate(10.760625 256.398125) scale(0.12 -0.12)">
       <defs>
        <path id="DejaVuSans-35" d="M 691 4666
L 3169 4666
L 3169 4134
L 1269 4134
L 1269 2991
Q 1406 3038 1543 3061
Q 1681 3084 1819 3084
Q 2600 3084 3056 2656
Q 3513 2228 3513 1497
Q 3513 744 3044 326
Q 2575 -91 1722 -91
Q 1428 -91 1123 -41
Q 819 9 494 109
L 494 744
Q 775 591 1075 516
Q 1375 441 1709 441
Q 2250 441 2565 725
Q 2881 1009 2881 1497
Q 2881 1984 2565 2268
Q 2250 2553 1709 2553
Q 1456 2553 1204 2497
Q 953 2441 691 2322
L 691 4666
z
" transform="scale(0.015625)"/>
        <path id="DejaVuSans-30" d="M 2034 4250
Q 1547 4250 1301 3770
Q 1056 3291 1056 2328
Q 1056 1369 1301 889
Q 1547 409 2034 409
Q 2525 409 2770 889
Q 3016 1369 3016 2328
Q 3016 3291 2770 3770
Q 2525 4250 2034 4250
z
M 2034 4750
Q 2819 4750 3233 4129
Q 3647 3509 3647 2328
Q 3647 1150 3233 529
Q 2819 -91 2034 -91
Q 1250 -91 836 529
Q 422 1150 422 2328
Q 422 3509 836 4129
Q 1250 4750 2034 4750
z
" transform="scale(0.015625)"/>
        <path id="DejaVuSans-6b" d="M 581 4863
L 1159 4863
L 1159 1991
L 2875 3500
L 3609 3500
L 1753 1863
L 3688 0
L 2938 0
L 1159 1709
L 1159 0
L 581 0
L 581 4863
z
" transform="scale(0.015625)"/>
       </defs>
       <use xlink:href="#DejaVuSans-35"/>
       <use xlink:href="#DejaVuSans-30" transform="translate(63.623047 0)"/>
       <use xlink:href="#DejaVuSans-6b" transform="translate(127.246094 0)"/>
      </g>
     </g>
    </g>
    <g id="xtick_2">
     <g id="line2d_2">
      <g>
       <use xlink:href="#mc19c9bc9c0" x="103.786" y="240.28" style="stroke: #000000; stroke-width: 0.8"/>
      </g>
     </g>
     <g id="text_2">
      <!-- 100k -->
      <g transform="translate(88.859125 256.398125) scale(0.12 -0.12)">
       <defs>
        <path id="DejaVuSans-31" d="M 794 531
L 1825 531
L 1825 4091
L 703 3866
L 703 4441
L 1819 4666
L 2450 4666
L 2450 531
L 3481 531
L 3481 0
L 794 0
L 794 531
z
" transform="scale(0.015625)"/>
       </defs>
       <use xlink:href="#DejaVuSans-31"/>
       <use xlink:href="#DejaVuSans-30" transform="translate(63.623047 0)"/>
       <use xlink:href="#DejaVuSans-30" transform="translate(127.246094 0)"/>
       <use xlink:href="#DejaVuSans-6b" transform="translate(190.869141 0)"/>
      </g>
     </g>
    </g>
    <g id="xtick_3">
     <g id="line2d_3">
      <g>
       <use xlink:href="#mc19c9bc9c0" x="185.702" y="240.28" style="stroke: #000000; stroke-width: 0.8"/>
      </g>
     </g>
     <g id="text_3">
      <!-- 150k -->
      <g transform="translate(170.775125 256.398125) scale(0.12 -0.12)">
       <use xlink:href="#DejaVuSans-31"/>
       <use xlink:href="#DejaVuSans-35" transform="translate(63.623047 0)"/>
       <use xlink:href="#DejaVuSans-30" transform="translate(127.246094 0)"/>
       <use xlink:href="#DejaVuSans-6b" transform="translate(190.869141 0)"/>
      </g>
     </g>
    </g>
    <g id="xtick_4">
     <g id="line2d_4">
      <g>
       <use xlink:href="#mc19c9bc9c0" x="267.618" y="240.28" style="stroke: #000000; stroke-width: 0.8"/>
      </g>
     </g>
     <g id="text_4">
      <!-- 200k -->
      <g transform="translate(252.691125 256.398125) scale(0.12 -0.12)">
       <defs>
        <path id="DejaVuSans-32" d="M 1228 531
L 3431 531
L 3431 0
L 469 0
L 469 531
Q 828 903 1448 1529
Q 2069 2156 2228 2338
Q 2531 2678 2651 2914
Q 2772 3150 2772 3378
Q 2772 3750 2511 3984
Q 2250 4219 1831 4219
Q 1534 4219 1204 4116
Q 875 4013 500 3803
L 500 4441
Q 881 4594 1212 4672
Q 1544 4750 1819 4750
Q 2544 4750 2975 4387
Q 3406 4025 3406 3419
Q 3406 3131 3298 2873
Q 3191 2616 2906 2266
Q 2828 2175 2409 1742
Q 1991 1309 1228 531
z
" transform="scale(0.015625)"/>
       </defs>
       <use xlink:href="#DejaVuSans-32"/>
       <use xlink:href="#DejaVuSans-30" transform="translate(63.623047 0)"/>
       <use xlink:href="#DejaVuSans-30" transform="translate(127.246094 0)"/>
       <use xlink:href="#DejaVuSans-6b" transform="translate(190.869141 0)"/>
      </g>
     </g>
    </g>
    <g id="xtick_5">
     <g id="line2d_5">
      <g>
       <use xlink:href="#mc19c9bc9c0" x="349.534" y="240.28" style="stroke: #000000; stroke-width: 0.8"/>
      </g>
     </g>
     <g id="text_5">
      <!-- 250k -->
      <g transform="translate(334.607125 256.398125) scale(0.12 -0.12)">
       <use xlink:href="#DejaVuSans-32"/>
       <use xlink:href="#DejaVuSans-35" transform="translate(63.623047 0)"/>
       <use xlink:href="#DejaVuSans-30" transform="translate(127.246094 0)"/>
       <use xlink:href="#DejaVuSans-6b" transform="translate(190.869141 0)"/>
      </g>
     </g>
    </g>
    <g id="xtick_6">
     <g id="line2d_6">
      <g>
       <use xlink:href="#mc19c9bc9c0" x="431.45" y="240.28" style="stroke: #000000; stroke-width: 0.8"/>
      </g>
     </g>
     <g id="text_6">
      <!-- 300k -->
      <g transform="translate(416.523125 256.398125) scale(0.12 -0.12)">
       <defs>
        <path id="DejaVuSans-33" d="M 2597 2516
Q 3050 2419 3304 2112
Q 3559 1806 3559 1356
Q 3559 666 3084 287
Q 2609 -91 1734 -91
Q 1441 -91 1130 -33
Q 819 25 488 141
L 488 750
Q 750 597 1062 519
Q 1375 441 1716 441
Q 2309 441 2620 675
Q 2931 909 2931 1356
Q 2931 1769 2642 2001
Q 2353 2234 1838 2234
L 1294 2234
L 1294 2753
L 1863 2753
Q 2328 2753 2575 2939
Q 2822 3125 2822 3475
Q 2822 3834 2567 4026
Q 2313 4219 1838 4219
Q 1578 4219 1281 4162
Q 984 4106 628 3988
L 628 4550
Q 988 4650 1302 4700
Q 1616 4750 1894 4750
Q 2613 4750 3031 4423
Q 3450 4097 3450 3541
Q 3450 3153 3228 2886
Q 3006 2619 2597 2516
z
" transform="scale(0.015625)"/>
       </defs>
       <use xlink:href="#DejaVuSans-33"/>
       <use xlink:href="#DejaVuSans-30" transform="translate(63.623047 0)"/>
       <use xlink:href="#DejaVuSans-30" transform="translate(127.246094 0)"/>
       <use xlink:href="#DejaVuSans-6b" transform="translate(190.869141 0)"/>
      </g>
     </g>
    </g>
    <g id="text_7">
     <!-- Gecombineerd belastbaar inkomen (CHF) -->
     <g transform="translate(92.075469 272.771719) scale(0.13 -0.13)">
      <defs>
       <path id="DejaVuSans-47" d="M 3809 666
L 3809 1919
L 2778 1919
L 2778 2438
L 4434 2438
L 4434 434
Q 4069 175 3628 42
Q 3188 -91 2688 -91
Q 1594 -91 976 548
Q 359 1188 359 2328
Q 359 3472 976 4111
Q 1594 4750 2688 4750
Q 3144 4750 3555 4637
Q 3966 4525 4313 4306
L 4313 3634
Q 3963 3931 3569 4081
Q 3175 4231 2741 4231
Q 1884 4231 1454 3753
Q 1025 3275 1025 2328
Q 1025 1384 1454 906
Q 1884 428 2741 428
Q 3075 428 3337 486
Q 3600 544 3809 666
z
" transform="scale(0.015625)"/>
       <path id="DejaVuSans-65" d="M 3597 1894
L 3597 1613
L 953 1613
Q 991 1019 1311 708
Q 1631 397 2203 397
Q 2534 397 2845 478
Q 3156 559 3463 722
L 3463 178
Q 3153 47 2828 -22
Q 2503 -91 2169 -91
Q 1331 -91 842 396
Q 353 884 353 1716
Q 353 2575 817 3079
Q 1281 3584 2069 3584
Q 2775 3584 3186 3129
Q 3597 2675 3597 1894
z
M 3022 2063
Q 3016 2534 2758 2815
Q 2500 3097 2075 3097
Q 1594 3097 1305 2825
Q 1016 2553 972 2059
L 3022 2063
z
" transform="scale(0.015625)"/>
       <path id="DejaVuSans-63" d="M 3122 3366
L 3122 2828
Q 2878 2963 2633 3030
Q 2388 3097 2138 3097
Q 1578 3097 1268 2742
Q 959 2388 959 1747
Q 959 1106 1268 751
Q 1578 397 2138 397
Q 2388 397 2633 464
Q 2878 531 3122 666
L 3122 134
Q 2881 22 2623 -34
Q 2366 -91 2075 -91
Q 1284 -91 818 406
Q 353 903 353 1747
Q 353 2603 823 3093
Q 1294 3584 2113 3584
Q 2378 3584 2631 3529
Q 2884 3475 3122 3366
z
" transform="scale(0.015625)"/>
       <path id="DejaVuSans-6f" d="M 1959 3097
Q 1497 3097 1228 2736
Q 959 2375 959 1747
Q 959 1119 1226 758
Q 1494 397 1959 397
Q 2419 397 2687 759
Q 2956 1122 2956 1747
Q 2956 2369 2687 2733
Q 2419 3097 1959 3097
z
M 1959 3584
Q 2709 3584 3137 3096
Q 3566 2609 3566 1747
Q 3566 888 3137 398
Q 2709 -91 1959 -91
Q 1206 -91 779 398
Q 353 888 353 1747
Q 353 2609 779 3096
Q 1206 3584 1959 3584
z
" transform="scale(0.015625)"/>
       <path id="DejaVuSans-6d" d="M 3328 2828
Q 3544 3216 3844 3400
Q 4144 3584 4550 3584
Q 5097 3584 5394 3201
Q 5691 2819 5691 2113
L 5691 0
L 5113 0
L 5113 2094
Q 5113 2597 4934 2840
Q 4756 3084 4391 3084
Q 3944 3084 3684 2787
Q 3425 2491 3425 1978
L 3425 0
L 2847 0
L 2847 2094
Q 2847 2600 2669 2842
Q 2491 3084 2119 3084
Q 1678 3084 1418 2786
Q 1159 2488 1159 1978
L 1159 0
L 581 0
L 581 3500
L 1159 3500
L 1159 2956
Q 1356 3278 1631 3431
Q 1906 3584 2284 3584
Q 2666 3584 2933 3390
Q 3200 3197 3328 2828
z
" transform="scale(0.015625)"/>
       <path id="DejaVuSans-62" d="M 3116 1747
Q 3116 2381 2855 2742
Q 2594 3103 2138 3103
Q 1681 3103 1420 2742
Q 1159 2381 1159 1747
Q 1159 1113 1420 752
Q 1681 391 2138 391
Q 2594 391 2855 752
Q 3116 1113 3116 1747
z
M 1159 2969
Q 1341 3281 1617 3432
Q 1894 3584 2278 3584
Q 2916 3584 3314 3078
Q 3713 2572 3713 1747
Q 3713 922 3314 415
Q 2916 -91 2278 -91
Q 1894 -91 1617 61
Q 1341 213 1159 525
L 1159 0
L 581 0
L 581 4863
L 1159 4863
L 1159 2969
z
" transform="scale(0.015625)"/>
       <path id="DejaVuSans-69" d="M 603 3500
L 1178 3500
L 1178 0
L 603 0
L 603 3500
z
M 603 4863
L 1178 4863
L 1178 4134
L 603 4134
L 603 4863
z
" transform="scale(0.015625)"/>
       <path id="DejaVuSans-6e" d="M 3513 2113
L 3513 0
L 2938 0
L 2938 2094
Q 2938 2591 2744 2837
Q 2550 3084 2163 3084
Q 1697 3084 1428 2787
Q 1159 2491 1159 1978
L 1159 0
L 581 0
L 581 3500
L 1159 3500
L 1159 2956
Q 1366 3272 1645 3428
Q 1925 3584 2291 3584
Q 2894 3584 3203 3211
Q 3513 2838 3513 2113
z
" transform="scale(0.015625)"/>
       <path id="DejaVuSans-72" d="M 2631 2963
Q 2534 3019 2420 3045
Q 2306 3072 2169 3072
Q 1681 3072 1420 2755
Q 1159 2438 1159 1844
L 1159 0
L 581 0
L 581 3500
L 1159 3500
L 1159 2956
Q 1341 3275 1631 3429
Q 1922 3584 2338 3584
Q 2397 3584 2469 3576
Q 2541 3569 2628 3553
L 2631 2963
z
" transform="scale(0.015625)"/>
       <path id="DejaVuSans-64" d="M 2906 2969
L 2906 4863
L 3481 4863
L 3481 0
L 2906 0
L 2906 525
Q 2725 213 2448 61
Q 2172 -91 1784 -91
Q 1150 -91 751 415
Q 353 922 353 1747
Q 353 2572 751 3078
Q 1150 3584 1784 3584
Q 2172 3584 2448 3432
Q 2725 3281 2906 2969
z
M 947 1747
Q 947 1113 1208 752
Q 1469 391 1925 391
Q 2381 391 2643 752
Q 2906 1113 2906 1747
Q 2906 2381 2643 2742
Q 2381 3103 1925 3103
Q 1469 3103 1208 2742
Q 947 2381 947 1747
z
" transform="scale(0.015625)"/>
       <path id="DejaVuSans-20" transform="scale(0.015625)"/>
       <path id="DejaVuSans-6c" d="M 603 4863
L 1178 4863
L 1178 0
L 603 0
L 603 4863
z
" transform="scale(0.015625)"/>
       <path id="DejaVuSans-61" d="M 2194 1759
Q 1497 1759 1228 1600
Q 959 1441 959 1056
Q 959 750 1161 570
Q 1363 391 1709 391
Q 2188 391 2477 730
Q 2766 1069 2766 1631
L 2766 1759
L 2194 1759
z
M 3341 1997
L 3341 0
L 2766 0
L 2766 531
Q 2569 213 2275 61
Q 1981 -91 1556 -91
Q 1019 -91 701 211
Q 384 513 384 1019
Q 384 1609 779 1909
Q 1175 2209 1959 2209
L 2766 2209
L 2766 2266
Q 2766 2663 2505 2880
Q 2244 3097 1772 3097
Q 1472 3097 1187 3025
Q 903 2953 641 2809
L 641 3341
Q 956 3463 1253 3523
Q 1550 3584 1831 3584
Q 2591 3584 2966 3190
Q 3341 2797 3341 1997
z
" transform="scale(0.015625)"/>
       <path id="DejaVuSans-73" d="M 2834 3397
L 2834 2853
Q 2591 2978 2328 3040
Q 2066 3103 1784 3103
Q 1356 3103 1142 2972
Q 928 2841 928 2578
Q 928 2378 1081 2264
Q 1234 2150 1697 2047
L 1894 2003
Q 2506 1872 2764 1633
Q 3022 1394 3022 966
Q 3022 478 2636 193
Q 2250 -91 1575 -91
Q 1294 -91 989 -36
Q 684 19 347 128
L 347 722
Q 666 556 975 473
Q 1284 391 1588 391
Q 1994 391 2212 530
Q 2431 669 2431 922
Q 2431 1156 2273 1281
Q 2116 1406 1581 1522
L 1381 1569
Q 847 1681 609 1914
Q 372 2147 372 2553
Q 372 3047 722 3315
Q 1072 3584 1716 3584
Q 2034 3584 2315 3537
Q 2597 3491 2834 3397
z
" transform="scale(0.015625)"/>
       <path id="DejaVuSans-74" d="M 1172 4494
L 1172 3500
L 2356 3500
L 2356 3053
L 1172 3053
L 1172 1153
Q 1172 725 1289 603
Q 1406 481 1766 481
L 2356 481
L 2356 0
L 1766 0
Q 1100 0 847 248
Q 594 497 594 1153
L 594 3053
L 172 3053
L 172 3500
L 594 3500
L 594 4494
L 1172 4494
z
" transform="scale(0.015625)"/>
       <path id="DejaVuSans-28" d="M 1984 4856
Q 1566 4138 1362 3434
Q 1159 2731 1159 2009
Q 1159 1288 1364 580
Q 1569 -128 1984 -844
L 1484 -844
Q 1016 -109 783 600
Q 550 1309 550 2009
Q 550 2706 781 3412
Q 1013 4119 1484 4856
L 1984 4856
z
" transform="scale(0.015625)"/>
       <path id="DejaVuSans-43" d="M 4122 4306
L 4122 3641
Q 3803 3938 3442 4084
Q 3081 4231 2675 4231
Q 1875 4231 1450 3742
Q 1025 3253 1025 2328
Q 1025 1406 1450 917
Q 1875 428 2675 428
Q 3081 428 3442 575
Q 3803 722 4122 1019
L 4122 359
Q 3791 134 3420 21
Q 3050 -91 2638 -91
Q 1578 -91 968 557
Q 359 1206 359 2328
Q 359 3453 968 4101
Q 1578 4750 2638 4750
Q 3056 4750 3426 4639
Q 3797 4528 4122 4306
z
" transform="scale(0.015625)"/>
       <path id="DejaVuSans-48" d="M 628 4666
L 1259 4666
L 1259 2753
L 3553 2753
L 3553 4666
L 4184 4666
L 4184 0
L 3553 0
L 3553 2222
L 1259 2222
L 1259 0
L 628 0
L 628 4666
z
" transform="scale(0.015625)"/>
       <path id="DejaVuSans-46" d="M 628 4666
L 3309 4666
L 3309 4134
L 1259 4134
L 1259 2759
L 3109 2759
L 3109 2228
L 1259 2228
L 1259 0
L 628 0
L 628 4666
z
" transform="scale(0.015625)"/>
       <path id="DejaVuSans-29" d="M 513 4856
L 1013 4856
Q 1481 4119 1714 3412
Q 1947 2706 1947 2009
Q 1947 1309 1714 600
Q 1481 -109 1013 -844
L 513 -844
Q 928 -128 1133 580
Q 1338 1288 1338 2009
Q 1338 2731 1133 3434
Q 928 4138 513 4856
z
" transform="scale(0.015625)"/>
      </defs>
      <use xlink:href="#DejaVuSans-47"/>
      <use xlink:href="#DejaVuSans-65" transform="translate(77.490234 0)"/>
      <use xlink:href="#DejaVuSans-63" transform="translate(139.013672 0)"/>
      <use xlink:href="#DejaVuSans-6f" transform="translate(193.994141 0)"/>
      <use xlink:href="#DejaVuSans-6d" transform="translate(255.175781 0)"/>
      <use xlink:href="#DejaVuSans-62" transform="translate(352.587891 0)"/>
      <use xlink:href="#DejaVuSans-69" transform="translate(416.064453 0)"/>
      <use xlink:href="#DejaVuSans-6e" transform="translate(443.847656 0)"/>
      <use xlink:href="#DejaVuSans-65" transform="translate(507.226562 0)"/>
      <use xlink:href="#DejaVuSans-65" transform="translate(568.75 0)"/>
      <use xlink:href="#DejaVuSans-72" transform="translate(630.273438 0)"/>
      <use xlink:href="#DejaVuSans-64" transform="translate(669.636719 0)"/>
      <use xlink:href="#DejaVuSans-20" transform="translate(733.113281 0)"/>
      <use xlink:href="#DejaVuSans-62" transform="translate(764.900391 0)"/>
      <use xlink:href="#DejaVuSans-65" transform="translate(828.376953 0)"/>
      <use xlink:href="#DejaVuSans-6c" transform="translate(889.900391 0)"/>
      <use xlink:href="#DejaVuSans-61" transform="translate(917.683594 0)"/>
      <use xlink:href="#DejaVuSans-73" transform="translate(978.962891 0)"/>
      <use xlink:href="#DejaVuSans-74" transform="translate(1031.0625 0)"/>
      <use xlink:href="#DejaVuSans-62" transform="translate(1070.271484 0)"/>
      <use xlink:href="#DejaVuSans-61" transform="translate(1133.748047 0)"/>
      <use xlink:href="#DejaVuSans-61" transform="translate(1195.027344 0)"/>
      <use xlink:href="#DejaVuSans-72" transform="translate(1256.306641 0)"/>
      <use xlink:href="#DejaVuSans-20" transform="translate(1297.419922 0)"/>
      <use xlink:href="#DejaVuSans-69" transform="translate(1329.207031 0)"/>
      <use xlink:href="#DejaVuSans-6e" transform="translate(1356.990234 0)"/>
      <use xlink:href="#DejaVuSans-6b" transform="translate(1420.369141 0)"/>
      <use xlink:href="#DejaVuSans-6f" transform="translate(1474.654297 0)"/>
      <use xlink:href="#DejaVuSans-6d" transform="translate(1535.835938 0)"/>
      <use xlink:href="#DejaVuSans-65" transform="translate(1633.248047 0)"/>
      <use xlink:href="#DejaVuSans-6e" transform="translate(1694.771484 0)"/>
      <use xlink:href="#DejaVuSans-20" transform="translate(1758.150391 0)"/>
      <use xlink:href="#DejaVuSans-28" transform="translate(1789.9375 0)"/>
      <use xlink:href="#DejaVuSans-43" transform="translate(1828.951172 0)"/>
      <use xlink:href="#DejaVuSans-48" transform="translate(1898.775391 0)"/>
      <use xlink:href="#DejaVuSans-46" transform="translate(1973.970703 0)"/>
      <use xlink:href="#DejaVuSans-29" transform="translate(2031.490234 0)"/>
     </g>
    </g>
   </g>
   <g id="matplotlib.axis_2">
    <g id="ytick_1">
     <g id="line2d_7"/>
     <g id="text_8">
      <!-- +0 -->
      <g transform="translate(441.45 234.408153) scale(0.12 -0.12)">
       <defs>
        <path id="DejaVuSans-2b" d="M 2944 4013
L 2944 2272
L 4684 2272
L 4684 1741
L 2944 1741
L 2944 0
L 2419 0
L 2419 1741
L 678 1741
L 678 2272
L 2419 2272
L 2419 4013
L 2944 4013
z
" transform="scale(0.015625)"/>
       </defs>
       <use xlink:href="#DejaVuSans-2b"/>
       <use xlink:href="#DejaVuSans-30" transform="translate(83.789062 0)"/>
      </g>
     </g>
    </g>
    <g id="ytick_2">
     <g id="line2d_8"/>
     <g id="text_9">
      <!-- +2,000 -->
      <g transform="translate(441.45 195.519137) scale(0.12 -0.12)">
       <defs>
        <path id="DejaVuSans-2c" d="M 750 794
L 1409 794
L 1409 256
L 897 -744
L 494 -744
L 750 256
L 750 794
z
" transform="scale(0.015625)"/>
       </defs>
       <use xlink:href="#DejaVuSans-2b"/>
       <use xlink:href="#DejaVuSans-32" transform="translate(83.789062 0)"/>
       <use xlink:href="#DejaVuSans-2c" transform="translate(147.412109 0)"/>
       <use xlink:href="#DejaVuSans-30" transform="translate(179.199219 0)"/>
       <use xlink:href="#DejaVuSans-30" transform="translate(242.822266 0)"/>
       <use xlink:href="#DejaVuSans-30" transform="translate(306.445312 0)"/>
      </g>
     </g>
    </g>
    <g id="ytick_3">
     <g id="line2d_9"/>
     <g id="text_10">
      <!-- +4,000 -->
      <g transform="translate(441.45 156.630121) scale(0.12 -0.12)">
       <defs>
        <path id="DejaVuSans-34" d="M 2419 4116
L 825 1625
L 2419 1625
L 2419 4116
z
M 2253 4666
L 3047 4666
L 3047 1625
L 3713 1625
L 3713 1100
L 3047 1100
L 3047 0
L 2419 0
L 2419 1100
L 313 1100
L 313 1709
L 2253 4666
z
" transform="scale(0.015625)"/>
       </defs>
       <use xlink:href="#DejaVuSans-2b"/>
       <use xlink:href="#DejaVuSans-34" transform="translate(83.789062 0)"/>
       <use xlink:href="#DejaVuSans-2c" transform="translate(147.412109 0)"/>
       <use xlink:href="#DejaVuSans-30" transform="translate(179.199219 0)"/>
       <use xlink:href="#DejaVuSans-30" transform="translate(242.822266 0)"/>
       <use xlink:href="#DejaVuSans-30" transform="translate(306.445312 0)"/>
      </g>
     </g>
    </g>
    <g id="ytick_4">
     <g id="line2d_10"/>
     <g id="text_11">
      <!-- +6,000 -->
      <g transform="translate(441.45 117.741105) scale(0.12 -0.12)">
       <defs>
        <path id="DejaVuSans-36" d="M 2113 2584
Q 1688 2584 1439 2293
Q 1191 2003 1191 1497
Q 1191 994 1439 701
Q 1688 409 2113 409
Q 2538 409 2786 701
Q 3034 994 3034 1497
Q 3034 2003 2786 2293
Q 2538 2584 2113 2584
z
M 3366 4563
L 3366 3988
Q 3128 4100 2886 4159
Q 2644 4219 2406 4219
Q 1781 4219 1451 3797
Q 1122 3375 1075 2522
Q 1259 2794 1537 2939
Q 1816 3084 2150 3084
Q 2853 3084 3261 2657
Q 3669 2231 3669 1497
Q 3669 778 3244 343
Q 2819 -91 2113 -91
Q 1303 -91 875 529
Q 447 1150 447 2328
Q 447 3434 972 4092
Q 1497 4750 2381 4750
Q 2619 4750 2861 4703
Q 3103 4656 3366 4563
z
" transform="scale(0.015625)"/>
       </defs>
       <use xlink:href="#DejaVuSans-2b"/>
       <use xlink:href="#DejaVuSans-36" transform="translate(83.789062 0)"/>
       <use xlink:href="#DejaVuSans-2c" transform="translate(147.412109 0)"/>
       <use xlink:href="#DejaVuSans-30" transform="translate(179.199219 0)"/>
       <use xlink:href="#DejaVuSans-30" transform="translate(242.822266 0)"/>
       <use xlink:href="#DejaVuSans-30" transform="translate(306.445312 0)"/>
      </g>
     </g>
    </g>
    <g id="ytick_5">
     <g id="line2d_11"/>
     <g id="text_12">
      <!-- +8,000 -->
      <g transform="translate(441.45 78.852089) scale(0.12 -0.12)">
       <defs>
        <path id="DejaVuSans-38" d="M 2034 2216
Q 1584 2216 1326 1975
Q 1069 1734 1069 1313
Q 1069 891 1326 650
Q 1584 409 2034 409
Q 2484 409 2743 651
Q 3003 894 3003 1313
Q 3003 1734 2745 1975
Q 2488 2216 2034 2216
z
M 1403 2484
Q 997 2584 770 2862
Q 544 3141 544 3541
Q 544 4100 942 4425
Q 1341 4750 2034 4750
Q 2731 4750 3128 4425
Q 3525 4100 3525 3541
Q 3525 3141 3298 2862
Q 3072 2584 2669 2484
Q 3125 2378 3379 2068
Q 3634 1759 3634 1313
Q 3634 634 3220 271
Q 2806 -91 2034 -91
Q 1263 -91 848 271
Q 434 634 434 1313
Q 434 1759 690 2068
Q 947 2378 1403 2484
z
M 1172 3481
Q 1172 3119 1398 2916
Q 1625 2713 2034 2713
Q 2441 2713 2670 2916
Q 2900 3119 2900 3481
Q 2900 3844 2670 4047
Q 2441 4250 2034 4250
Q 1625 4250 1398 4047
Q 1172 3844 1172 3481
z
" transform="scale(0.015625)"/>
       </defs>
       <use xlink:href="#DejaVuSans-2b"/>
       <use xlink:href="#DejaVuSans-38" transform="translate(83.789062 0)"/>
       <use xlink:href="#DejaVuSans-2c" transform="translate(147.412109 0)"/>
       <use xlink:href="#DejaVuSans-30" transform="translate(179.199219 0)"/>
       <use xlink:href="#DejaVuSans-30" transform="translate(242.822266 0)"/>
       <use xlink:href="#DejaVuSans-30" transform="translate(306.445312 0)"/>
      </g>
     </g>
    </g>
    <g id="ytick_6">
     <g id="line2d_12"/>
     <g id="text_13">
      <!-- +10,000 -->
      <g transform="translate(441.45 39.963073) scale(0.12 -0.12)">
       <use xlink:href="#DejaVuSans-2b"/>
       <use xlink:href="#DejaVuSans-31" transform="translate(83.789062 0)"/>
       <use xlink:href="#DejaVuSans-30" transform="translate(147.412109 0)"/>
       <use xlink:href="#DejaVuSans-2c" transform="translate(211.035156 0)"/>
       <use xlink:href="#DejaVuSans-30" transform="translate(242.822266 0)"/>
       <use xlink:href="#DejaVuSans-30" transform="translate(306.445312 0)"/>
       <use xlink:href="#DejaVuSans-30" transform="translate(370.068359 0)"/>
      </g>
     </g>
    </g>
   </g>
   <g id="line2d_13">
    <path d="M 102.803008 210.404583
L 431.45 210.404583
L 431.45 210.404583
" clip-path="url(#p6afe7bbe6b)" style="fill: none; stroke: #ffffff; stroke-width: 0.8; stroke-linecap: square"/>
   </g>
   <g id="line2d_14">
    <path d="M 153.918592 190.960075
L 431.45 190.960075
L 431.45 190.960075
" clip-path="url(#p6afe7bbe6b)" style="fill: none; stroke: #ffffff; stroke-width: 0.8; stroke-linecap: square"/>
   </g>
   <g id="line2d_15">
    <path d="M 182.097696 171.515567
L 431.45 171.515567
L 431.45 171.515567
" clip-path="url(#p6afe7bbe6b)" style="fill: none; stroke: #ffffff; stroke-width: 0.8; stroke-linecap: square"/>
   </g>
   <g id="line2d_16">
    <path d="M 204.051184 152.071059
L 431.45 152.071059
L 431.45 152.071059
" clip-path="url(#p6afe7bbe6b)" style="fill: none; stroke: #ffffff; stroke-width: 0.8; stroke-linecap: square"/>
   </g>
   <g id="line2d_17">
    <path d="M 228.953648 132.626551
L 431.45 132.626551
L 431.45 132.626551
" clip-path="url(#p6afe7bbe6b)" style="fill: none; stroke: #ffffff; stroke-width: 0.8; stroke-linecap: square"/>
   </g>
   <g id="line2d_18">
    <path d="M 254.839104 113.182043
L 431.45 113.182043
L 431.45 113.182043
" clip-path="url(#p6afe7bbe6b)" style="fill: none; stroke: #ffffff; stroke-width: 0.8; stroke-linecap: square"/>
   </g>
   <g id="line2d_19">
    <path d="M 280.396896 93.737535
L 431.45 93.737535
L 431.45 93.737535
" clip-path="url(#p6afe7bbe6b)" style="fill: none; stroke: #ffffff; stroke-width: 0.8; stroke-linecap: square"/>
   </g>
   <g id="line2d_20">
    <path d="M 310.541984 74.293027
L 431.45 74.293027
L 431.45 74.293027
" clip-path="url(#p6afe7bbe6b)" style="fill: none; stroke: #ffffff; stroke-width: 0.8; stroke-linecap: square"/>
   </g>
   <g id="line2d_21">
    <path d="M 349.534 54.848519
L 431.45 54.848519
L 431.45 54.848519
" clip-path="url(#p6afe7bbe6b)" style="fill: none; stroke: #ffffff; stroke-width: 0.8; stroke-linecap: square"/>
   </g>
   <g id="line2d_22">
    <path d="M 388.526016 35.404011
L 431.45 35.404011
L 431.45 35.404011
" clip-path="url(#p6afe7bbe6b)" style="fill: none; stroke: #ffffff; stroke-width: 0.8; stroke-linecap: square"/>
   </g>
   <g id="patch_3">
    <path d="M 21.87 240.28
L 431.45 240.28
" style="fill: none; stroke: #000000; stroke-width: 0.8; stroke-linejoin: miter; stroke-linecap: square"/>
   </g>
   <g id="line2d_23">
    <path d="M 21.87 228.836421
L 28.095616 228.588698
L 41.202176 226.578136
L 57.257712 222.439956
L 70.364272 219.044944
L 82.815504 214.501152
L 96.249728 212.235478
L 118.858544 205.805568
L 132.948096 200.302383
L 138.518384 198.182543
L 154.57392 190.405906
L 167.68048 182.464769
L 177.5104 175.293635
L 184.06368 169.689728
L 187.34032 166.450273
L 190.289296 163.441429
L 210.604464 146.546874
L 297.10776 80.925549
L 403.926224 27.764264
L 431.45 21.230909
L 431.45 21.230909
" clip-path="url(#p6afe7bbe6b)" style="fill: none; stroke: #e74c3c; stroke-width: 3; stroke-linecap: square"/>
   </g>
  </g>
  <g id="text_14">
   <!-- Ehestrafe -->
   <g transform="translate(21.87 30.628469) scale(0.15 -0.15)">
    <defs>
     <path id="DejaVuSans-Bold-45" d="M 588 4666
L 3834 4666
L 3834 3756
L 1791 3756
L 1791 2888
L 3713 2888
L 3713 1978
L 1791 1978
L 1791 909
L 3903 909
L 3903 0
L 588 0
L 588 4666
z
" transform="scale(0.015625)"/>
     <path id="DejaVuSans-Bold-68" d="M 4056 2131
L 4056 0
L 2931 0
L 2931 347
L 2931 1625
Q 2931 2084 2911 2256
Q 2891 2428 2841 2509
Q 2775 2619 2662 2680
Q 2550 2741 2406 2741
Q 2056 2741 1856 2470
Q 1656 2200 1656 1722
L 1656 0
L 538 0
L 538 4863
L 1656 4863
L 1656 2988
Q 1909 3294 2193 3439
Q 2478 3584 2822 3584
Q 3428 3584 3742 3212
Q 4056 2841 4056 2131
z
" transform="scale(0.015625)"/>
     <path id="DejaVuSans-Bold-65" d="M 4031 1759
L 4031 1441
L 1416 1441
Q 1456 1047 1700 850
Q 1944 653 2381 653
Q 2734 653 3104 758
Q 3475 863 3866 1075
L 3866 213
Q 3469 63 3072 -14
Q 2675 -91 2278 -91
Q 1328 -91 801 392
Q 275 875 275 1747
Q 275 2603 792 3093
Q 1309 3584 2216 3584
Q 3041 3584 3536 3087
Q 4031 2591 4031 1759
z
M 2881 2131
Q 2881 2450 2695 2645
Q 2509 2841 2209 2841
Q 1884 2841 1681 2658
Q 1478 2475 1428 2131
L 2881 2131
z
" transform="scale(0.015625)"/>
     <path id="DejaVuSans-Bold-73" d="M 3272 3391
L 3272 2541
Q 2913 2691 2578 2766
Q 2244 2841 1947 2841
Q 1628 2841 1473 2761
Q 1319 2681 1319 2516
Q 1319 2381 1436 2309
Q 1553 2238 1856 2203
L 2053 2175
Q 2913 2066 3209 1816
Q 3506 1566 3506 1031
Q 3506 472 3093 190
Q 2681 -91 1863 -91
Q 1516 -91 1145 -36
Q 775 19 384 128
L 384 978
Q 719 816 1070 734
Q 1422 653 1784 653
Q 2113 653 2278 743
Q 2444 834 2444 1013
Q 2444 1163 2330 1236
Q 2216 1309 1875 1350
L 1678 1375
Q 931 1469 631 1722
Q 331 1975 331 2491
Q 331 3047 712 3315
Q 1094 3584 1881 3584
Q 2191 3584 2531 3537
Q 2872 3491 3272 3391
z
" transform="scale(0.015625)"/>
     <path id="DejaVuSans-Bold-74" d="M 1759 4494
L 1759 3500
L 2913 3500
L 2913 2700
L 1759 2700
L 1759 1216
Q 1759 972 1856 886
Q 1953 800 2241 800
L 2816 800
L 2816 0
L 1856 0
Q 1194 0 917 276
Q 641 553 641 1216
L 641 2700
L 84 2700
L 84 3500
L 641 3500
L 641 4494
L 1759 4494
z
" transform="scale(0.015625)"/>
     <path id="DejaVuSans-Bold-72" d="M 3138 2547
Q 2991 2616 2845 2648
Q 2700 2681 2553 2681
Q 2122 2681 1889 2404
Q 1656 2128 1656 1613
L 1656 0
L 538 0
L 538 3500
L 1656 3500
L 1656 2925
Q 1872 3269 2151 3426
Q 2431 3584 2822 3584
Q 2878 3584 2943 3579
Q 3009 3575 3134 3559
L 3138 2547
z
" transform="scale(0.015625)"/>
     <path id="DejaVuSans-Bold-61" d="M 2106 1575
Q 1756 1575 1579 1456
Q 1403 1338 1403 1106
Q 1403 894 1545 773
Q 1688 653 1941 653
Q 2256 653 2472 879
Q 2688 1106 2688 1447
L 2688 1575
L 2106 1575
z
M 3816 1997
L 3816 0
L 2688 0
L 2688 519
Q 2463 200 2181 54
Q 1900 -91 1497 -91
Q 953 -91 614 226
Q 275 544 275 1050
Q 275 1666 698 1953
Q 1122 2241 2028 2241
L 2688 2241
L 2688 2328
Q 2688 2594 2478 2717
Q 2269 2841 1825 2841
Q 1466 2841 1156 2769
Q 847 2697 581 2553
L 581 3406
Q 941 3494 1303 3539
Q 1666 3584 2028 3584
Q 2975 3584 3395 3211
Q 3816 2838 3816 1997
z
" transform="scale(0.015625)"/>
     <path id="DejaVuSans-Bold-66" d="M 2841 4863
L 2841 4128
L 2222 4128
Q 1984 4128 1890 4042
Q 1797 3956 1797 3744
L 1797 3500
L 2753 3500
L 2753 2700
L 1797 2700
L 1797 0
L 678 0
L 678 2700
L 122 2700
L 122 3500
L 678 3500
L 678 3744
Q 678 4316 997 4589
Q 1316 4863 1984 4863
L 2841 4863
z
" transform="scale(0.015625)"/>
    </defs>
    <use xlink:href="#DejaVuSans-Bold-45"/>
    <use xlink:href="#DejaVuSans-Bold-68" transform="translate(68.310547 0)"/>
    <use xlink:href="#DejaVuSans-Bold-65" transform="translate(139.501953 0)"/>
    <use xlink:href="#DejaVuSans-Bold-73" transform="translate(207.324219 0)"/>
    <use xlink:href="#DejaVuSans-Bold-74" transform="translate(266.845703 0)"/>
    <use xlink:href="#DejaVuSans-Bold-72" transform="translate(314.648438 0)"/>
    <use xlink:href="#DejaVuSans-Bold-61" transform="translate(363.964844 0)"/>
    <use xlink:href="#DejaVuSans-Bold-66" transform="translate(431.445312 0)"/>
    <use xlink:href="#DejaVuSans-Bold-65" transform="translate(474.951172 0)"/>
   </g>
  </g>
  <g id="text_15">
   <!-- Extra belasting bij huwelijk -->
   <g style="fill: #444444" transform="translate(21.87 53.565013) scale(0.14 -0.14)">
    <defs>
     <path id="DejaVuSans-45" d="M 628 4666
L 3578 4666
L 3578 4134
L 1259 4134
L 1259 2753
L 3481 2753
L 3481 2222
L 1259 2222
L 1259 531
L 3634 531
L 3634 0
L 628 0
L 628 4666
z
" transform="scale(0.015625)"/>
     <path id="DejaVuSans-78" d="M 3513 3500
L 2247 1797
L 3578 0
L 2900 0
L 1881 1375
L 863 0
L 184 0
L 1544 1831
L 300 3500
L 978 3500
L 1906 2253
L 2834 3500
L 3513 3500
z
" transform="scale(0.015625)"/>
     <path id="DejaVuSans-67" d="M 2906 1791
Q 2906 2416 2648 2759
Q 2391 3103 1925 3103
Q 1463 3103 1205 2759
Q 947 2416 947 1791
Q 947 1169 1205 825
Q 1463 481 1925 481
Q 2391 481 2648 825
Q 2906 1169 2906 1791
z
M 3481 434
Q 3481 -459 3084 -895
Q 2688 -1331 1869 -1331
Q 1566 -1331 1297 -1286
Q 1028 -1241 775 -1147
L 775 -588
Q 1028 -725 1275 -790
Q 1522 -856 1778 -856
Q 2344 -856 2625 -561
Q 2906 -266 2906 331
L 2906 616
Q 2728 306 2450 153
Q 2172 0 1784 0
Q 1141 0 747 490
Q 353 981 353 1791
Q 353 2603 747 3093
Q 1141 3584 1784 3584
Q 2172 3584 2450 3431
Q 2728 3278 2906 2969
L 2906 3500
L 3481 3500
L 3481 434
z
" transform="scale(0.015625)"/>
     <path id="DejaVuSans-6a" d="M 603 3500
L 1178 3500
L 1178 -63
Q 1178 -731 923 -1031
Q 669 -1331 103 -1331
L -116 -1331
L -116 -844
L 38 -844
Q 366 -844 484 -692
Q 603 -541 603 -63
L 603 3500
z
M 603 4863
L 1178 4863
L 1178 4134
L 603 4134
L 603 4863
z
" transform="scale(0.015625)"/>
     <path id="DejaVuSans-68" d="M 3513 2113
L 3513 0
L 2938 0
L 2938 2094
Q 2938 2591 2744 2837
Q 2550 3084 2163 3084
Q 1697 3084 1428 2787
Q 1159 2491 1159 1978
L 1159 0
L 581 0
L 581 4863
L 1159 4863
L 1159 2956
Q 1366 3272 1645 3428
Q 1925 3584 2291 3584
Q 2894 3584 3203 3211
Q 3513 2838 3513 2113
z
" transform="scale(0.015625)"/>
     <path id="DejaVuSans-75" d="M 544 1381
L 544 3500
L 1119 3500
L 1119 1403
Q 1119 906 1312 657
Q 1506 409 1894 409
Q 2359 409 2629 706
Q 2900 1003 2900 1516
L 2900 3500
L 3475 3500
L 3475 0
L 2900 0
L 2900 538
Q 2691 219 2414 64
Q 2138 -91 1772 -91
Q 1169 -91 856 284
Q 544 659 544 1381
z
M 1991 3584
L 1991 3584
z
" transform="scale(0.015625)"/>
     <path id="DejaVuSans-77" d="M 269 3500
L 844 3500
L 1563 769
L 2278 3500
L 2956 3500
L 3675 769
L 4391 3500
L 4966 3500
L 4050 0
L 3372 0
L 2619 2869
L 1863 0
L 1184 0
L 269 3500
z
" transform="scale(0.015625)"/>
    </defs>
    <use xlink:href="#DejaVuSans-45"/>
    <use xlink:href="#DejaVuSans-78" transform="translate(63.183594 0)"/>
    <use xlink:href="#DejaVuSans-74" transform="translate(122.363281 0)"/>
    <use xlink:href="#DejaVuSans-72" transform="translate(161.572266 0)"/>
    <use xlink:href="#DejaVuSans-61" transform="translate(202.685547 0)"/>
    <use xlink:href="#DejaVuSans-20" transform="translate(263.964844 0)"/>
    <use xlink:href="#DejaVuSans-62" transform="translate(295.751953 0)"/>
    <use xlink:href="#DejaVuSans-65" transform="translate(359.228516 0)"/>
    <use xlink:href="#DejaVuSans-6c" transform="translate(420.751953 0)"/>
    <use xlink:href="#DejaVuSans-61" transform="translate(448.535156 0)"/>
    <use xlink:href="#DejaVuSans-73" transform="translate(509.814453 0)"/>
    <use xlink:href="#DejaVuSans-74" transform="translate(561.914062 0)"/>
    <use xlink:href="#DejaVuSans-69" transform="translate(601.123047 0)"/>
    <use xlink:href="#DejaVuSans-6e" transform="translate(628.90625 0)"/>
    <use xlink:href="#DejaVuSans-67" transform="translate(692.285156 0)"/>
    <use xlink:href="#DejaVuSans-20" transform="translate(755.761719 0)"/>
    <use xlink:href="#DejaVuSans-62" transform="translate(787.548828 0)"/>
    <use xlink:href="#DejaVuSans-69" transform="translate(851.025391 0)"/>
    <use xlink:href="#DejaVuSans-6a" transform="translate(878.808594 0)"/>
    <use xlink:href="#DejaVuSans-20" transform="translate(906.591797 0)"/>
    <use xlink:href="#DejaVuSans-68" transform="translate(938.378906 0)"/>
    <use xlink:href="#DejaVuSans-75" transform="translate(1001.757812 0)"/>
    <use xlink:href="#DejaVuSans-77" transform="translate(1065.136719 0)"/>
    <use xlink:href="#DejaVuSans-65" transform="translate(1146.923828 0)"/>
    <use xlink:href="#DejaVuSans-6c" transform="translate(1208.447266 0)"/>
    <use xlink:href="#DejaVuSans-69" transform="translate(1236.230469 0)"/>
    <use xlink:href="#DejaVuSans-6a" transform="translate(1264.013672 0)"/>
    <use xlink:href="#DejaVuSans-6b" transform="translate(1291.796875 0)"/>
   </g>
   <!-- t.o.v. twee alleenstaanden (CHF) -->
   <g style="fill: #444444" transform="translate(21.87 69.24195) scale(0.14 -0.14)">
    <defs>
     <path id="DejaVuSans-2e" d="M 684 794
L 1344 794
L 1344 0
L 684 0
L 684 794
z
" transform="scale(0.015625)"/>
     <path id="DejaVuSans-76" d="M 191 3500
L 800 3500
L 1894 563
L 2988 3500
L 3597 3500
L 2284 0
L 1503 0
L 191 3500
z
" transform="scale(0.015625)"/>
    </defs>
    <use xlink:href="#DejaVuSans-74"/>
    <use xlink:href="#DejaVuSans-2e" transform="translate(39.208984 0)"/>
    <use xlink:href="#DejaVuSans-6f" transform="translate(70.996094 0)"/>
    <use xlink:href="#DejaVuSans-2e" transform="translate(130.427734 0)"/>
    <use xlink:href="#DejaVuSans-76" transform="translate(162.214844 0)"/>
    <use xlink:href="#DejaVuSans-2e" transform="translate(213.644531 0)"/>
    <use xlink:href="#DejaVuSans-20" transform="translate(245.431641 0)"/>
    <use xlink:href="#DejaVuSans-74" transform="translate(277.21875 0)"/>
    <use xlink:href="#DejaVuSans-77" transform="translate(316.427734 0)"/>
    <use xlink:href="#DejaVuSans-65" transform="translate(398.214844 0)"/>
    <use xlink:href="#DejaVuSans-65" transform="translate(459.738281 0)"/>
    <use xlink:href="#DejaVuSans-20" transform="translate(521.261719 0)"/>
    <use xlink:href="#DejaVuSans-61" transform="translate(553.048828 0)"/>
    <use xlink:href="#DejaVuSans-6c" transform="translate(614.328125 0)"/>
    <use xlink:href="#DejaVuSans-6c" transform="translate(642.111328 0)"/>
    <use xlink:href="#DejaVuSans-65" transform="translate(669.894531 0)"/>
    <use xlink:href="#DejaVuSans-65" transform="translate(731.417969 0)"/>
    <use xlink:href="#DejaVuSans-6e" transform="translate(792.941406 0)"/>
    <use xlink:href="#DejaVuSans-73" transform="translate(856.320312 0)"/>
    <use xlink:href="#DejaVuSans-74" transform="translate(908.419922 0)"/>
    <use xlink:href="#DejaVuSans-61" transform="translate(947.628906 0)"/>
    <use xlink:href="#DejaVuSans-61" transform="translate(1008.908203 0)"/>
    <use xlink:href="#DejaVuSans-6e" transform="translate(1070.1875 0)"/>
    <use xlink:href="#DejaVuSans-64" transform="translate(1133.566406 0)"/>
    <use xlink:href="#DejaVuSans-65" transform="translate(1197.042969 0)"/>
    <use xlink:href="#DejaVuSans-6e" transform="translate(1258.566406 0)"/>
    <use xlink:href="#DejaVuSans-20" transform="translate(1321.945312 0)"/>
    <use xlink:href="#DejaVuSans-28" transform="translate(1353.732422 0)"/>
    <use xlink:href="#DejaVuSans-43" transform="translate(1392.746094 0)"/>
    <use xlink:href="#DejaVuSans-48" transform="translate(1462.570312 0)"/>
    <use xlink:href="#DejaVuSans-46" transform="translate(1537.765625 0)"/>
    <use xlink:href="#DejaVuSans-29" transform="translate(1595.285156 0)"/>
   </g>
  </g>
 </g>
 <defs>
  <clipPath id="p6afe7bbe6b">
   <rect x="21.87" y="10.8" width="409.58" height="229.48"/>
  </clipPath>
 </defs>
</svg>
