<svg xmlns="http://www.w3.org/2000/svg" xmlns:xlink="http://www.w3.org/1999/xlink" version="1.1" class="marks" width="797" height="225" viewBox="0 0 797 225"><rect width="797" height="225" fill="white"/><g fill="none" stroke-miterlimit="10" transform="translate(34,22)"><g class="mark-group role-frame root" role="graphics-object" aria-roledescription="group mark container"><g transform="translate(0,0)"><path class="background" aria-hidden="true" d="M0.5,0.5h600v150h-600Z" stroke="#ddd"/><g><g class="mark-group role-axis" role="graphics-symbol" aria-roledescription="axis" aria-label="X-axis titled 'Jaar' for a discrete scale with 34 values: 1987, 1988, 1989, 1990, 1991, ending with 2020"><g transform="translate(0.5,150.5)"><path class="background" aria-hidden="true" d="M0,0h0v0h0Z" pointer-events="none"/><g><g class="mark-rule role-axis-tick" pointer-events="none"><line transform="translate(9,0)" x2="0" y2="5" stroke="#888" stroke-width="1" opacity="1"/><line transform="translate(26,0)" x2="0" y2="5" stroke="#888" stroke-width="1" opacity="1"/><line transform="translate(44,0)" x2="0" y2="5" stroke="#888" stroke-width="1" opacity="1"/><line transform="translate(62,0)" x2="0" y2="5" stroke="#888" stroke-width="1" opacity="1"/><line transform="translate(79,0)" x2="0" y2="5" stroke="#888" stroke-width="1" opacity="1"/><line transform="translate(97,0)" x2="0" y2="5" stroke="#888" stroke-width="1" opacity="1"/><line transform="translate(115,0)" x2="0" y2="5" stroke="#888" stroke-width="1" opacity="1"/><line transform="translate(132,0)" x2="0" y2="5" stroke="#888" stroke-width="1" opacity="1"/><line transform="translate(150,0)" x2="0" y2="5" stroke="#888" stroke-width="1" opacity="1"/><line transform="translate(168,0)" x2="0" y2="5" stroke="#888" stroke-width="1" opacity="1"/><line transform="translate(185,0)" x2="0" y2="5" stroke="#888" stroke-width="1" opacity="1"/><line transform="translate(203,0)" x2="0" y2="5" stroke="#888" stroke-width="1" opacity="1"/><line transform="translate(221,0)" x2="0" y2="5" stroke="#888" stroke-width="1" opacity="1"/><line transform="translate(238,0)" x2="0" y2="5" stroke="#888" stroke-width="1" opacity="1"/><line transform="translate(256,0)" x2="0" y2="5" stroke="#888" stroke-width="1" opacity="1"/><line transform="translate(274,0)" x2="0" y2="5" stroke="#888" stroke-width="1" opacity="1"/><line transform="translate(291,0)" x2="0" y2="5" stroke="#888" stroke-width="1" opacity="1"/><line transform="translate(309,0)" x2="0" y2="5" stroke="#888" stroke-width="1" opacity="1"/><line transform="translate(326,0)" x2="0" y2="5" stroke="#888" stroke-width="1" opacity="1"/><line transform="translate(344,0)" x2="0" y2="5" stroke="#888" stroke-width="1" opacity="1"/><line transform="translate(362,0)" x2="0" y2="5" stroke="#888" stroke-width="1" opacity="1"/><line transform="translate(379,0)" x2="0" y2="5" stroke="#888" stroke-width="1" opacity="1"/><line transform="translate(397,0)" x2="0" y2="5" stroke="#888" stroke-width="1" opacity="1"/><line transform="translate(415,0)" x2="0" y2="5" stroke="#888" stroke-width="1" opacity="1"/><line transform="translate(432,0)" x2="0" y2="5" stroke="#888" stroke-width="1" opacity="1"/><line transform="translate(450,0)" x2="0" y2="5" stroke="#888" stroke-width="1" opacity="1"/><line transform="translate(468,0)" x2="0" y2="5" stroke="#888" stroke-width="1" opacity="1"/><line transform="translate(485,0)" x2="0" y2="5" stroke="#888" stroke-width="1" opacity="1"/><line transform="translate(503,0)" x2="0" y2="5" stroke="#888" stroke-width="1" opacity="1"/><line transform="translate(521,0)" x2="0" y2="5" stroke="#888" stroke-width="1" opacity="1"/><line transform="translate(538,0)" x2="0" y2="5" stroke="#888" stroke-width="1" opacity="1"/><line transform="translate(556,0)" x2="0" y2="5" stroke="#888" stroke-width="1" opacity="1"/><line transform="translate(574,0)" x2="0" y2="5" stroke="#888" stroke-width="1" opacity="1"/><line transform="translate(591,0)" x2="0" y2="5" stroke="#888" stroke-width="1" opacity="1"/></g><g class="mark-text role-axis-label" pointer-events="none"><text text-anchor="end" transform="translate(8.823529411764696,7) rotate(270) translate(0,3)" font-family="sans-serif" font-size="10px" fill="#000" opacity="1">1987</text><text text-anchor="end" transform="translate(26.47058823529411,7) rotate(270) translate(0,3)" font-family="sans-serif" font-size="10px" fill="#000" opacity="1">1988</text><text text-anchor="end" transform="translate(44.11764705882352,7) rotate(270) translate(0,3)" font-family="sans-serif" font-size="10px" fill="#000" opacity="1">1989</text><text text-anchor="end" transform="translate(61.764705882352935,7) rotate(270) translate(0,3)" font-family="sans-serif" font-size="10px" fill="#000" opacity="1">1990</text><text text-anchor="end" transform="translate(79.41176470588235,7) rotate(270) translate(0,3)" font-family="sans-serif" font-size="10px" fill="#000" opacity="1">1991</text><text text-anchor="end" transform="translate(97.05882352941177,7) rotate(270) translate(0,3)" font-family="sans-serif" font-size="10px" fill="#000" opacity="1">1992</text><text text-anchor="end" transform="translate(114.70588235294117,7) rotate(270) translate(0,3)" font-family="sans-serif" font-size="10px" fill="#000" opacity="1">1993</text><text text-anchor="end" transform="translate(132.35294117647058,7) rotate(270) translate(0,3)" font-family="sans-serif" font-size="10px" fill="#000" opacity="1">1994</text><text text-anchor="end" transform="translate(150,7) rotate(270) translate(0,3)" font-family="sans-serif" font-size="10px" fill="#000" opacity="1">1995</text><text text-anchor="end" transform="translate(167.64705882352942,7) rotate(270) translate(0,3)" font-family="sans-serif" font-size="10px" fill="#000" opacity="1">1996</text><text text-anchor="end" transform="translate(185.29411764705884,7) rotate(270) translate(0,3)" font-family="sans-serif" font-size="10px" fill="#000" opacity="1">1997</text><text text-anchor="end" transform="translate(202.94117647058823,7) rotate(270) translate(0,3)" font-family="sans-serif" font-size="10px" fill="#000" opacity="1">1998</text><text text-anchor="end" transform="translate(220.58823529411765,7) rotate(270) translate(0,3)" font-family="sans-serif" font-size="10px" fill="#000" opacity="1">1999</text><text text-anchor="end" transform="translate(238.23529411764707,7) rotate(270) translate(0,3)" font-family="sans-serif" font-size="10px" fill="#000" opacity="1">2000</text><text text-anchor="end" transform="translate(255.88235294117646,7) rotate(270) translate(0,3)" font-family="sans-serif" font-size="10px" fill="#000" opacity="1">2001</text><text text-anchor="end" transform="translate(273.5294117647059,7) rotate(270) translate(0,3)" font-family="sans-serif" font-size="10px" fill="#000" opacity="1">2002</text><text text-anchor="end" transform="translate(291.1764705882353,7) rotate(270) translate(0,3)" font-family="sans-serif" font-size="10px" fill="#000" opacity="1">2003</text><text text-anchor="end" transform="translate(308.8235294117647,7) rotate(270) translate(0,3)" font-family="sans-serif" font-size="10px" fill="#000" opacity="1">2004</text><text text-anchor="end" transform="translate(326.47058823529414,7) rotate(270) translate(0,3)" font-family="sans-serif" font-size="10px" fill="#000" opacity="1">2005</text><text text-anchor="end" transform="translate(344.11764705882354,7) rotate(270) translate(0,3)" font-family="sans-serif" font-size="10px" fill="#000" opacity="1">2006</text><text text-anchor="end" transform="translate(361.764705882353,7) rotate(270) translate(0,3)" font-family="sans-serif" font-size="10px" fill="#000" opacity="1">2007</text><text text-anchor="end" transform="translate(379.4117647058824,7) rotate(270) translate(0,3)" font-family="sans-serif" font-size="10px" fill="#000" opacity="1">2008</text><text text-anchor="end" transform="translate(397.05882352941177,7) rotate(270) translate(0,3)" font-family="sans-serif" font-size="10px" fill="#000" opacity="1">2009</text><text text-anchor="end" transform="translate(414.7058823529412,7) rotate(270) translate(0,3)" font-family="sans-serif" font-size="10px" fill="#000" opacity="1">2010</text><text text-anchor="end" transform="translate(432.3529411764706,7) rotate(270) translate(0,3)" font-family="sans-serif" font-size="10px" fill="#000" opacity="1">2011</text><text text-anchor="end" transform="translate(450,7) rotate(270) translate(0,3)" font-family="sans-serif" font-size="10px" fill="#000" opacity="1">2012</text><text text-anchor="end" transform="translate(467.64705882352945,7) rotate(270) translate(0,3)" font-family="sans-serif" font-size="10px" fill="#000" opacity="1">2013</text><text text-anchor="end" transform="translate(485.29411764705884,7) rotate(270) translate(0,3)" font-family="sans-serif" font-size="10px" fill="#000" opacity="1">2014</text><text text-anchor="end" transform="translate(502.94117647058823,7) rotate(270) translate(0,3)" font-family="sans-serif" font-size="10px" fill="#000" opacity="1">2015</text><text text-anchor="end" transform="translate(520.5882352941177,7) rotate(270) translate(0,3)" font-family="sans-serif" font-size="10px" fill="#000" opacity="1">2016</text><text text-anchor="end" transform="translate(538.2352941176471,7) rotate(270) translate(0,3)" font-family="sans-serif" font-size="10px" fill="#000" opacity="1">2017</text><text text-anchor="end" transform="translate(555.8823529411766,7) rotate(270) translate(0,3)" font-family="sans-serif" font-size="10px" fill="#000" opacity="1">2018</text><text text-anchor="end" transform="translate(573.5294117647059,7) rotate(270) translate(0,3)" font-family="sans-serif" font-size="10px" fill="#000" opacity="1">2019</text><text text-anchor="end" transform="translate(591.1764705882354,7) rotate(270) translate(0,3)" font-family="sans-serif" font-size="10px" fill="#000" opacity="1">2020</text></g><g class="mark-rule role-axis-domain" pointer-events="none"><line transform="translate(0,0)" x2="600" y2="0" stroke="#888" stroke-width="1" opacity="1"/></g><g class="mark-text role-axis-title" pointer-events="none"><text text-anchor="middle" transform="translate(300,45.381818771362305)" font-family="sans-serif" font-size="11px" font-weight="bold" fill="#000" opacity="1">Jaar</text></g></g><path class="foreground" aria-hidden="true" d="" pointer-events="none" display="none"/></g></g><g class="mark-group role-axis" role="graphics-symbol" aria-roledescription="axis" aria-label="Y-axis titled 'Rang' for a discrete scale with 7 values: 1, 2, 3, 4, 5, 6, 7"><g transform="translate(0.5,0.5)"><path class="background" aria-hidden="true" d="M0,0h0v0h0Z" pointer-events="none"/><g><g class="mark-rule role-axis-tick" pointer-events="none"><line transform="translate(0,11)" x2="-5" y2="0" stroke="#888" stroke-width="1" opacity="1"/><line transform="translate(0,32)" x2="-5" y2="0" stroke="#888" stroke-width="1" opacity="1"/><line transform="translate(0,54)" x2="-5" y2="0" stroke="#888" stroke-width="1" opacity="1"/><line transform="translate(0,75)" x2="-5" y2="0" stroke="#888" stroke-width="1" opacity="1"/><line transform="translate(0,96)" x2="-5" y2="0" stroke="#888" stroke-width="1" opacity="1"/><line transform="translate(0,118)" x2="-5" y2="0" stroke="#888" stroke-width="1" opacity="1"/><line transform="translate(0,139)" x2="-5" y2="0" stroke="#888" stroke-width="1" opacity="1"/></g><g class="mark-text role-axis-label" pointer-events="none"><text text-anchor="end" transform="translate(-7,13.714285714285722)" font-family="sans-serif" font-size="10px" fill="#000" opacity="1">1</text><text text-anchor="end" transform="translate(-7,35.14285714285715)" font-family="sans-serif" font-size="10px" fill="#000" opacity="1">2</text><text text-anchor="end" transform="translate(-7,56.57142857142858)" font-family="sans-serif" font-size="10px" fill="#000" opacity="1">3</text><text text-anchor="end" transform="translate(-7,78)" font-family="sans-serif" font-size="10px" fill="#000" opacity="1">4</text><text text-anchor="end" transform="translate(-7,99.42857142857143)" font-family="sans-serif" font-size="10px" fill="#000" opacity="1">5</text><text text-anchor="end" transform="translate(-7,120.85714285714286)" font-family="sans-serif" font-size="10px" fill="#000" opacity="1">6</text><text text-anchor="end" transform="translate(-7,142.28571428571428)" font-family="sans-serif" font-size="10px" fill="#000" opacity="1">7</text></g><g class="mark-rule role-axis-domain" pointer-events="none"><line transform="translate(0,0)" x2="0" y2="150" stroke="#888" stroke-width="1" opacity="1"/></g><g class="mark-text role-axis-title" pointer-events="none"><text text-anchor="middle" transform="translate(-17.345454692840576,75) rotate(-90) translate(0,-2)" font-family="sans-serif" font-size="11px" font-weight="bold" fill="#000" opacity="1">Rang</text></g></g><path class="foreground" aria-hidden="true" d="" pointer-events="none" display="none"/></g></g><g class="mark-group role-scope layer_0_pathgroup" role="graphics-object" aria-roledescription="group mark container"><g transform="translate(0,0)"><path class="background" aria-hidden="true" d="M0,0h600v150h-600Z"/><g><g class="mark-line role-mark layer_0_marks" role="graphics-symbol" aria-roledescription="line mark container"><path d="M8.824,32.143L26.471,32.143L44.118,32.143L61.765,32.143L79.412,32.143L97.059,32.143L114.706,32.143L132.353,32.143L150,32.143L167.647,53.571L185.294,53.571L202.941,53.571L220.588,32.143L238.235,53.571L255.882,32.143L273.529,32.143L291.176,32.143L308.824,32.143L326.471,32.143L344.118,32.143L361.765,32.143L379.412,32.143L397.059,32.143L414.706,32.143L432.353,32.143L450,32.143L467.647,32.143L485.294,10.714L502.941,10.714L520.588,10.714L538.235,10.714L555.882,10.714L573.529,10.714L591.176,10.714" stroke="#e41a1c" stroke-width="2"/></g></g><path class="foreground" aria-hidden="true" d="" display="none"/></g><g transform="translate(0,0)"><path class="background" aria-hidden="true" d="M0,0h600v150h-600Z"/><g><g class="mark-line role-mark layer_0_marks" role="graphics-symbol" aria-roledescription="line mark container"><path d="M8.824,53.571L26.471,53.571L44.118,75L61.765,96.429L79.412,75L97.059,117.857L114.706,75L132.353,75L150,75L167.647,96.429L185.294,75L202.941,75L220.588,75L238.235,96.429L255.882,53.571L273.529,53.571L291.176,96.429L308.824,96.429L326.471,96.429L344.118,96.429L361.765,96.429L379.412,75L397.059,75L414.706,75L432.353,75L450,75L467.647,75L485.294,75L502.941,75L520.588,75L538.235,75L555.882,75L573.529,75L591.176,75" stroke="#f781bf" stroke-width="2"/></g></g><path class="foreground" aria-hidden="true" d="" display="none"/></g><g transform="translate(0,0)"><path class="background" aria-hidden="true" d="M0,0h600v150h-600Z"/><g><g class="mark-line role-mark layer_0_marks" role="graphics-symbol" aria-roledescription="line mark container"><path d="M8.824,10.714L26.471,10.714L44.118,10.714L61.765,10.714L79.412,10.714L97.059,10.714L114.706,10.714L132.353,10.714L150,10.714L167.647,10.714L185.294,10.714L202.941,10.714L220.588,10.714L238.235,10.714L255.882,10.714L273.529,10.714L291.176,10.714L308.824,10.714L326.471,10.714L344.118,10.714L361.765,10.714L379.412,10.714L397.059,10.714L414.706,10.714L432.353,10.714L450,10.714L467.647,10.714L485.294,32.143L502.941,32.143L520.588,32.143L538.235,32.143L555.882,32.143L573.529,32.143L591.176,32.143" stroke="#984ea3" stroke-width="2"/></g></g><path class="foreground" aria-hidden="true" d="" display="none"/></g><g transform="translate(0,0)"><path class="background" aria-hidden="true" d="M0,0h600v150h-600Z"/><g><g class="mark-line role-mark layer_0_marks" role="graphics-symbol" aria-roledescription="line mark container"><path d="M8.824,117.857L26.471,75L44.118,53.571L61.765,53.571L79.412,53.571L97.059,53.571L114.706,96.429L132.353,139.286L150,139.286L167.647,139.286L185.294,117.857L202.941,117.857L220.588,117.857L238.235,117.857L255.882,75L273.529,75L291.176,53.571L308.824,75L326.471,75L344.118,75L361.765,75L379.412,96.429L397.059,96.429L414.706,96.429L432.353,96.429L450,96.429L467.647,96.429L485.294,96.429L502.941,96.429L520.588,96.429L538.235,117.857L555.882,117.857L573.529,96.429L591.176,96.429" stroke="#ff7f00" stroke-width="2"/></g></g><path class="foreground" aria-hidden="true" d="" display="none"/></g><g transform="translate(0,0)"><path class="background" aria-hidden="true" d="M0,0h600v150h-600Z"/><g><g class="mark-line role-mark layer_0_marks" role="graphics-symbol" aria-roledescription="line mark container"><path d="M132.353,53.571L150,53.571L167.647,32.143L185.294,32.143L202.941,32.143L220.588,53.571L238.235,32.143L255.882,96.429L273.529,96.429L291.176,75L308.824,53.571L326.471,53.571L344.118,53.571L361.765,53.571L379.412,53.571L397.059,53.571" stroke="#999999" stroke-width="2"/></g></g><path class="foreground" aria-hidden="true" d="" display="none"/></g><g transform="translate(0,0)"><path class="background" aria-hidden="true" d="M0,0h600v150h-600Z"/><g><g class="mark-line role-mark layer_0_marks" role="graphics-symbol" aria-roledescription="line mark container"><path d="M414.706,53.571L432.353,53.571L450,53.571L467.647,53.571L485.294,53.571L502.941,53.571L520.588,53.571L538.235,53.571L555.882,53.571L573.529,53.571L591.176,53.571" stroke="#a65628" stroke-width="2"/></g></g><path class="foreground" aria-hidden="true" d="" display="none"/></g></g><g class="mark-symbol role-mark layer_1_marks" role="graphics-symbol" aria-roledescription="symbol mark container"><path transform="translate(8.823529411764696,32.14285714285715)" d="M2.739,0A2.739,2.739,0,1,1,-2.739,0A2.739,2.739,0,1,1,2.739,0" fill="#e41a1c" stroke-width="2" opacity="1"/><path transform="translate(8.823529411764696,53.57142857142858)" d="M2.739,0A2.739,2.739,0,1,1,-2.739,0A2.739,2.739,0,1,1,2.739,0" fill="#f781bf" stroke-width="2" opacity="1"/><path transform="translate(8.823529411764696,10.714285714285722)" d="M2.739,0A2.739,2.739,0,1,1,-2.739,0A2.739,2.739,0,1,1,2.739,0" fill="#984ea3" stroke-width="2" opacity="1"/><path transform="translate(8.823529411764696,117.85714285714286)" d="M2.739,0A2.739,2.739,0,1,1,-2.739,0A2.739,2.739,0,1,1,2.739,0" fill="#ff7f00" stroke-width="2" opacity="1"/><path transform="translate(26.47058823529411,32.14285714285715)" d="M2.739,0A2.739,2.739,0,1,1,-2.739,0A2.739,2.739,0,1,1,2.739,0" fill="#e41a1c" stroke-width="2" opacity="1"/><path transform="translate(26.47058823529411,53.57142857142858)" d="M2.739,0A2.739,2.739,0,1,1,-2.739,0A2.739,2.739,0,1,1,2.739,0" fill="#f781bf" stroke-width="2" opacity="1"/><path transform="translate(26.47058823529411,10.714285714285722)" d="M2.739,0A2.739,2.739,0,1,1,-2.739,0A2.739,2.739,0,1,1,2.739,0" fill="#984ea3" stroke-width="2" opacity="1"/><path transform="translate(26.47058823529411,75)" d="M2.739,0A2.739,2.739,0,1,1,-2.739,0A2.739,2.739,0,1,1,2.739,0" fill="#ff7f00" stroke-width="2" opacity="1"/><path transform="translate(44.11764705882352,32.14285714285715)" d="M2.739,0A2.739,2.739,0,1,1,-2.739,0A2.739,2.739,0,1,1,2.739,0" fill="#e41a1c" stroke-width="2" opacity="1"/><path transform="translate(44.11764705882352,75)" d="M2.739,0A2.739,2.739,0,1,1,-2.739,0A2.739,2.739,0,1,1,2.739,0" fill="#f781bf" stroke-width="2" opacity="1"/><path transform="translate(44.11764705882352,10.714285714285722)" d="M2.739,0A2.739,2.739,0,1,1,-2.739,0A2.739,2.739,0,1,1,2.739,0" fill="#984ea3" stroke-width="2" opacity="1"/><path transform="translate(44.11764705882352,53.57142857142858)" d="M2.739,0A2.739,2.739,0,1,1,-2.739,0A2.739,2.739,0,1,1,2.739,0" fill="#ff7f00" stroke-width="2" opacity="1"/><path transform="translate(61.764705882352935,32.14285714285715)" d="M2.739,0A2.739,2.739,0,1,1,-2.739,0A2.739,2.739,0,1,1,2.739,0" fill="#e41a1c" stroke-width="2" opacity="1"/><path transform="translate(61.764705882352935,96.42857142857143)" d="M2.739,0A2.739,2.739,0,1,1,-2.739,0A2.739,2.739,0,1,1,2.739,0" fill="#f781bf" stroke-width="2" opacity="1"/><path transform="translate(61.764705882352935,10.714285714285722)" d="M2.739,0A2.739,2.739,0,1,1,-2.739,0A2.739,2.739,0,1,1,2.739,0" fill="#984ea3" stroke-width="2" opacity="1"/><path transform="translate(61.764705882352935,53.57142857142858)" d="M2.739,0A2.739,2.739,0,1,1,-2.739,0A2.739,2.739,0,1,1,2.739,0" fill="#ff7f00" stroke-width="2" opacity="1"/><path transform="translate(79.41176470588235,32.14285714285715)" d="M2.739,0A2.739,2.739,0,1,1,-2.739,0A2.739,2.739,0,1,1,2.739,0" fill="#e41a1c" stroke-width="2" opacity="1"/><path transform="translate(79.41176470588235,75)" d="M2.739,0A2.739,2.739,0,1,1,-2.739,0A2.739,2.739,0,1,1,2.739,0" fill="#f781bf" stroke-width="2" opacity="1"/><path transform="translate(79.41176470588235,10.714285714285722)" d="M2.739,0A2.739,2.739,0,1,1,-2.739,0A2.739,2.739,0,1,1,2.739,0" fill="#984ea3" stroke-width="2" opacity="1"/><path transform="translate(79.41176470588235,53.57142857142858)" d="M2.739,0A2.739,2.739,0,1,1,-2.739,0A2.739,2.739,0,1,1,2.739,0" fill="#ff7f00" stroke-width="2" opacity="1"/><path transform="translate(97.05882352941177,32.14285714285715)" d="M2.739,0A2.739,2.739,0,1,1,-2.739,0A2.739,2.739,0,1,1,2.739,0" fill="#e41a1c" stroke-width="2" opacity="1"/><path transform="translate(97.05882352941177,117.85714285714286)" d="M2.739,0A2.739,2.739,0,1,1,-2.739,0A2.739,2.739,0,1,1,2.739,0" fill="#f781bf" stroke-width="2" opacity="1"/><path transform="translate(97.05882352941177,10.714285714285722)" d="M2.739,0A2.739,2.739,0,1,1,-2.739,0A2.739,2.739,0,1,1,2.739,0" fill="#984ea3" stroke-width="2" opacity="1"/><path transform="translate(97.05882352941177,53.57142857142858)" d="M2.739,0A2.739,2.739,0,1,1,-2.739,0A2.739,2.739,0,1,1,2.739,0" fill="#ff7f00" stroke-width="2" opacity="1"/><path transform="translate(114.70588235294117,32.14285714285715)" d="M2.739,0A2.739,2.739,0,1,1,-2.739,0A2.739,2.739,0,1,1,2.739,0" fill="#e41a1c" stroke-width="2" opacity="1"/><path transform="translate(114.70588235294117,75)" d="M2.739,0A2.739,2.739,0,1,1,-2.739,0A2.739,2.739,0,1,1,2.739,0" fill="#f781bf" stroke-width="2" opacity="1"/><path transform="translate(114.70588235294117,10.714285714285722)" d="M2.739,0A2.739,2.739,0,1,1,-2.739,0A2.739,2.739,0,1,1,2.739,0" fill="#984ea3" stroke-width="2" opacity="1"/><path transform="translate(114.70588235294117,96.42857142857143)" d="M2.739,0A2.739,2.739,0,1,1,-2.739,0A2.739,2.739,0,1,1,2.739,0" fill="#ff7f00" stroke-width="2" opacity="1"/><path transform="translate(132.35294117647058,32.14285714285715)" d="M2.739,0A2.739,2.739,0,1,1,-2.739,0A2.739,2.739,0,1,1,2.739,0" fill="#e41a1c" stroke-width="2" opacity="1"/><path transform="translate(132.35294117647058,75)" d="M2.739,0A2.739,2.739,0,1,1,-2.739,0A2.739,2.739,0,1,1,2.739,0" fill="#f781bf" stroke-width="2" opacity="1"/><path transform="translate(132.35294117647058,10.714285714285722)" d="M2.739,0A2.739,2.739,0,1,1,-2.739,0A2.739,2.739,0,1,1,2.739,0" fill="#984ea3" stroke-width="2" opacity="1"/><path transform="translate(132.35294117647058,139.28571428571428)" d="M2.739,0A2.739,2.739,0,1,1,-2.739,0A2.739,2.739,0,1,1,2.739,0" fill="#ff7f00" stroke-width="2" opacity="1"/><path transform="translate(132.35294117647058,53.57142857142858)" d="M2.739,0A2.739,2.739,0,1,1,-2.739,0A2.739,2.739,0,1,1,2.739,0" fill="#999999" stroke-width="2" opacity="1"/><path transform="translate(150,32.14285714285715)" d="M2.739,0A2.739,2.739,0,1,1,-2.739,0A2.739,2.739,0,1,1,2.739,0" fill="#e41a1c" stroke-width="2" opacity="1"/><path transform="translate(150,75)" d="M2.739,0A2.739,2.739,0,1,1,-2.739,0A2.739,2.739,0,1,1,2.739,0" fill="#f781bf" stroke-width="2" opacity="1"/><path transform="translate(150,10.714285714285722)" d="M2.739,0A2.739,2.739,0,1,1,-2.739,0A2.739,2.739,0,1,1,2.739,0" fill="#984ea3" stroke-width="2" opacity="1"/><path transform="translate(150,139.28571428571428)" d="M2.739,0A2.739,2.739,0,1,1,-2.739,0A2.739,2.739,0,1,1,2.739,0" fill="#ff7f00" stroke-width="2" opacity="1"/><path transform="translate(150,53.57142857142858)" d="M2.739,0A2.739,2.739,0,1,1,-2.739,0A2.739,2.739,0,1,1,2.739,0" fill="#999999" stroke-width="2" opacity="1"/><path transform="translate(167.64705882352942,53.57142857142858)" d="M2.739,0A2.739,2.739,0,1,1,-2.739,0A2.739,2.739,0,1,1,2.739,0" fill="#e41a1c" stroke-width="2" opacity="1"/><path transform="translate(167.64705882352942,96.42857142857143)" d="M2.739,0A2.739,2.739,0,1,1,-2.739,0A2.739,2.739,0,1,1,2.739,0" fill="#f781bf" stroke-width="2" opacity="1"/><path transform="translate(167.64705882352942,10.714285714285722)" d="M2.739,0A2.739,2.739,0,1,1,-2.739,0A2.739,2.739,0,1,1,2.739,0" fill="#984ea3" stroke-width="2" opacity="1"/><path transform="translate(167.64705882352942,139.28571428571428)" d="M2.739,0A2.739,2.739,0,1,1,-2.739,0A2.739,2.739,0,1,1,2.739,0" fill="#ff7f00" stroke-width="2" opacity="1"/><path transform="translate(167.64705882352942,32.14285714285715)" d="M2.739,0A2.739,2.739,0,1,1,-2.739,0A2.739,2.739,0,1,1,2.739,0" fill="#999999" stroke-width="2" opacity="1"/><path transform="translate(185.29411764705884,53.57142857142858)" d="M2.739,0A2.739,2.739,0,1,1,-2.739,0A2.739,2.739,0,1,1,2.739,0" fill="#e41a1c" stroke-width="2" opacity="1"/><path transform="translate(185.29411764705884,75)" d="M2.739,0A2.739,2.739,0,1,1,-2.739,0A2.739,2.739,0,1,1,2.739,0" fill="#f781bf" stroke-width="2" opacity="1"/><path transform="translate(185.29411764705884,10.714285714285722)" d="M2.739,0A2.739,2.739,0,1,1,-2.739,0A2.739,2.739,0,1,1,2.739,0" fill="#984ea3" stroke-width="2" opacity="1"/><path transform="translate(185.29411764705884,117.85714285714286)" d="M2.739,0A2.739,2.739,0,1,1,-2.739,0A2.739,2.739,0,1,1,2.739,0" fill="#ff7f00" stroke-width="2" opacity="1"/><path transform="translate(185.29411764705884,32.14285714285715)" d="M2.739,0A2.739,2.739,0,1,1,-2.739,0A2.739,2.739,0,1,1,2.739,0" fill="#999999" stroke-width="2" opacity="1"/><path transform="translate(202.94117647058823,53.57142857142858)" d="M2.739,0A2.739,2.739,0,1,1,-2.739,0A2.739,2.739,0,1,1,2.739,0" fill="#e41a1c" stroke-width="2" opacity="1"/><path transform="translate(202.94117647058823,75)" d="M2.739,0A2.739,2.739,0,1,1,-2.739,0A2.739,2.739,0,1,1,2.739,0" fill="#f781bf" stroke-width="2" opacity="1"/><path transform="translate(202.94117647058823,10.714285714285722)" d="M2.739,0A2.739,2.739,0,1,1,-2.739,0A2.739,2.739,0,1,1,2.739,0" fill="#984ea3" stroke-width="2" opacity="1"/><path transform="translate(202.94117647058823,117.85714285714286)" d="M2.739,0A2.739,2.739,0,1,1,-2.739,0A2.739,2.739,0,1,1,2.739,0" fill="#ff7f00" stroke-width="2" opacity="1"/><path transform="translate(202.94117647058823,32.14285714285715)" d="M2.739,0A2.739,2.739,0,1,1,-2.739,0A2.739,2.739,0,1,1,2.739,0" fill="#999999" stroke-width="2" opacity="1"/><path transform="translate(220.58823529411765,32.14285714285715)" d="M2.739,0A2.739,2.739,0,1,1,-2.739,0A2.739,2.739,0,1,1,2.739,0" fill="#e41a1c" stroke-width="2" opacity="1"/><path transform="translate(220.58823529411765,75)" d="M2.739,0A2.739,2.739,0,1,1,-2.739,0A2.739,2.739,0,1,1,2.739,0" fill="#f781bf" stroke-width="2" opacity="1"/><path transform="translate(220.58823529411765,10.714285714285722)" d="M2.739,0A2.739,2.739,0,1,1,-2.739,0A2.739,2.739,0,1,1,2.739,0" fill="#984ea3" stroke-width="2" opacity="1"/><path transform="translate(220.58823529411765,117.85714285714286)" d="M2.739,0A2.739,2.739,0,1,1,-2.739,0A2.739,2.739,0,1,1,2.739,0" fill="#ff7f00" stroke-width="2" opacity="1"/><path transform="translate(220.58823529411765,53.57142857142858)" d="M2.739,0A2.739,2.739,0,1,1,-2.739,0A2.739,2.739,0,1,1,2.739,0" fill="#999999" stroke-width="2" opacity="1"/><path transform="translate(238.23529411764707,53.57142857142858)" d="M2.739,0A2.739,2.739,0,1,1,-2.739,0A2.739,2.739,0,1,1,2.739,0" fill="#e41a1c" stroke-width="2" opacity="1"/><path transform="translate(238.23529411764707,96.42857142857143)" d="M2.739,0A2.739,2.739,0,1,1,-2.739,0A2.739,2.739,0,1,1,2.739,0" fill="#f781bf" stroke-width="2" opacity="1"/><path transform="translate(238.23529411764707,10.714285714285722)" d="M2.739,0A2.739,2.739,0,1,1,-2.739,0A2.739,2.739,0,1,1,2.739,0" fill="#984ea3" stroke-width="2" opacity="1"/><path transform="translate(238.23529411764707,117.85714285714286)" d="M2.739,0A2.739,2.739,0,1,1,-2.739,0A2.739,2.739,0,1,1,2.739,0" fill="#ff7f00" stroke-width="2" opacity="1"/><path transform="translate(238.23529411764707,32.14285714285715)" d="M2.739,0A2.739,2.739,0,1,1,-2.739,0A2.739,2.739,0,1,1,2.739,0" fill="#999999" stroke-width="2" opacity="1"/><path transform="translate(255.88235294117646,32.14285714285715)" d="M2.739,0A2.739,2.739,0,1,1,-2.739,0A2.739,2.739,0,1,1,2.739,0" fill="#e41a1c" stroke-width="2" opacity="1"/><path transform="translate(255.88235294117646,53.57142857142858)" d="M2.739,0A2.739,2.739,0,1,1,-2.739,0A2.739,2.739,0,1,1,2.739,0" fill="#f781bf" stroke-width="2" opacity="1"/><path transform="translate(255.88235294117646,10.714285714285722)" d="M2.739,0A2.739,2.739,0,1,1,-2.739,0A2.739,2.739,0,1,1,2.739,0" fill="#984ea3" stroke-width="2" opacity="1"/><path transform="translate(255.88235294117646,75)" d="M2.739,0A2.739,2.739,0,1,1,-2.739,0A2.739,2.739,0,1,1,2.739,0" fill="#ff7f00" stroke-width="2" opacity="1"/><path transform="translate(255.88235294117646,96.42857142857143)" d="M2.739,0A2.739,2.739,0,1,1,-2.739,0A2.739,2.739,0,1,1,2.739,0" fill="#999999" stroke-width="2" opacity="1"/><path transform="translate(273.5294117647059,32.14285714285715)" d="M2.739,0A2.739,2.739,0,1,1,-2.739,0A2.739,2.739,0,1,1,2.739,0" fill="#e41a1c" stroke-width="2" opacity="1"/><path transform="translate(273.5294117647059,53.57142857142858)" d="M2.739,0A2.739,2.739,0,1,1,-2.739,0A2.739,2.739,0,1,1,2.739,0" fill="#f781bf" stroke-width="2" opacity="1"/><path transform="translate(273.5294117647059,10.714285714285722)" d="M2.739,0A2.739,2.739,0,1,1,-2.739,0A2.739,2.739,0,1,1,2.739,0" fill="#984ea3" stroke-width="2" opacity="1"/><path transform="translate(273.5294117647059,75)" d="M2.739,0A2.739,2.739,0,1,1,-2.739,0A2.739,2.739,0,1,1,2.739,0" fill="#ff7f00" stroke-width="2" opacity="1"/><path transform="translate(273.5294117647059,96.42857142857143)" d="M2.739,0A2.739,2.739,0,1,1,-2.739,0A2.739,2.739,0,1,1,2.739,0" fill="#999999" stroke-width="2" opacity="1"/><path transform="translate(291.1764705882353,32.14285714285715)" d="M2.739,0A2.739,2.739,0,1,1,-2.739,0A2.739,2.739,0,1,1,2.739,0" fill="#e41a1c" stroke-width="2" opacity="1"/><path transform="translate(291.1764705882353,96.42857142857143)" d="M2.739,0A2.739,2.739,0,1,1,-2.739,0A2.739,2.739,0,1,1,2.739,0" fill="#f781bf" stroke-width="2" opacity="1"/><path transform="translate(291.1764705882353,10.714285714285722)" d="M2.739,0A2.739,2.739,0,1,1,-2.739,0A2.739,2.739,0,1,1,2.739,0" fill="#984ea3" stroke-width="2" opacity="1"/><path transform="translate(291.1764705882353,53.57142857142858)" d="M2.739,0A2.739,2.739,0,1,1,-2.739,0A2.739,2.739,0,1,1,2.739,0" fill="#ff7f00" stroke-width="2" opacity="1"/><path transform="translate(291.1764705882353,75)" d="M2.739,0A2.739,2.739,0,1,1,-2.739,0A2.739,2.739,0,1,1,2.739,0" fill="#999999" stroke-width="2" opacity="1"/><path transform="translate(308.8235294117647,32.14285714285715)" d="M2.739,0A2.739,2.739,0,1,1,-2.739,0A2.739,2.739,0,1,1,2.739,0" fill="#e41a1c" stroke-width="2" opacity="1"/><path transform="translate(308.8235294117647,96.42857142857143)" d="M2.739,0A2.739,2.739,0,1,1,-2.739,0A2.739,2.739,0,1,1,2.739,0" fill="#f781bf" stroke-width="2" opacity="1"/><path transform="translate(308.8235294117647,10.714285714285722)" d="M2.739,0A2.739,2.739,0,1,1,-2.739,0A2.739,2.739,0,1,1,2.739,0" fill="#984ea3" stroke-width="2" opacity="1"/><path transform="translate(308.8235294117647,75)" d="M2.739,0A2.739,2.739,0,1,1,-2.739,0A2.739,2.739,0,1,1,2.739,0" fill="#ff7f00" stroke-width="2" opacity="1"/><path transform="translate(308.8235294117647,53.57142857142858)" d="M2.739,0A2.739,2.739,0,1,1,-2.739,0A2.739,2.739,0,1,1,2.739,0" fill="#999999" stroke-width="2" opacity="1"/><path transform="translate(326.47058823529414,32.14285714285715)" d="M2.739,0A2.739,2.739,0,1,1,-2.739,0A2.739,2.739,0,1,1,2.739,0" fill="#e41a1c" stroke-width="2" opacity="1"/><path transform="translate(326.47058823529414,96.42857142857143)" d="M2.739,0A2.739,2.739,0,1,1,-2.739,0A2.739,2.739,0,1,1,2.739,0" fill="#f781bf" stroke-width="2" opacity="1"/><path transform="translate(326.47058823529414,10.714285714285722)" d="M2.739,0A2.739,2.739,0,1,1,-2.739,0A2.739,2.739,0,1,1,2.739,0" fill="#984ea3" stroke-width="2" opacity="1"/><path transform="translate(326.47058823529414,75)" d="M2.739,0A2.739,2.739,0,1,1,-2.739,0A2.739,2.739,0,1,1,2.739,0" fill="#ff7f00" stroke-width="2" opacity="1"/><path transform="translate(326.47058823529414,53.57142857142858)" d="M2.739,0A2.739,2.739,0,1,1,-2.739,0A2.739,2.739,0,1,1,2.739,0" fill="#999999" stroke-width="2" opacity="1"/><path transform="translate(344.11764705882354,32.14285714285715)" d="M2.739,0A2.739,2.739,0,1,1,-2.739,0A2.739,2.739,0,1,1,2.739,0" fill="#e41a1c" stroke-width="2" opacity="1"/><path transform="translate(344.11764705882354,96.42857142857143)" d="M2.739,0A2.739,2.739,0,1,1,-2.739,0A2.739,2.739,0,1,1,2.739,0" fill="#f781bf" stroke-width="2" opacity="1"/><path transform="translate(344.11764705882354,10.714285714285722)" d="M2.739,0A2.739,2.739,0,1,1,-2.739,0A2.739,2.739,0,1,1,2.739,0" fill="#984ea3" stroke-width="2" opacity="1"/><path transform="translate(344.11764705882354,75)" d="M2.739,0A2.739,2.739,0,1,1,-2.739,0A2.739,2.739,0,1,1,2.739,0" fill="#ff7f00" stroke-width="2" opacity="1"/><path transform="translate(344.11764705882354,53.57142857142858)" d="M2.739,0A2.739,2.739,0,1,1,-2.739,0A2.739,2.739,0,1,1,2.739,0" fill="#999999" stroke-width="2" opacity="1"/><path transform="translate(361.764705882353,32.14285714285715)" d="M2.739,0A2.739,2.739,0,1,1,-2.739,0A2.739,2.739,0,1,1,2.739,0" fill="#e41a1c" stroke-width="2" opacity="1"/><path transform="translate(361.764705882353,96.42857142857143)" d="M2.739,0A2.739,2.739,0,1,1,-2.739,0A2.739,2.739,0,1,1,2.739,0" fill="#f781bf" stroke-width="2" opacity="1"/><path transform="translate(361.764705882353,10.714285714285722)" d="M2.739,0A2.739,2.739,0,1,1,-2.739,0A2.739,2.739,0,1,1,2.739,0" fill="#984ea3" stroke-width="2" opacity="1"/><path transform="translate(361.764705882353,75)" d="M2.739,0A2.739,2.739,0,1,1,-2.739,0A2.739,2.739,0,1,1,2.739,0" fill="#ff7f00" stroke-width="2" opacity="1"/><path transform="translate(361.764705882353,53.57142857142858)" d="M2.739,0A2.739,2.739,0,1,1,-2.739,0A2.739,2.739,0,1,1,2.739,0" fill="#999999" stroke-width="2" opacity="1"/><path transform="translate(379.4117647058824,32.14285714285715)" d="M2.739,0A2.739,2.739,0,1,1,-2.739,0A2.739,2.739,0,1,1,2.739,0" fill="#e41a1c" stroke-width="2" opacity="1"/><path transform="translate(379.4117647058824,75)" d="M2.739,0A2.739,2.739,0,1,1,-2.739,0A2.739,2.739,0,1,1,2.739,0" fill="#f781bf" stroke-width="2" opacity="1"/><path transform="translate(379.4117647058824,10.714285714285722)" d="M2.739,0A2.739,2.739,0,1,1,-2.739,0A2.739,2.739,0,1,1,2.739,0" fill="#984ea3" stroke-width="2" opacity="1"/><path transform="translate(379.4117647058824,96.42857142857143)" d="M2.739,0A2.739,2.739,0,1,1,-2.739,0A2.739,2.739,0,1,1,2.739,0" fill="#ff7f00" stroke-width="2" opacity="1"/><path transform="translate(379.4117647058824,53.57142857142858)" d="M2.739,0A2.739,2.739,0,1,1,-2.739,0A2.739,2.739,0,1,1,2.739,0" fill="#999999" stroke-width="2" opacity="1"/><path transform="translate(397.05882352941177,32.14285714285715)" d="M2.739,0A2.739,2.739,0,1,1,-2.739,0A2.739,2.739,0,1,1,2.739,0" fill="#e41a1c" stroke-width="2" opacity="1"/><path transform="translate(397.05882352941177,75)" d="M2.739,0A2.739,2.739,0,1,1,-2.739,0A2.739,2.739,0,1,1,2.739,0" fill="#f781bf" stroke-width="2" opacity="1"/><path transform="translate(397.05882352941177,10.714285714285722)" d="M2.739,0A2.739,2.739,0,1,1,-2.739,0A2.739,2.739,0,1,1,2.739,0" fill="#984ea3" stroke-width="2" opacity="1"/><path transform="translate(397.05882352941177,96.42857142857143)" d="M2.739,0A2.739,2.739,0,1,1,-2.739,0A2.739,2.739,0,1,1,2.739,0" fill="#ff7f00" stroke-width="2" opacity="1"/><path transform="translate(397.05882352941177,53.57142857142858)" d="M2.739,0A2.739,2.739,0,1,1,-2.739,0A2.739,2.739,0,1,1,2.739,0" fill="#999999" stroke-width="2" opacity="1"/><path transform="translate(414.7058823529412,32.14285714285715)" d="M2.739,0A2.739,2.739,0,1,1,-2.739,0A2.739,2.739,0,1,1,2.739,0" fill="#e41a1c" stroke-width="2" opacity="1"/><path transform="translate(414.7058823529412,75)" d="M2.739,0A2.739,2.739,0,1,1,-2.739,0A2.739,2.739,0,1,1,2.739,0" fill="#f781bf" stroke-width="2" opacity="1"/><path transform="translate(414.7058823529412,10.714285714285722)" d="M2.739,0A2.739,2.739,0,1,1,-2.739,0A2.739,2.739,0,1,1,2.739,0" fill="#984ea3" stroke-width="2" opacity="1"/><path transform="translate(414.7058823529412,96.42857142857143)" d="M2.739,0A2.739,2.739,0,1,1,-2.739,0A2.739,2.739,0,1,1,2.739,0" fill="#ff7f00" stroke-width="2" opacity="1"/><path transform="translate(414.7058823529412,53.57142857142858)" d="M2.739,0A2.739,2.739,0,1,1,-2.739,0A2.739,2.739,0,1,1,2.739,0" fill="#a65628" stroke-width="2" opacity="1"/><path transform="translate(432.3529411764706,32.14285714285715)" d="M2.739,0A2.739,2.739,0,1,1,-2.739,0A2.739,2.739,0,1,1,2.739,0" fill="#e41a1c" stroke-width="2" opacity="1"/><path transform="translate(432.3529411764706,75)" d="M2.739,0A2.739,2.739,0,1,1,-2.739,0A2.739,2.739,0,1,1,2.739,0" fill="#f781bf" stroke-width="2" opacity="1"/><path transform="translate(432.3529411764706,10.714285714285722)" d="M2.739,0A2.739,2.739,0,1,1,-2.739,0A2.739,2.739,0,1,1,2.739,0" fill="#984ea3" stroke-width="2" opacity="1"/><path transform="translate(432.3529411764706,96.42857142857143)" d="M2.739,0A2.739,2.739,0,1,1,-2.739,0A2.739,2.739,0,1,1,2.739,0" fill="#ff7f00" stroke-width="2" opacity="1"/><path transform="translate(432.3529411764706,53.57142857142858)" d="M2.739,0A2.739,2.739,0,1,1,-2.739,0A2.739,2.739,0,1,1,2.739,0" fill="#a65628" stroke-width="2" opacity="1"/><path transform="translate(450,32.14285714285715)" d="M2.739,0A2.739,2.739,0,1,1,-2.739,0A2.739,2.739,0,1,1,2.739,0" fill="#e41a1c" stroke-width="2" opacity="1"/><path transform="translate(450,75)" d="M2.739,0A2.739,2.739,0,1,1,-2.739,0A2.739,2.739,0,1,1,2.739,0" fill="#f781bf" stroke-width="2" opacity="1"/><path transform="translate(450,10.714285714285722)" d="M2.739,0A2.739,2.739,0,1,1,-2.739,0A2.739,2.739,0,1,1,2.739,0" fill="#984ea3" stroke-width="2" opacity="1"/><path transform="translate(450,96.42857142857143)" d="M2.739,0A2.739,2.739,0,1,1,-2.739,0A2.739,2.739,0,1,1,2.739,0" fill="#ff7f00" stroke-width="2" opacity="1"/><path transform="translate(450,53.57142857142858)" d="M2.739,0A2.739,2.739,0,1,1,-2.739,0A2.739,2.739,0,1,1,2.739,0" fill="#a65628" stroke-width="2" opacity="1"/><path transform="translate(467.64705882352945,32.14285714285715)" d="M2.739,0A2.739,2.739,0,1,1,-2.739,0A2.739,2.739,0,1,1,2.739,0" fill="#e41a1c" stroke-width="2" opacity="1"/><path transform="translate(467.64705882352945,75)" d="M2.739,0A2.739,2.739,0,1,1,-2.739,0A2.739,2.739,0,1,1,2.739,0" fill="#f781bf" stroke-width="2" opacity="1"/><path transform="translate(467.64705882352945,10.714285714285722)" d="M2.739,0A2.739,2.739,0,1,1,-2.739,0A2.739,2.739,0,1,1,2.739,0" fill="#984ea3" stroke-width="2" opacity="1"/><path transform="translate(467.64705882352945,96.42857142857143)" d="M2.739,0A2.739,2.739,0,1,1,-2.739,0A2.739,2.739,0,1,1,2.739,0" fill="#ff7f00" stroke-width="2" opacity="1"/><path transform="translate(467.64705882352945,53.57142857142858)" d="M2.739,0A2.739,2.739,0,1,1,-2.739,0A2.739,2.739,0,1,1,2.739,0" fill="#a65628" stroke-width="2" opacity="1"/><path transform="translate(485.29411764705884,10.714285714285722)" d="M2.739,0A2.739,2.739,0,1,1,-2.739,0A2.739,2.739,0,1,1,2.739,0" fill="#e41a1c" stroke-width="2" opacity="1"/><path transform="translate(485.29411764705884,75)" d="M2.739,0A2.739,2.739,0,1,1,-2.739,0A2.739,2.739,0,1,1,2.739,0" fill="#f781bf" stroke-width="2" opacity="1"/><path transform="translate(485.29411764705884,32.14285714285715)" d="M2.739,0A2.739,2.739,0,1,1,-2.739,0A2.739,2.739,0,1,1,2.739,0" fill="#984ea3" stroke-width="2" opacity="1"/><path transform="translate(485.29411764705884,96.42857142857143)" d="M2.739,0A2.739,2.739,0,1,1,-2.739,0A2.739,2.739,0,1,1,2.739,0" fill="#ff7f00" stroke-width="2" opacity="1"/><path transform="translate(485.29411764705884,53.57142857142858)" d="M2.739,0A2.739,2.739,0,1,1,-2.739,0A2.739,2.739,0,1,1,2.739,0" fill="#a65628" stroke-width="2" opacity="1"/><path transform="translate(502.94117647058823,10.714285714285722)" d="M2.739,0A2.739,2.739,0,1,1,-2.739,0A2.739,2.739,0,1,1,2.739,0" fill="#e41a1c" stroke-width="2" opacity="1"/><path transform="translate(502.94117647058823,75)" d="M2.739,0A2.739,2.739,0,1,1,-2.739,0A2.739,2.739,0,1,1,2.739,0" fill="#f781bf" stroke-width="2" opacity="1"/><path transform="translate(502.94117647058823,32.14285714285715)" d="M2.739,0A2.739,2.739,0,1,1,-2.739,0A2.739,2.739,0,1,1,2.739,0" fill="#984ea3" stroke-width="2" opacity="1"/><path transform="translate(502.94117647058823,96.42857142857143)" d="M2.739,0A2.739,2.739,0,1,1,-2.739,0A2.739,2.739,0,1,1,2.739,0" fill="#ff7f00" stroke-width="2" opacity="1"/><path transform="translate(502.94117647058823,53.57142857142858)" d="M2.739,0A2.739,2.739,0,1,1,-2.739,0A2.739,2.739,0,1,1,2.739,0" fill="#a65628" stroke-width="2" opacity="1"/><path transform="translate(520.5882352941177,10.714285714285722)" d="M2.739,0A2.739,2.739,0,1,1,-2.739,0A2.739,2.739,0,1,1,2.739,0" fill="#e41a1c" stroke-width="2" opacity="1"/><path transform="translate(520.5882352941177,75)" d="M2.739,0A2.739,2.739,0,1,1,-2.739,0A2.739,2.739,0,1,1,2.739,0" fill="#f781bf" stroke-width="2" opacity="1"/><path transform="translate(520.5882352941177,32.14285714285715)" d="M2.739,0A2.739,2.739,0,1,1,-2.739,0A2.739,2.739,0,1,1,2.739,0" fill="#984ea3" stroke-width="2" opacity="1"/><path transform="translate(520.5882352941177,96.42857142857143)" d="M2.739,0A2.739,2.739,0,1,1,-2.739,0A2.739,2.739,0,1,1,2.739,0" fill="#ff7f00" stroke-width="2" opacity="1"/><path transform="translate(520.5882352941177,53.57142857142858)" d="M2.739,0A2.739,2.739,0,1,1,-2.739,0A2.739,2.739,0,1,1,2.739,0" fill="#a65628" stroke-width="2" opacity="1"/><path transform="translate(538.2352941176471,10.714285714285722)" d="M2.739,0A2.739,2.739,0,1,1,-2.739,0A2.739,2.739,0,1,1,2.739,0" fill="#e41a1c" stroke-width="2" opacity="1"/><path transform="translate(538.2352941176471,75)" d="M2.739,0A2.739,2.739,0,1,1,-2.739,0A2.739,2.739,0,1,1,2.739,0" fill="#f781bf" stroke-width="2" opacity="1"/><path transform="translate(538.2352941176471,32.14285714285715)" d="M2.739,0A2.739,2.739,0,1,1,-2.739,0A2.739,2.739,0,1,1,2.739,0" fill="#984ea3" stroke-width="2" opacity="1"/><path transform="translate(538.2352941176471,117.85714285714286)" d="M2.739,0A2.739,2.739,0,1,1,-2.739,0A2.739,2.739,0,1,1,2.739,0" fill="#ff7f00" stroke-width="2" opacity="1"/><path transform="translate(538.2352941176471,53.57142857142858)" d="M2.739,0A2.739,2.739,0,1,1,-2.739,0A2.739,2.739,0,1,1,2.739,0" fill="#a65628" stroke-width="2" opacity="1"/><path transform="translate(555.8823529411766,10.714285714285722)" d="M2.739,0A2.739,2.739,0,1,1,-2.739,0A2.739,2.739,0,1,1,2.739,0" fill="#e41a1c" stroke-width="2" opacity="1"/><path transform="translate(555.8823529411766,75)" d="M2.739,0A2.739,2.739,0,1,1,-2.739,0A2.739,2.739,0,1,1,2.739,0" fill="#f781bf" stroke-width="2" opacity="1"/><path transform="translate(555.8823529411766,32.14285714285715)" d="M2.739,0A2.739,2.739,0,1,1,-2.739,0A2.739,2.739,0,1,1,2.739,0" fill="#984ea3" stroke-width="2" opacity="1"/><path transform="translate(555.8823529411766,117.85714285714286)" d="M2.739,0A2.739,2.739,0,1,1,-2.739,0A2.739,2.739,0,1,1,2.739,0" fill="#ff7f00" stroke-width="2" opacity="1"/><path transform="translate(555.8823529411766,53.57142857142858)" d="M2.739,0A2.739,2.739,0,1,1,-2.739,0A2.739,2.739,0,1,1,2.739,0" fill="#a65628" stroke-width="2" opacity="1"/><path transform="translate(573.5294117647059,10.714285714285722)" d="M2.739,0A2.739,2.739,0,1,1,-2.739,0A2.739,2.739,0,1,1,2.739,0" fill="#e41a1c" stroke-width="2" opacity="1"/><path transform="translate(573.5294117647059,75)" d="M2.739,0A2.739,2.739,0,1,1,-2.739,0A2.739,2.739,0,1,1,2.739,0" fill="#f781bf" stroke-width="2" opacity="1"/><path transform="translate(573.5294117647059,32.14285714285715)" d="M2.739,0A2.739,2.739,0,1,1,-2.739,0A2.739,2.739,0,1,1,2.739,0" fill="#984ea3" stroke-width="2" opacity="1"/><path transform="translate(573.5294117647059,96.42857142857143)" d="M2.739,0A2.739,2.739,0,1,1,-2.739,0A2.739,2.739,0,1,1,2.739,0" fill="#ff7f00" stroke-width="2" opacity="1"/><path transform="translate(573.5294117647059,53.57142857142858)" d="M2.739,0A2.739,2.739,0,1,1,-2.739,0A2.739,2.739,0,1,1,2.739,0" fill="#a65628" stroke-width="2" opacity="1"/><path transform="translate(591.1764705882354,10.714285714285722)" d="M2.739,0A2.739,2.739,0,1,1,-2.739,0A2.739,2.739,0,1,1,2.739,0" fill="#e41a1c" stroke-width="2" opacity="1"/><path transform="translate(591.1764705882354,75)" d="M2.739,0A2.739,2.739,0,1,1,-2.739,0A2.739,2.739,0,1,1,2.739,0" fill="#f781bf" stroke-width="2" opacity="1"/><path transform="translate(591.1764705882354,32.14285714285715)" d="M2.739,0A2.739,2.739,0,1,1,-2.739,0A2.739,2.739,0,1,1,2.739,0" fill="#984ea3" stroke-width="2" opacity="1"/><path transform="translate(591.1764705882354,96.42857142857143)" d="M2.739,0A2.739,2.739,0,1,1,-2.739,0A2.739,2.739,0,1,1,2.739,0" fill="#ff7f00" stroke-width="2" opacity="1"/><path transform="translate(591.1764705882354,53.57142857142858)" d="M2.739,0A2.739,2.739,0,1,1,-2.739,0A2.739,2.739,0,1,1,2.739,0" fill="#a65628" stroke-width="2" opacity="1"/></g><g class="mark-group role-legend" role="graphics-symbol" aria-roledescription="legend" aria-label="Symbol legend titled 'Nationaliteit' for fill color and stroke color with 6 values: Deutschland, Italien, Kosovo, Frankreich, Türkei, Serbien und Montenegro"><g transform="translate(618,0)"><path class="background" aria-hidden="true" d="M0,0h140v109h-140Z" pointer-events="none"/><g><g class="mark-group role-legend-entry"><g transform="translate(0,16)"><path class="background" aria-hidden="true" d="M0,0h0v0h0Z" pointer-events="none"/><g><g class="mark-group role-scope" role="graphics-object" aria-roledescription="group mark container"><g transform="translate(0,0)"><path class="background" aria-hidden="true" d="M0,0h139.10909271240234v12.5h-139.10909271240234Z" pointer-events="none" opacity="1"/><g><g class="mark-symbol role-legend-symbol" pointer-events="none"><path transform="translate(6,6)" d="M5,0A5,5,0,1,1,-5,0A5,5,0,1,1,5,0" fill="#e41a1c" stroke="#e41a1c" stroke-width="1.5" opacity="1"/></g><g class="mark-text role-legend-label" pointer-events="none"><text text-anchor="start" transform="translate(16,9)" font-family="sans-serif" font-size="10px" fill="#000" opacity="1">Deutschland</text></g></g><path class="foreground" aria-hidden="true" d="" pointer-events="none" display="none"/></g><g transform="translate(0,16)"><path class="background" aria-hidden="true" d="M0,0h139.10909271240234v12.5h-139.10909271240234Z" pointer-events="none" opacity="1"/><g><g class="mark-symbol role-legend-symbol" pointer-events="none"><path transform="translate(6,6)" d="M5,0A5,5,0,1,1,-5,0A5,5,0,1,1,5,0" fill="#984ea3" stroke="#984ea3" stroke-width="1.5" opacity="1"/></g><g class="mark-text role-legend-label" pointer-events="none"><text text-anchor="start" transform="translate(16,9)" font-family="sans-serif" font-size="10px" fill="#000" opacity="1">Italien</text></g></g><path class="foreground" aria-hidden="true" d="" pointer-events="none" display="none"/></g><g transform="translate(0,32)"><path class="background" aria-hidden="true" d="M0,0h139.10909271240234v12.5h-139.10909271240234Z" pointer-events="none" opacity="1"/><g><g class="mark-symbol role-legend-symbol" pointer-events="none"><path transform="translate(6,6)" d="M5,0A5,5,0,1,1,-5,0A5,5,0,1,1,5,0" fill="#a65628" stroke="#a65628" stroke-width="1.5" opacity="1"/></g><g class="mark-text role-legend-label" pointer-events="none"><text text-anchor="start" transform="translate(16,9)" font-family="sans-serif" font-size="10px" fill="#000" opacity="1">Kosovo</text></g></g><path class="foreground" aria-hidden="true" d="" pointer-events="none" display="none"/></g><g transform="translate(0,48)"><path class="background" aria-hidden="true" d="M0,0h139.10909271240234v12.5h-139.10909271240234Z" pointer-events="none" opacity="1"/><g><g class="mark-symbol role-legend-symbol" pointer-events="none"><path transform="translate(6,6)" d="M5,0A5,5,0,1,1,-5,0A5,5,0,1,1,5,0" fill="#f781bf" stroke="#f781bf" stroke-width="1.5" opacity="1"/></g><g class="mark-text role-legend-label" pointer-events="none"><text text-anchor="start" transform="translate(16,9)" font-family="sans-serif" font-size="10px" fill="#000" opacity="1">Frankreich</text></g></g><path class="foreground" aria-hidden="true" d="" pointer-events="none" display="none"/></g><g transform="translate(0,64)"><path class="background" aria-hidden="true" d="M0,0h139.10909271240234v12.5h-139.10909271240234Z" pointer-events="none" opacity="1"/><g><g class="mark-symbol role-legend-symbol" pointer-events="none"><path transform="translate(6,6)" d="M5,0A5,5,0,1,1,-5,0A5,5,0,1,1,5,0" fill="#ff7f00" stroke="#ff7f00" stroke-width="1.5" opacity="1"/></g><g class="mark-text role-legend-label" pointer-events="none"><text text-anchor="start" transform="translate(16,9)" font-family="sans-serif" font-size="10px" fill="#000" opacity="1">Türkei</text></g></g><path class="foreground" aria-hidden="true" d="" pointer-events="none" display="none"/></g><g transform="translate(0,80)"><path class="background" aria-hidden="true" d="M0,0h139.10909271240234v12.5h-139.10909271240234Z" pointer-events="none" opacity="1"/><g><g class="mark-symbol role-legend-symbol" pointer-events="none"><path transform="translate(6,6)" d="M5,0A5,5,0,1,1,-5,0A5,5,0,1,1,5,0" fill="#999999" stroke="#999999" stroke-width="1.5" opacity="1"/></g><g class="mark-text role-legend-label" pointer-events="none"><text text-anchor="start" transform="translate(16,9)" font-family="sans-serif" font-size="10px" fill="#000" opacity="1">Serbien und Montenegro</text></g></g><path class="foreground" aria-hidden="true" d="" pointer-events="none" display="none"/></g></g></g><path class="foreground" aria-hidden="true" d="" pointer-events="none" display="none"/></g></g><g class="mark-text role-legend-title" pointer-events="none"><text text-anchor="start" transform="translate(0,9)" font-family="sans-serif" font-size="11px" font-weight="bold" fill="#000" opacity="1">Nationaliteit</text></g></g><path class="foreground" aria-hidden="true" d="" pointer-events="none" display="none"/></g></g><g class="mark-group role-title"><g transform="translate(300,-17)"><path class="background" aria-hidden="true" d="M0,0h0v0h0Z" pointer-events="none"/><g><g class="mark-text role-title-text" role="graphics-symbol" aria-roledescription="title" aria-label="Title text 'Top 5 huwelijken van een Zwitserse vrouw met een buitenlandse man'" pointer-events="none"><text text-anchor="middle" transform="translate(0,10)" font-family="sans-serif" font-size="13px" font-weight="bold" fill="#000" opacity="1">Top 5 huwelijken van een Zwitserse vrouw met een buitenlandse man</text></g></g><path class="foreground" aria-hidden="true" d="" pointer-events="none" display="none"/></g></g></g><path class="foreground" aria-hidden="true" d="" display="none"/></g></g></g></svg>
