<svg xmlns="http://www.w3.org/2000/svg" xmlns:xlink="http://www.w3.org/1999/xlink" version="1.1" class="marks" width="742" height="225" viewBox="0 0 742 225"><rect width="742" height="225" fill="white"/><g fill="none" stroke-miterlimit="10" transform="translate(40,22)"><g class="mark-group role-frame root" role="graphics-object" aria-roledescription="group mark container"><g transform="translate(0,0)"><path class="background" aria-hidden="true" d="M0.5,0.5h600v150h-600Z" stroke="#ddd"/><g><g class="mark-group role-axis" role="graphics-symbol" aria-roledescription="axis" aria-label="X-axis titled 'Jaar' for a discrete scale with 34 values: 1987, 1988, 1989, 1990, 1991, ending with 2020"><g transform="translate(0.5,150.5)"><path class="background" aria-hidden="true" d="M0,0h0v0h0Z" pointer-events="none"/><g><g class="mark-rule role-axis-tick" pointer-events="none"><line transform="translate(9,0)" x2="0" y2="5" stroke="#888" stroke-width="1" opacity="1"/><line transform="translate(26,0)" x2="0" y2="5" stroke="#888" stroke-width="1" opacity="1"/><line transform="translate(44,0)" x2="0" y2="5" stroke="#888" stroke-width="1" opacity="1"/><line transform="translate(62,0)" x2="0" y2="5" stroke="#888" stroke-width="1" opacity="1"/><line transform="translate(79,0)" x2="0" y2="5" stroke="#888" stroke-width="1" opacity="1"/><line transform="translate(97,0)" x2="0" y2="5" stroke="#888" stroke-width="1" opacity="1"/><line transform="translate(115,0)" x2="0" y2="5" stroke="#888" stroke-width="1" opacity="1"/><line transform="translate(132,0)" x2="0" y2="5" stroke="#888" stroke-width="1" opacity="1"/><line transform="translate(150,0)" x2="0" y2="5" stroke="#888" stroke-width="1" opacity="1"/><line transform="translate(168,0)" x2="0" y2="5" stroke="#888" stroke-width="1" opacity="1"/><line transform="translate(185,0)" x2="0" y2="5" stroke="#888" stroke-width="1" opacity="1"/><line transform="translate(203,0)" x2="0" y2="5" stroke="#888" stroke-width="1" opacity="1"/><line transform="translate(221,0)" x2="0" y2="5" stroke="#888" stroke-width="1" opacity="1"/><line transform="translate(238,0)" x2="0" y2="5" stroke="#888" stroke-width="1" opacity="1"/><line transform="translate(256,0)" x2="0" y2="5" stroke="#888" stroke-width="1" opacity="1"/><line transform="translate(274,0)" x2="0" y2="5" stroke="#888" stroke-width="1" opacity="1"/><line transform="translate(291,0)" x2="0" y2="5" stroke="#888" stroke-width="1" opacity="1"/><line transform="translate(309,0)" x2="0" y2="5" stroke="#888" stroke-width="1" opacity="1"/><line transform="translate(326,0)" x2="0" y2="5" stroke="#888" stroke-width="1" opacity="1"/><line transform="translate(344,0)" x2="0" y2="5" stroke="#888" stroke-width="1" opacity="1"/><line transform="translate(362,0)" x2="0" y2="5" stroke="#888" stroke-width="1" opacity="1"/><line transform="translate(379,0)" x2="0" y2="5" stroke="#888" stroke-width="1" opacity="1"/><line transform="translate(397,0)" x2="0" y2="5" stroke="#888" stroke-width="1" opacity="1"/><line transform="translate(415,0)" x2="0" y2="5" stroke="#888" stroke-width="1" opacity="1"/><line transform="translate(432,0)" x2="0" y2="5" stroke="#888" stroke-width="1" opacity="1"/><line transform="translate(450,0)" x2="0" y2="5" stroke="#888" stroke-width="1" opacity="1"/><line transform="translate(468,0)" x2="0" y2="5" stroke="#888" stroke-width="1" opacity="1"/><line transform="translate(485,0)" x2="0" y2="5" stroke="#888" stroke-width="1" opacity="1"/><line transform="translate(503,0)" x2="0" y2="5" stroke="#888" stroke-width="1" opacity="1"/><line transform="translate(521,0)" x2="0" y2="5" stroke="#888" stroke-width="1" opacity="1"/><line transform="translate(538,0)" x2="0" y2="5" stroke="#888" stroke-width="1" opacity="1"/><line transform="translate(556,0)" x2="0" y2="5" stroke="#888" stroke-width="1" opacity="1"/><line transform="translate(574,0)" x2="0" y2="5" stroke="#888" stroke-width="1" opacity="1"/><line transform="translate(591,0)" x2="0" y2="5" stroke="#888" stroke-width="1" opacity="1"/></g><g class="mark-text role-axis-label" pointer-events="none"><text text-anchor="end" transform="translate(8.823529411764696,7) rotate(270) translate(0,3)" font-family="sans-serif" font-size="10px" fill="#000" opacity="1">1987</text><text text-anchor="end" transform="translate(26.47058823529411,7) rotate(270) translate(0,3)" font-family="sans-serif" font-size="10px" fill="#000" opacity="1">1988</text><text text-anchor="end" transform="translate(44.11764705882352,7) rotate(270) translate(0,3)" font-family="sans-serif" font-size="10px" fill="#000" opacity="1">1989</text><text text-anchor="end" transform="translate(61.764705882352935,7) rotate(270) translate(0,3)" font-family="sans-serif" font-size="10px" fill="#000" opacity="1">1990</text><text text-anchor="end" transform="translate(79.41176470588235,7) rotate(270) translate(0,3)" font-family="sans-serif" font-size="10px" fill="#000" opacity="1">1991</text><text text-anchor="end" transform="translate(97.05882352941177,7) rotate(270) translate(0,3)" font-family="sans-serif" font-size="10px" fill="#000" opacity="1">1992</text><text text-anchor="end" transform="translate(114.70588235294117,7) rotate(270) translate(0,3)" font-family="sans-serif" font-size="10px" fill="#000" opacity="1">1993</text><text text-anchor="end" transform="translate(132.35294117647058,7) rotate(270) translate(0,3)" font-family="sans-serif" font-size="10px" fill="#000" opacity="1">1994</text><text text-anchor="end" transform="translate(150,7) rotate(270) translate(0,3)" font-family="sans-serif" font-size="10px" fill="#000" opacity="1">1995</text><text text-anchor="end" transform="translate(167.64705882352942,7) rotate(270) translate(0,3)" font-family="sans-serif" font-size="10px" fill="#000" opacity="1">1996</text><text text-anchor="end" transform="translate(185.29411764705884,7) rotate(270) translate(0,3)" font-family="sans-serif" font-size="10px" fill="#000" opacity="1">1997</text><text text-anchor="end" transform="translate(202.94117647058823,7) rotate(270) translate(0,3)" font-family="sans-serif" font-size="10px" fill="#000" opacity="1">1998</text><text text-anchor="end" transform="translate(220.58823529411765,7) rotate(270) translate(0,3)" font-family="sans-serif" font-size="10px" fill="#000" opacity="1">1999</text><text text-anchor="end" transform="translate(238.23529411764707,7) rotate(270) translate(0,3)" font-family="sans-serif" font-size="10px" fill="#000" opacity="1">2000</text><text text-anchor="end" transform="translate(255.88235294117646,7) rotate(270) translate(0,3)" font-family="sans-serif" font-size="10px" fill="#000" opacity="1">2001</text><text text-anchor="end" transform="translate(273.5294117647059,7) rotate(270) translate(0,3)" font-family="sans-serif" font-size="10px" fill="#000" opacity="1">2002</text><text text-anchor="end" transform="translate(291.1764705882353,7) rotate(270) translate(0,3)" font-family="sans-serif" font-size="10px" fill="#000" opacity="1">2003</text><text text-anchor="end" transform="translate(308.8235294117647,7) rotate(270) translate(0,3)" font-family="sans-serif" font-size="10px" fill="#000" opacity="1">2004</text><text text-anchor="end" transform="translate(326.47058823529414,7) rotate(270) translate(0,3)" font-family="sans-serif" font-size="10px" fill="#000" opacity="1">2005</text><text text-anchor="end" transform="translate(344.11764705882354,7) rotate(270) translate(0,3)" font-family="sans-serif" font-size="10px" fill="#000" opacity="1">2006</text><text text-anchor="end" transform="translate(361.764705882353,7) rotate(270) translate(0,3)" font-family="sans-serif" font-size="10px" fill="#000" opacity="1">2007</text><text text-anchor="end" transform="translate(379.4117647058824,7) rotate(270) translate(0,3)" font-family="sans-serif" font-size="10px" fill="#000" opacity="1">2008</text><text text-anchor="end" transform="translate(397.05882352941177,7) rotate(270) translate(0,3)" font-family="sans-serif" font-size="10px" fill="#000" opacity="1">2009</text><text text-anchor="end" transform="translate(414.7058823529412,7) rotate(270) translate(0,3)" font-family="sans-serif" font-size="10px" fill="#000" opacity="1">2010</text><text text-anchor="end" transform="translate(432.3529411764706,7) rotate(270) translate(0,3)" font-family="sans-serif" font-size="10px" fill="#000" opacity="1">2011</text><text text-anchor="end" transform="translate(450,7) rotate(270) translate(0,3)" font-family="sans-serif" font-size="10px" fill="#000" opacity="1">2012</text><text text-anchor="end" transform="translate(467.64705882352945,7) rotate(270) translate(0,3)" font-family="sans-serif" font-size="10px" fill="#000" opacity="1">2013</text><text text-anchor="end" transform="translate(485.29411764705884,7) rotate(270) translate(0,3)" font-family="sans-serif" font-size="10px" fill="#000" opacity="1">2014</text><text text-anchor="end" transform="translate(502.94117647058823,7) rotate(270) translate(0,3)" font-family="sans-serif" font-size="10px" fill="#000" opacity="1">2015</text><text text-anchor="end" transform="translate(520.5882352941177,7) rotate(270) translate(0,3)" font-family="sans-serif" font-size="10px" fill="#000" opacity="1">2016</text><text text-anchor="end" transform="translate(538.2352941176471,7) rotate(270) translate(0,3)" font-family="sans-serif" font-size="10px" fill="#000" opacity="1">2017</text><text text-anchor="end" transform="translate(555.8823529411766,7) rotate(270) translate(0,3)" font-family="sans-serif" font-size="10px" fill="#000" opacity="1">2018</text><text text-anchor="end" transform="translate(573.5294117647059,7) rotate(270) translate(0,3)" font-family="sans-serif" font-size="10px" fill="#000" opacity="1">2019</text><text text-anchor="end" transform="translate(591.1764705882354,7) rotate(270) translate(0,3)" font-family="sans-serif" font-size="10px" fill="#000" opacity="1">2020</text></g><g class="mark-rule role-axis-domain" pointer-events="none"><line transform="translate(0,0)" x2="600" y2="0" stroke="#888" stroke-width="1" opacity="1"/></g><g class="mark-text role-axis-title" pointer-events="none"><text text-anchor="middle" transform="translate(300,45.381818771362305)" font-family="sans-serif" font-size="11px" font-weight="bold" fill="#000" opacity="1">Jaar</text></g></g><path class="foreground" aria-hidden="true" d="" pointer-events="none" display="none"/></g></g><g class="mark-group role-axis" role="graphics-symbol" aria-roledescription="axis" aria-label="Y-axis titled 'Rang' for a discrete scale with 10 values: 1, 2, 3, 4, 5, ending with 10"><g transform="translate(0.5,0.5)"><path class="background" aria-hidden="true" d="M0,0h0v0h0Z" pointer-events="none"/><g><g class="mark-rule role-axis-tick" pointer-events="none"><line transform="translate(0,8)" x2="-5" y2="0" stroke="#888" stroke-width="1" opacity="1"/><line transform="translate(0,23)" x2="-5" y2="0" stroke="#888" stroke-width="1" opacity="1"/><line transform="translate(0,38)" x2="-5" y2="0" stroke="#888" stroke-width="1" opacity="1"/><line transform="translate(0,53)" x2="-5" y2="0" stroke="#888" stroke-width="1" opacity="1"/><line transform="translate(0,68)" x2="-5" y2="0" stroke="#888" stroke-width="1" opacity="1"/><line transform="translate(0,83)" x2="-5" y2="0" stroke="#888" stroke-width="1" opacity="1"/><line transform="translate(0,98)" x2="-5" y2="0" stroke="#888" stroke-width="1" opacity="1"/><line transform="translate(0,113)" x2="-5" y2="0" stroke="#888" stroke-width="1" opacity="1"/><line transform="translate(0,128)" x2="-5" y2="0" stroke="#888" stroke-width="1" opacity="1"/><line transform="translate(0,143)" x2="-5" y2="0" stroke="#888" stroke-width="1" opacity="1"/></g><g class="mark-text role-axis-label" pointer-events="none"><text text-anchor="end" transform="translate(-7,10.5)" font-family="sans-serif" font-size="10px" fill="#000" opacity="1">1</text><text text-anchor="end" transform="translate(-7,25.5)" font-family="sans-serif" font-size="10px" fill="#000" opacity="1">2</text><text text-anchor="end" transform="translate(-7,40.5)" font-family="sans-serif" font-size="10px" fill="#000" opacity="1">3</text><text text-anchor="end" transform="translate(-7,55.5)" font-family="sans-serif" font-size="10px" fill="#000" opacity="1">4</text><text text-anchor="end" transform="translate(-7,70.5)" font-family="sans-serif" font-size="10px" fill="#000" opacity="1">5</text><text text-anchor="end" transform="translate(-7,85.5)" font-family="sans-serif" font-size="10px" fill="#000" opacity="1">6</text><text text-anchor="end" transform="translate(-7,100.5)" font-family="sans-serif" font-size="10px" fill="#000" opacity="1">7</text><text text-anchor="end" transform="translate(-7,115.5)" font-family="sans-serif" font-size="10px" fill="#000" opacity="1">8</text><text text-anchor="end" transform="translate(-7,130.5)" font-family="sans-serif" font-size="10px" fill="#000" opacity="1">9</text><text text-anchor="end" transform="translate(-7,145.5)" font-family="sans-serif" font-size="10px" fill="#000" opacity="1">10</text></g><g class="mark-rule role-axis-domain" pointer-events="none"><line transform="translate(0,0)" x2="0" y2="150" stroke="#888" stroke-width="1" opacity="1"/></g><g class="mark-text role-axis-title" pointer-events="none"><text text-anchor="middle" transform="translate(-23.690909385681152,75) rotate(-90) translate(0,-2)" font-family="sans-serif" font-size="11px" font-weight="bold" fill="#000" opacity="1">Rang</text></g></g><path class="foreground" aria-hidden="true" d="" pointer-events="none" display="none"/></g></g><g class="mark-group role-scope layer_0_pathgroup" role="graphics-object" aria-roledescription="group mark container"><g transform="translate(0,0)"><path class="background" aria-hidden="true" d="M0,0h600v150h-600Z"/><g><g class="mark-line role-mark layer_0_marks" role="graphics-symbol" aria-roledescription="line mark container"><path d="M8.824,7.5L26.471,7.5L44.118,7.5L61.765,7.5L79.412,7.5L97.059,7.5L114.706,7.5L132.353,7.5L150,7.5L167.647,7.5L185.294,7.5L202.941,7.5L220.588,7.5L238.235,7.5L255.882,7.5L273.529,7.5L291.176,22.5L308.824,7.5L326.471,7.5L344.118,7.5L361.765,7.5L379.412,7.5L397.059,7.5L414.706,7.5L432.353,7.5L450,7.5L467.647,7.5L485.294,7.5L502.941,7.5L520.588,7.5L538.235,7.5L555.882,7.5L573.529,7.5L591.176,7.5" stroke="#e41a1c" stroke-width="2"/></g></g><path class="foreground" aria-hidden="true" d="" display="none"/></g><g transform="translate(0,0)"><path class="background" aria-hidden="true" d="M0,0h600v150h-600Z"/><g><g class="mark-line role-mark layer_0_marks" role="graphics-symbol" aria-roledescription="line mark container"><path d="M8.824,37.5L26.471,37.5L44.118,22.5L61.765,37.5L79.412,37.5L97.059,37.5L114.706,37.5L132.353,37.5L150,37.5L167.647,37.5L185.294,37.5L202.941,52.5L220.588,67.5L238.235,67.5L255.882,67.5L273.529,67.5L291.176,67.5L308.824,67.5L326.471,82.5L344.118,82.5L361.765,82.5L379.412,82.5L397.059,82.5L414.706,67.5L432.353,67.5L450,82.5L467.647,82.5L485.294,82.5L502.941,67.5L520.588,52.5L538.235,67.5L555.882,52.5L573.529,52.5L591.176,37.5" stroke="#f781bf" stroke-width="2"/></g></g><path class="foreground" aria-hidden="true" d="" display="none"/></g><g transform="translate(0,0)"><path class="background" aria-hidden="true" d="M0,0h600v150h-600Z"/><g><g class="mark-line role-mark layer_0_marks" role="graphics-symbol" aria-roledescription="line mark container"><path d="M8.824,22.5L26.471,22.5L44.118,37.5L61.765,22.5L79.412,22.5L97.059,22.5L114.706,22.5L132.353,22.5L150,22.5L167.647,22.5L185.294,22.5L202.941,22.5L220.588,22.5L238.235,22.5L255.882,52.5L273.529,52.5L291.176,52.5L308.824,52.5L326.471,52.5L344.118,52.5L361.765,52.5L379.412,67.5L397.059,52.5L414.706,37.5L432.353,37.5L450,22.5L467.647,22.5L485.294,22.5L502.941,37.5L520.588,37.5L538.235,22.5L555.882,22.5L573.529,22.5L591.176,22.5" stroke="#984ea3" stroke-width="2"/></g></g><path class="foreground" aria-hidden="true" d="" display="none"/></g><g transform="translate(0,0)"><path class="background" aria-hidden="true" d="M0,0h600v150h-600Z"/><g><g class="mark-line role-mark layer_0_marks" role="graphics-symbol" aria-roledescription="line mark container"><path d="M8.824,67.5L26.471,112.5L44.118,112.5L61.765,82.5L79.412,82.5L97.059,67.5L114.706,67.5L132.353,52.5L150,52.5L167.647,52.5L185.294,52.5L202.941,37.5L220.588,37.5L238.235,37.5L255.882,22.5L273.529,37.5L291.176,37.5L308.824,22.5L326.471,22.5L344.118,22.5L361.765,22.5L379.412,22.5L397.059,22.5L414.706,22.5L432.353,52.5L450,67.5L467.647,37.5L485.294,52.5L502.941,82.5L520.588,82.5L538.235,82.5L555.882,67.5L573.529,82.5L591.176,82.5" stroke="#377eb8" stroke-width="2"/></g></g><path class="foreground" aria-hidden="true" d="" display="none"/></g><g transform="translate(0,0)"><path class="background" aria-hidden="true" d="M0,0h600v150h-600Z"/><g><g class="mark-line role-mark layer_0_marks" role="graphics-symbol" aria-roledescription="line mark container"><path d="M8.824,142.5L26.471,67.5L44.118,82.5L61.765,67.5L79.412,67.5L97.059,52.5L114.706,52.5L132.353,67.5L150,67.5L167.647,67.5L185.294,67.5L202.941,67.5L220.588,52.5L238.235,52.5L255.882,37.5L273.529,22.5L291.176,7.5L308.824,37.5L326.471,37.5L344.118,37.5L361.765,37.5L379.412,37.5L397.059,67.5L414.706,52.5L432.353,22.5L450,37.5L467.647,67.5L485.294,67.5L502.941,52.5L520.588,67.5L538.235,52.5L555.882,82.5L573.529,67.5L591.176,67.5" stroke="#4daf4a" stroke-width="2"/></g></g><path class="foreground" aria-hidden="true" d="" display="none"/></g><g transform="translate(0,0)"><path class="background" aria-hidden="true" d="M0,0h600v150h-600Z"/><g><g class="mark-line role-mark layer_0_marks" role="graphics-symbol" aria-roledescription="line mark container"><path d="M414.706,82.5L432.353,82.5L450,52.5L467.647,52.5L485.294,37.5L502.941,22.5L520.588,22.5L538.235,37.5L555.882,37.5L573.529,37.5L591.176,52.5" stroke="#a65628" stroke-width="2"/></g></g><path class="foreground" aria-hidden="true" d="" display="none"/></g></g><g class="mark-symbol role-mark layer_1_marks" role="graphics-symbol" aria-roledescription="symbol mark container"><path transform="translate(8.823529411764696,7.5)" d="M2.739,0A2.739,2.739,0,1,1,-2.739,0A2.739,2.739,0,1,1,2.739,0" fill="#e41a1c" stroke-width="2" opacity="1"/><path transform="translate(8.823529411764696,37.5)" d="M2.739,0A2.739,2.739,0,1,1,-2.739,0A2.739,2.739,0,1,1,2.739,0" fill="#f781bf" stroke-width="2" opacity="1"/><path transform="translate(8.823529411764696,22.5)" d="M2.739,0A2.739,2.739,0,1,1,-2.739,0A2.739,2.739,0,1,1,2.739,0" fill="#984ea3" stroke-width="2" opacity="1"/><path transform="translate(8.823529411764696,67.5)" d="M2.739,0A2.739,2.739,0,1,1,-2.739,0A2.739,2.739,0,1,1,2.739,0" fill="#377eb8" stroke-width="2" opacity="1"/><path transform="translate(8.823529411764696,142.5)" d="M2.739,0A2.739,2.739,0,1,1,-2.739,0A2.739,2.739,0,1,1,2.739,0" fill="#4daf4a" stroke-width="2" opacity="1"/><path transform="translate(26.47058823529411,7.5)" d="M2.739,0A2.739,2.739,0,1,1,-2.739,0A2.739,2.739,0,1,1,2.739,0" fill="#e41a1c" stroke-width="2" opacity="1"/><path transform="translate(26.47058823529411,37.5)" d="M2.739,0A2.739,2.739,0,1,1,-2.739,0A2.739,2.739,0,1,1,2.739,0" fill="#f781bf" stroke-width="2" opacity="1"/><path transform="translate(26.47058823529411,22.5)" d="M2.739,0A2.739,2.739,0,1,1,-2.739,0A2.739,2.739,0,1,1,2.739,0" fill="#984ea3" stroke-width="2" opacity="1"/><path transform="translate(26.47058823529411,112.5)" d="M2.739,0A2.739,2.739,0,1,1,-2.739,0A2.739,2.739,0,1,1,2.739,0" fill="#377eb8" stroke-width="2" opacity="1"/><path transform="translate(26.47058823529411,67.5)" d="M2.739,0A2.739,2.739,0,1,1,-2.739,0A2.739,2.739,0,1,1,2.739,0" fill="#4daf4a" stroke-width="2" opacity="1"/><path transform="translate(44.11764705882352,7.5)" d="M2.739,0A2.739,2.739,0,1,1,-2.739,0A2.739,2.739,0,1,1,2.739,0" fill="#e41a1c" stroke-width="2" opacity="1"/><path transform="translate(44.11764705882352,22.5)" d="M2.739,0A2.739,2.739,0,1,1,-2.739,0A2.739,2.739,0,1,1,2.739,0" fill="#f781bf" stroke-width="2" opacity="1"/><path transform="translate(44.11764705882352,37.5)" d="M2.739,0A2.739,2.739,0,1,1,-2.739,0A2.739,2.739,0,1,1,2.739,0" fill="#984ea3" stroke-width="2" opacity="1"/><path transform="translate(44.11764705882352,112.5)" d="M2.739,0A2.739,2.739,0,1,1,-2.739,0A2.739,2.739,0,1,1,2.739,0" fill="#377eb8" stroke-width="2" opacity="1"/><path transform="translate(44.11764705882352,82.5)" d="M2.739,0A2.739,2.739,0,1,1,-2.739,0A2.739,2.739,0,1,1,2.739,0" fill="#4daf4a" stroke-width="2" opacity="1"/><path transform="translate(61.764705882352935,7.5)" d="M2.739,0A2.739,2.739,0,1,1,-2.739,0A2.739,2.739,0,1,1,2.739,0" fill="#e41a1c" stroke-width="2" opacity="1"/><path transform="translate(61.764705882352935,37.5)" d="M2.739,0A2.739,2.739,0,1,1,-2.739,0A2.739,2.739,0,1,1,2.739,0" fill="#f781bf" stroke-width="2" opacity="1"/><path transform="translate(61.764705882352935,22.5)" d="M2.739,0A2.739,2.739,0,1,1,-2.739,0A2.739,2.739,0,1,1,2.739,0" fill="#984ea3" stroke-width="2" opacity="1"/><path transform="translate(61.764705882352935,82.5)" d="M2.739,0A2.739,2.739,0,1,1,-2.739,0A2.739,2.739,0,1,1,2.739,0" fill="#377eb8" stroke-width="2" opacity="1"/><path transform="translate(61.764705882352935,67.5)" d="M2.739,0A2.739,2.739,0,1,1,-2.739,0A2.739,2.739,0,1,1,2.739,0" fill="#4daf4a" stroke-width="2" opacity="1"/><path transform="translate(79.41176470588235,7.5)" d="M2.739,0A2.739,2.739,0,1,1,-2.739,0A2.739,2.739,0,1,1,2.739,0" fill="#e41a1c" stroke-width="2" opacity="1"/><path transform="translate(79.41176470588235,37.5)" d="M2.739,0A2.739,2.739,0,1,1,-2.739,0A2.739,2.739,0,1,1,2.739,0" fill="#f781bf" stroke-width="2" opacity="1"/><path transform="translate(79.41176470588235,22.5)" d="M2.739,0A2.739,2.739,0,1,1,-2.739,0A2.739,2.739,0,1,1,2.739,0" fill="#984ea3" stroke-width="2" opacity="1"/><path transform="translate(79.41176470588235,82.5)" d="M2.739,0A2.739,2.739,0,1,1,-2.739,0A2.739,2.739,0,1,1,2.739,0" fill="#377eb8" stroke-width="2" opacity="1"/><path transform="translate(79.41176470588235,67.5)" d="M2.739,0A2.739,2.739,0,1,1,-2.739,0A2.739,2.739,0,1,1,2.739,0" fill="#4daf4a" stroke-width="2" opacity="1"/><path transform="translate(97.05882352941177,7.5)" d="M2.739,0A2.739,2.739,0,1,1,-2.739,0A2.739,2.739,0,1,1,2.739,0" fill="#e41a1c" stroke-width="2" opacity="1"/><path transform="translate(97.05882352941177,37.5)" d="M2.739,0A2.739,2.739,0,1,1,-2.739,0A2.739,2.739,0,1,1,2.739,0" fill="#f781bf" stroke-width="2" opacity="1"/><path transform="translate(97.05882352941177,22.5)" d="M2.739,0A2.739,2.739,0,1,1,-2.739,0A2.739,2.739,0,1,1,2.739,0" fill="#984ea3" stroke-width="2" opacity="1"/><path transform="translate(97.05882352941177,67.5)" d="M2.739,0A2.739,2.739,0,1,1,-2.739,0A2.739,2.739,0,1,1,2.739,0" fill="#377eb8" stroke-width="2" opacity="1"/><path transform="translate(97.05882352941177,52.5)" d="M2.739,0A2.739,2.739,0,1,1,-2.739,0A2.739,2.739,0,1,1,2.739,0" fill="#4daf4a" stroke-width="2" opacity="1"/><path transform="translate(114.70588235294117,7.5)" d="M2.739,0A2.739,2.739,0,1,1,-2.739,0A2.739,2.739,0,1,1,2.739,0" fill="#e41a1c" stroke-width="2" opacity="1"/><path transform="translate(114.70588235294117,37.5)" d="M2.739,0A2.739,2.739,0,1,1,-2.739,0A2.739,2.739,0,1,1,2.739,0" fill="#f781bf" stroke-width="2" opacity="1"/><path transform="translate(114.70588235294117,22.5)" d="M2.739,0A2.739,2.739,0,1,1,-2.739,0A2.739,2.739,0,1,1,2.739,0" fill="#984ea3" stroke-width="2" opacity="1"/><path transform="translate(114.70588235294117,67.5)" d="M2.739,0A2.739,2.739,0,1,1,-2.739,0A2.739,2.739,0,1,1,2.739,0" fill="#377eb8" stroke-width="2" opacity="1"/><path transform="translate(114.70588235294117,52.5)" d="M2.739,0A2.739,2.739,0,1,1,-2.739,0A2.739,2.739,0,1,1,2.739,0" fill="#4daf4a" stroke-width="2" opacity="1"/><path transform="translate(132.35294117647058,7.5)" d="M2.739,0A2.739,2.739,0,1,1,-2.739,0A2.739,2.739,0,1,1,2.739,0" fill="#e41a1c" stroke-width="2" opacity="1"/><path transform="translate(132.35294117647058,37.5)" d="M2.739,0A2.739,2.739,0,1,1,-2.739,0A2.739,2.739,0,1,1,2.739,0" fill="#f781bf" stroke-width="2" opacity="1"/><path transform="translate(132.35294117647058,22.5)" d="M2.739,0A2.739,2.739,0,1,1,-2.739,0A2.739,2.739,0,1,1,2.739,0" fill="#984ea3" stroke-width="2" opacity="1"/><path transform="translate(132.35294117647058,52.5)" d="M2.739,0A2.739,2.739,0,1,1,-2.739,0A2.739,2.739,0,1,1,2.739,0" fill="#377eb8" stroke-width="2" opacity="1"/><path transform="translate(132.35294117647058,67.5)" d="M2.739,0A2.739,2.739,0,1,1,-2.739,0A2.739,2.739,0,1,1,2.739,0" fill="#4daf4a" stroke-width="2" opacity="1"/><path transform="translate(150,7.5)" d="M2.739,0A2.739,2.739,0,1,1,-2.739,0A2.739,2.739,0,1,1,2.739,0" fill="#e41a1c" stroke-width="2" opacity="1"/><path transform="translate(150,37.5)" d="M2.739,0A2.739,2.739,0,1,1,-2.739,0A2.739,2.739,0,1,1,2.739,0" fill="#f781bf" stroke-width="2" opacity="1"/><path transform="translate(150,22.5)" d="M2.739,0A2.739,2.739,0,1,1,-2.739,0A2.739,2.739,0,1,1,2.739,0" fill="#984ea3" stroke-width="2" opacity="1"/><path transform="translate(150,52.5)" d="M2.739,0A2.739,2.739,0,1,1,-2.739,0A2.739,2.739,0,1,1,2.739,0" fill="#377eb8" stroke-width="2" opacity="1"/><path transform="translate(150,67.5)" d="M2.739,0A2.739,2.739,0,1,1,-2.739,0A2.739,2.739,0,1,1,2.739,0" fill="#4daf4a" stroke-width="2" opacity="1"/><path transform="translate(167.64705882352942,7.5)" d="M2.739,0A2.739,2.739,0,1,1,-2.739,0A2.739,2.739,0,1,1,2.739,0" fill="#e41a1c" stroke-width="2" opacity="1"/><path transform="translate(167.64705882352942,37.5)" d="M2.739,0A2.739,2.739,0,1,1,-2.739,0A2.739,2.739,0,1,1,2.739,0" fill="#f781bf" stroke-width="2" opacity="1"/><path transform="translate(167.64705882352942,22.5)" d="M2.739,0A2.739,2.739,0,1,1,-2.739,0A2.739,2.739,0,1,1,2.739,0" fill="#984ea3" stroke-width="2" opacity="1"/><path transform="translate(167.64705882352942,52.5)" d="M2.739,0A2.739,2.739,0,1,1,-2.739,0A2.739,2.739,0,1,1,2.739,0" fill="#377eb8" stroke-width="2" opacity="1"/><path transform="translate(167.64705882352942,67.5)" d="M2.739,0A2.739,2.739,0,1,1,-2.739,0A2.739,2.739,0,1,1,2.739,0" fill="#4daf4a" stroke-width="2" opacity="1"/><path transform="translate(185.29411764705884,7.5)" d="M2.739,0A2.739,2.739,0,1,1,-2.739,0A2.739,2.739,0,1,1,2.739,0" fill="#e41a1c" stroke-width="2" opacity="1"/><path transform="translate(185.29411764705884,37.5)" d="M2.739,0A2.739,2.739,0,1,1,-2.739,0A2.739,2.739,0,1,1,2.739,0" fill="#f781bf" stroke-width="2" opacity="1"/><path transform="translate(185.29411764705884,22.5)" d="M2.739,0A2.739,2.739,0,1,1,-2.739,0A2.739,2.739,0,1,1,2.739,0" fill="#984ea3" stroke-width="2" opacity="1"/><path transform="translate(185.29411764705884,52.5)" d="M2.739,0A2.739,2.739,0,1,1,-2.739,0A2.739,2.739,0,1,1,2.739,0" fill="#377eb8" stroke-width="2" opacity="1"/><path transform="translate(185.29411764705884,67.5)" d="M2.739,0A2.739,2.739,0,1,1,-2.739,0A2.739,2.739,0,1,1,2.739,0" fill="#4daf4a" stroke-width="2" opacity="1"/><path transform="translate(202.94117647058823,7.5)" d="M2.739,0A2.739,2.739,0,1,1,-2.739,0A2.739,2.739,0,1,1,2.739,0" fill="#e41a1c" stroke-width="2" opacity="1"/><path transform="translate(202.94117647058823,52.5)" d="M2.739,0A2.739,2.739,0,1,1,-2.739,0A2.739,2.739,0,1,1,2.739,0" fill="#f781bf" stroke-width="2" opacity="1"/><path transform="translate(202.94117647058823,22.5)" d="M2.739,0A2.739,2.739,0,1,1,-2.739,0A2.739,2.739,0,1,1,2.739,0" fill="#984ea3" stroke-width="2" opacity="1"/><path transform="translate(202.94117647058823,37.5)" d="M2.739,0A2.739,2.739,0,1,1,-2.739,0A2.739,2.739,0,1,1,2.739,0" fill="#377eb8" stroke-width="2" opacity="1"/><path transform="translate(202.94117647058823,67.5)" d="M2.739,0A2.739,2.739,0,1,1,-2.739,0A2.739,2.739,0,1,1,2.739,0" fill="#4daf4a" stroke-width="2" opacity="1"/><path transform="translate(220.58823529411765,7.5)" d="M2.739,0A2.739,2.739,0,1,1,-2.739,0A2.739,2.739,0,1,1,2.739,0" fill="#e41a1c" stroke-width="2" opacity="1"/><path transform="translate(220.58823529411765,67.5)" d="M2.739,0A2.739,2.739,0,1,1,-2.739,0A2.739,2.739,0,1,1,2.739,0" fill="#f781bf" stroke-width="2" opacity="1"/><path transform="translate(220.58823529411765,22.5)" d="M2.739,0A2.739,2.739,0,1,1,-2.739,0A2.739,2.739,0,1,1,2.739,0" fill="#984ea3" stroke-width="2" opacity="1"/><path transform="translate(220.58823529411765,37.5)" d="M2.739,0A2.739,2.739,0,1,1,-2.739,0A2.739,2.739,0,1,1,2.739,0" fill="#377eb8" stroke-width="2" opacity="1"/><path transform="translate(220.58823529411765,52.5)" d="M2.739,0A2.739,2.739,0,1,1,-2.739,0A2.739,2.739,0,1,1,2.739,0" fill="#4daf4a" stroke-width="2" opacity="1"/><path transform="translate(238.23529411764707,7.5)" d="M2.739,0A2.739,2.739,0,1,1,-2.739,0A2.739,2.739,0,1,1,2.739,0" fill="#e41a1c" stroke-width="2" opacity="1"/><path transform="translate(238.23529411764707,67.5)" d="M2.739,0A2.739,2.739,0,1,1,-2.739,0A2.739,2.739,0,1,1,2.739,0" fill="#f781bf" stroke-width="2" opacity="1"/><path transform="translate(238.23529411764707,22.5)" d="M2.739,0A2.739,2.739,0,1,1,-2.739,0A2.739,2.739,0,1,1,2.739,0" fill="#984ea3" stroke-width="2" opacity="1"/><path transform="translate(238.23529411764707,37.5)" d="M2.739,0A2.739,2.739,0,1,1,-2.739,0A2.739,2.739,0,1,1,2.739,0" fill="#377eb8" stroke-width="2" opacity="1"/><path transform="translate(238.23529411764707,52.5)" d="M2.739,0A2.739,2.739,0,1,1,-2.739,0A2.739,2.739,0,1,1,2.739,0" fill="#4daf4a" stroke-width="2" opacity="1"/><path transform="translate(255.88235294117646,7.5)" d="M2.739,0A2.739,2.739,0,1,1,-2.739,0A2.739,2.739,0,1,1,2.739,0" fill="#e41a1c" stroke-width="2" opacity="1"/><path transform="translate(255.88235294117646,67.5)" d="M2.739,0A2.739,2.739,0,1,1,-2.739,0A2.739,2.739,0,1,1,2.739,0" fill="#f781bf" stroke-width="2" opacity="1"/><path transform="translate(255.88235294117646,52.5)" d="M2.739,0A2.739,2.739,0,1,1,-2.739,0A2.739,2.739,0,1,1,2.739,0" fill="#984ea3" stroke-width="2" opacity="1"/><path transform="translate(255.88235294117646,22.5)" d="M2.739,0A2.739,2.739,0,1,1,-2.739,0A2.739,2.739,0,1,1,2.739,0" fill="#377eb8" stroke-width="2" opacity="1"/><path transform="translate(255.88235294117646,37.5)" d="M2.739,0A2.739,2.739,0,1,1,-2.739,0A2.739,2.739,0,1,1,2.739,0" fill="#4daf4a" stroke-width="2" opacity="1"/><path transform="translate(273.5294117647059,7.5)" d="M2.739,0A2.739,2.739,0,1,1,-2.739,0A2.739,2.739,0,1,1,2.739,0" fill="#e41a1c" stroke-width="2" opacity="1"/><path transform="translate(273.5294117647059,67.5)" d="M2.739,0A2.739,2.739,0,1,1,-2.739,0A2.739,2.739,0,1,1,2.739,0" fill="#f781bf" stroke-width="2" opacity="1"/><path transform="translate(273.5294117647059,52.5)" d="M2.739,0A2.739,2.739,0,1,1,-2.739,0A2.739,2.739,0,1,1,2.739,0" fill="#984ea3" stroke-width="2" opacity="1"/><path transform="translate(273.5294117647059,37.5)" d="M2.739,0A2.739,2.739,0,1,1,-2.739,0A2.739,2.739,0,1,1,2.739,0" fill="#377eb8" stroke-width="2" opacity="1"/><path transform="translate(273.5294117647059,22.5)" d="M2.739,0A2.739,2.739,0,1,1,-2.739,0A2.739,2.739,0,1,1,2.739,0" fill="#4daf4a" stroke-width="2" opacity="1"/><path transform="translate(291.1764705882353,22.5)" d="M2.739,0A2.739,2.739,0,1,1,-2.739,0A2.739,2.739,0,1,1,2.739,0" fill="#e41a1c" stroke-width="2" opacity="1"/><path transform="translate(291.1764705882353,67.5)" d="M2.739,0A2.739,2.739,0,1,1,-2.739,0A2.739,2.739,0,1,1,2.739,0" fill="#f781bf" stroke-width="2" opacity="1"/><path transform="translate(291.1764705882353,52.5)" d="M2.739,0A2.739,2.739,0,1,1,-2.739,0A2.739,2.739,0,1,1,2.739,0" fill="#984ea3" stroke-width="2" opacity="1"/><path transform="translate(291.1764705882353,37.5)" d="M2.739,0A2.739,2.739,0,1,1,-2.739,0A2.739,2.739,0,1,1,2.739,0" fill="#377eb8" stroke-width="2" opacity="1"/><path transform="translate(291.1764705882353,7.5)" d="M2.739,0A2.739,2.739,0,1,1,-2.739,0A2.739,2.739,0,1,1,2.739,0" fill="#4daf4a" stroke-width="2" opacity="1"/><path transform="translate(308.8235294117647,7.5)" d="M2.739,0A2.739,2.739,0,1,1,-2.739,0A2.739,2.739,0,1,1,2.739,0" fill="#e41a1c" stroke-width="2" opacity="1"/><path transform="translate(308.8235294117647,67.5)" d="M2.739,0A2.739,2.739,0,1,1,-2.739,0A2.739,2.739,0,1,1,2.739,0" fill="#f781bf" stroke-width="2" opacity="1"/><path transform="translate(308.8235294117647,52.5)" d="M2.739,0A2.739,2.739,0,1,1,-2.739,0A2.739,2.739,0,1,1,2.739,0" fill="#984ea3" stroke-width="2" opacity="1"/><path transform="translate(308.8235294117647,22.5)" d="M2.739,0A2.739,2.739,0,1,1,-2.739,0A2.739,2.739,0,1,1,2.739,0" fill="#377eb8" stroke-width="2" opacity="1"/><path transform="translate(308.8235294117647,37.5)" d="M2.739,0A2.739,2.739,0,1,1,-2.739,0A2.739,2.739,0,1,1,2.739,0" fill="#4daf4a" stroke-width="2" opacity="1"/><path transform="translate(326.47058823529414,7.5)" d="M2.739,0A2.739,2.739,0,1,1,-2.739,0A2.739,2.739,0,1,1,2.739,0" fill="#e41a1c" stroke-width="2" opacity="1"/><path transform="translate(326.47058823529414,82.5)" d="M2.739,0A2.739,2.739,0,1,1,-2.739,0A2.739,2.739,0,1,1,2.739,0" fill="#f781bf" stroke-width="2" opacity="1"/><path transform="translate(326.47058823529414,52.5)" d="M2.739,0A2.739,2.739,0,1,1,-2.739,0A2.739,2.739,0,1,1,2.739,0" fill="#984ea3" stroke-width="2" opacity="1"/><path transform="translate(326.47058823529414,22.5)" d="M2.739,0A2.739,2.739,0,1,1,-2.739,0A2.739,2.739,0,1,1,2.739,0" fill="#377eb8" stroke-width="2" opacity="1"/><path transform="translate(326.47058823529414,37.5)" d="M2.739,0A2.739,2.739,0,1,1,-2.739,0A2.739,2.739,0,1,1,2.739,0" fill="#4daf4a" stroke-width="2" opacity="1"/><path transform="translate(344.11764705882354,7.5)" d="M2.739,0A2.739,2.739,0,1,1,-2.739,0A2.739,2.739,0,1,1,2.739,0" fill="#e41a1c" stroke-width="2" opacity="1"/><path transform="translate(344.11764705882354,82.5)" d="M2.739,0A2.739,2.739,0,1,1,-2.739,0A2.739,2.739,0,1,1,2.739,0" fill="#f781bf" stroke-width="2" opacity="1"/><path transform="translate(344.11764705882354,52.5)" d="M2.739,0A2.739,2.739,0,1,1,-2.739,0A2.739,2.739,0,1,1,2.739,0" fill="#984ea3" stroke-width="2" opacity="1"/><path transform="translate(344.11764705882354,22.5)" d="M2.739,0A2.739,2.739,0,1,1,-2.739,0A2.739,2.739,0,1,1,2.739,0" fill="#377eb8" stroke-width="2" opacity="1"/><path transform="translate(344.11764705882354,37.5)" d="M2.739,0A2.739,2.739,0,1,1,-2.739,0A2.739,2.739,0,1,1,2.739,0" fill="#4daf4a" stroke-width="2" opacity="1"/><path transform="translate(361.764705882353,7.5)" d="M2.739,0A2.739,2.739,0,1,1,-2.739,0A2.739,2.739,0,1,1,2.739,0" fill="#e41a1c" stroke-width="2" opacity="1"/><path transform="translate(361.764705882353,82.5)" d="M2.739,0A2.739,2.739,0,1,1,-2.739,0A2.739,2.739,0,1,1,2.739,0" fill="#f781bf" stroke-width="2" opacity="1"/><path transform="translate(361.764705882353,52.5)" d="M2.739,0A2.739,2.739,0,1,1,-2.739,0A2.739,2.739,0,1,1,2.739,0" fill="#984ea3" stroke-width="2" opacity="1"/><path transform="translate(361.764705882353,22.5)" d="M2.739,0A2.739,2.739,0,1,1,-2.739,0A2.739,2.739,0,1,1,2.739,0" fill="#377eb8" stroke-width="2" opacity="1"/><path transform="translate(361.764705882353,37.5)" d="M2.739,0A2.739,2.739,0,1,1,-2.739,0A2.739,2.739,0,1,1,2.739,0" fill="#4daf4a" stroke-width="2" opacity="1"/><path transform="translate(379.4117647058824,7.5)" d="M2.739,0A2.739,2.739,0,1,1,-2.739,0A2.739,2.739,0,1,1,2.739,0" fill="#e41a1c" stroke-width="2" opacity="1"/><path transform="translate(379.4117647058824,82.5)" d="M2.739,0A2.739,2.739,0,1,1,-2.739,0A2.739,2.739,0,1,1,2.739,0" fill="#f781bf" stroke-width="2" opacity="1"/><path transform="translate(379.4117647058824,67.5)" d="M2.739,0A2.739,2.739,0,1,1,-2.739,0A2.739,2.739,0,1,1,2.739,0" fill="#984ea3" stroke-width="2" opacity="1"/><path transform="translate(379.4117647058824,22.5)" d="M2.739,0A2.739,2.739,0,1,1,-2.739,0A2.739,2.739,0,1,1,2.739,0" fill="#377eb8" stroke-width="2" opacity="1"/><path transform="translate(379.4117647058824,37.5)" d="M2.739,0A2.739,2.739,0,1,1,-2.739,0A2.739,2.739,0,1,1,2.739,0" fill="#4daf4a" stroke-width="2" opacity="1"/><path transform="translate(397.05882352941177,7.5)" d="M2.739,0A2.739,2.739,0,1,1,-2.739,0A2.739,2.739,0,1,1,2.739,0" fill="#e41a1c" stroke-width="2" opacity="1"/><path transform="translate(397.05882352941177,82.5)" d="M2.739,0A2.739,2.739,0,1,1,-2.739,0A2.739,2.739,0,1,1,2.739,0" fill="#f781bf" stroke-width="2" opacity="1"/><path transform="translate(397.05882352941177,52.5)" d="M2.739,0A2.739,2.739,0,1,1,-2.739,0A2.739,2.739,0,1,1,2.739,0" fill="#984ea3" stroke-width="2" opacity="1"/><path transform="translate(397.05882352941177,22.5)" d="M2.739,0A2.739,2.739,0,1,1,-2.739,0A2.739,2.739,0,1,1,2.739,0" fill="#377eb8" stroke-width="2" opacity="1"/><path transform="translate(397.05882352941177,67.5)" d="M2.739,0A2.739,2.739,0,1,1,-2.739,0A2.739,2.739,0,1,1,2.739,0" fill="#4daf4a" stroke-width="2" opacity="1"/><path transform="translate(414.7058823529412,7.5)" d="M2.739,0A2.739,2.739,0,1,1,-2.739,0A2.739,2.739,0,1,1,2.739,0" fill="#e41a1c" stroke-width="2" opacity="1"/><path transform="translate(414.7058823529412,67.5)" d="M2.739,0A2.739,2.739,0,1,1,-2.739,0A2.739,2.739,0,1,1,2.739,0" fill="#f781bf" stroke-width="2" opacity="1"/><path transform="translate(414.7058823529412,37.5)" d="M2.739,0A2.739,2.739,0,1,1,-2.739,0A2.739,2.739,0,1,1,2.739,0" fill="#984ea3" stroke-width="2" opacity="1"/><path transform="translate(414.7058823529412,82.5)" d="M2.739,0A2.739,2.739,0,1,1,-2.739,0A2.739,2.739,0,1,1,2.739,0" fill="#a65628" stroke-width="2" opacity="1"/><path transform="translate(414.7058823529412,22.5)" d="M2.739,0A2.739,2.739,0,1,1,-2.739,0A2.739,2.739,0,1,1,2.739,0" fill="#377eb8" stroke-width="2" opacity="1"/><path transform="translate(414.7058823529412,52.5)" d="M2.739,0A2.739,2.739,0,1,1,-2.739,0A2.739,2.739,0,1,1,2.739,0" fill="#4daf4a" stroke-width="2" opacity="1"/><path transform="translate(432.3529411764706,7.5)" d="M2.739,0A2.739,2.739,0,1,1,-2.739,0A2.739,2.739,0,1,1,2.739,0" fill="#e41a1c" stroke-width="2" opacity="1"/><path transform="translate(432.3529411764706,67.5)" d="M2.739,0A2.739,2.739,0,1,1,-2.739,0A2.739,2.739,0,1,1,2.739,0" fill="#f781bf" stroke-width="2" opacity="1"/><path transform="translate(432.3529411764706,37.5)" d="M2.739,0A2.739,2.739,0,1,1,-2.739,0A2.739,2.739,0,1,1,2.739,0" fill="#984ea3" stroke-width="2" opacity="1"/><path transform="translate(432.3529411764706,82.5)" d="M2.739,0A2.739,2.739,0,1,1,-2.739,0A2.739,2.739,0,1,1,2.739,0" fill="#a65628" stroke-width="2" opacity="1"/><path transform="translate(432.3529411764706,52.5)" d="M2.739,0A2.739,2.739,0,1,1,-2.739,0A2.739,2.739,0,1,1,2.739,0" fill="#377eb8" stroke-width="2" opacity="1"/><path transform="translate(432.3529411764706,22.5)" d="M2.739,0A2.739,2.739,0,1,1,-2.739,0A2.739,2.739,0,1,1,2.739,0" fill="#4daf4a" stroke-width="2" opacity="1"/><path transform="translate(450,7.5)" d="M2.739,0A2.739,2.739,0,1,1,-2.739,0A2.739,2.739,0,1,1,2.739,0" fill="#e41a1c" stroke-width="2" opacity="1"/><path transform="translate(450,82.5)" d="M2.739,0A2.739,2.739,0,1,1,-2.739,0A2.739,2.739,0,1,1,2.739,0" fill="#f781bf" stroke-width="2" opacity="1"/><path transform="translate(450,22.5)" d="M2.739,0A2.739,2.739,0,1,1,-2.739,0A2.739,2.739,0,1,1,2.739,0" fill="#984ea3" stroke-width="2" opacity="1"/><path transform="translate(450,52.5)" d="M2.739,0A2.739,2.739,0,1,1,-2.739,0A2.739,2.739,0,1,1,2.739,0" fill="#a65628" stroke-width="2" opacity="1"/><path transform="translate(450,67.5)" d="M2.739,0A2.739,2.739,0,1,1,-2.739,0A2.739,2.739,0,1,1,2.739,0" fill="#377eb8" stroke-width="2" opacity="1"/><path transform="translate(450,37.5)" d="M2.739,0A2.739,2.739,0,1,1,-2.739,0A2.739,2.739,0,1,1,2.739,0" fill="#4daf4a" stroke-width="2" opacity="1"/><path transform="translate(467.64705882352945,7.5)" d="M2.739,0A2.739,2.739,0,1,1,-2.739,0A2.739,2.739,0,1,1,2.739,0" fill="#e41a1c" stroke-width="2" opacity="1"/><path transform="translate(467.64705882352945,82.5)" d="M2.739,0A2.739,2.739,0,1,1,-2.739,0A2.739,2.739,0,1,1,2.739,0" fill="#f781bf" stroke-width="2" opacity="1"/><path transform="translate(467.64705882352945,22.5)" d="M2.739,0A2.739,2.739,0,1,1,-2.739,0A2.739,2.739,0,1,1,2.739,0" fill="#984ea3" stroke-width="2" opacity="1"/><path transform="translate(467.64705882352945,52.5)" d="M2.739,0A2.739,2.739,0,1,1,-2.739,0A2.739,2.739,0,1,1,2.739,0" fill="#a65628" stroke-width="2" opacity="1"/><path transform="translate(467.64705882352945,37.5)" d="M2.739,0A2.739,2.739,0,1,1,-2.739,0A2.739,2.739,0,1,1,2.739,0" fill="#377eb8" stroke-width="2" opacity="1"/><path transform="translate(467.64705882352945,67.5)" d="M2.739,0A2.739,2.739,0,1,1,-2.739,0A2.739,2.739,0,1,1,2.739,0" fill="#4daf4a" stroke-width="2" opacity="1"/><path transform="translate(485.29411764705884,7.5)" d="M2.739,0A2.739,2.739,0,1,1,-2.739,0A2.739,2.739,0,1,1,2.739,0" fill="#e41a1c" stroke-width="2" opacity="1"/><path transform="translate(485.29411764705884,82.5)" d="M2.739,0A2.739,2.739,0,1,1,-2.739,0A2.739,2.739,0,1,1,2.739,0" fill="#f781bf" stroke-width="2" opacity="1"/><path transform="translate(485.29411764705884,22.5)" d="M2.739,0A2.739,2.739,0,1,1,-2.739,0A2.739,2.739,0,1,1,2.739,0" fill="#984ea3" stroke-width="2" opacity="1"/><path transform="translate(485.29411764705884,37.5)" d="M2.739,0A2.739,2.739,0,1,1,-2.739,0A2.739,2.739,0,1,1,2.739,0" fill="#a65628" stroke-width="2" opacity="1"/><path transform="translate(485.29411764705884,52.5)" d="M2.739,0A2.739,2.739,0,1,1,-2.739,0A2.739,2.739,0,1,1,2.739,0" fill="#377eb8" stroke-width="2" opacity="1"/><path transform="translate(485.29411764705884,67.5)" d="M2.739,0A2.739,2.739,0,1,1,-2.739,0A2.739,2.739,0,1,1,2.739,0" fill="#4daf4a" stroke-width="2" opacity="1"/><path transform="translate(502.94117647058823,7.5)" d="M2.739,0A2.739,2.739,0,1,1,-2.739,0A2.739,2.739,0,1,1,2.739,0" fill="#e41a1c" stroke-width="2" opacity="1"/><path transform="translate(502.94117647058823,67.5)" d="M2.739,0A2.739,2.739,0,1,1,-2.739,0A2.739,2.739,0,1,1,2.739,0" fill="#f781bf" stroke-width="2" opacity="1"/><path transform="translate(502.94117647058823,37.5)" d="M2.739,0A2.739,2.739,0,1,1,-2.739,0A2.739,2.739,0,1,1,2.739,0" fill="#984ea3" stroke-width="2" opacity="1"/><path transform="translate(502.94117647058823,22.5)" d="M2.739,0A2.739,2.739,0,1,1,-2.739,0A2.739,2.739,0,1,1,2.739,0" fill="#a65628" stroke-width="2" opacity="1"/><path transform="translate(502.94117647058823,82.5)" d="M2.739,0A2.739,2.739,0,1,1,-2.739,0A2.739,2.739,0,1,1,2.739,0" fill="#377eb8" stroke-width="2" opacity="1"/><path transform="translate(502.94117647058823,52.5)" d="M2.739,0A2.739,2.739,0,1,1,-2.739,0A2.739,2.739,0,1,1,2.739,0" fill="#4daf4a" stroke-width="2" opacity="1"/><path transform="translate(520.5882352941177,7.5)" d="M2.739,0A2.739,2.739,0,1,1,-2.739,0A2.739,2.739,0,1,1,2.739,0" fill="#e41a1c" stroke-width="2" opacity="1"/><path transform="translate(520.5882352941177,52.5)" d="M2.739,0A2.739,2.739,0,1,1,-2.739,0A2.739,2.739,0,1,1,2.739,0" fill="#f781bf" stroke-width="2" opacity="1"/><path transform="translate(520.5882352941177,37.5)" d="M2.739,0A2.739,2.739,0,1,1,-2.739,0A2.739,2.739,0,1,1,2.739,0" fill="#984ea3" stroke-width="2" opacity="1"/><path transform="translate(520.5882352941177,22.5)" d="M2.739,0A2.739,2.739,0,1,1,-2.739,0A2.739,2.739,0,1,1,2.739,0" fill="#a65628" stroke-width="2" opacity="1"/><path transform="translate(520.5882352941177,82.5)" d="M2.739,0A2.739,2.739,0,1,1,-2.739,0A2.739,2.739,0,1,1,2.739,0" fill="#377eb8" stroke-width="2" opacity="1"/><path transform="translate(520.5882352941177,67.5)" d="M2.739,0A2.739,2.739,0,1,1,-2.739,0A2.739,2.739,0,1,1,2.739,0" fill="#4daf4a" stroke-width="2" opacity="1"/><path transform="translate(538.2352941176471,7.5)" d="M2.739,0A2.739,2.739,0,1,1,-2.739,0A2.739,2.739,0,1,1,2.739,0" fill="#e41a1c" stroke-width="2" opacity="1"/><path transform="translate(538.2352941176471,67.5)" d="M2.739,0A2.739,2.739,0,1,1,-2.739,0A2.739,2.739,0,1,1,2.739,0" fill="#f781bf" stroke-width="2" opacity="1"/><path transform="translate(538.2352941176471,22.5)" d="M2.739,0A2.739,2.739,0,1,1,-2.739,0A2.739,2.739,0,1,1,2.739,0" fill="#984ea3" stroke-width="2" opacity="1"/><path transform="translate(538.2352941176471,37.5)" d="M2.739,0A2.739,2.739,0,1,1,-2.739,0A2.739,2.739,0,1,1,2.739,0" fill="#a65628" stroke-width="2" opacity="1"/><path transform="translate(538.2352941176471,82.5)" d="M2.739,0A2.739,2.739,0,1,1,-2.739,0A2.739,2.739,0,1,1,2.739,0" fill="#377eb8" stroke-width="2" opacity="1"/><path transform="translate(538.2352941176471,52.5)" d="M2.739,0A2.739,2.739,0,1,1,-2.739,0A2.739,2.739,0,1,1,2.739,0" fill="#4daf4a" stroke-width="2" opacity="1"/><path transform="translate(555.8823529411766,7.5)" d="M2.739,0A2.739,2.739,0,1,1,-2.739,0A2.739,2.739,0,1,1,2.739,0" fill="#e41a1c" stroke-width="2" opacity="1"/><path transform="translate(555.8823529411766,52.5)" d="M2.739,0A2.739,2.739,0,1,1,-2.739,0A2.739,2.739,0,1,1,2.739,0" fill="#f781bf" stroke-width="2" opacity="1"/><path transform="translate(555.8823529411766,22.5)" d="M2.739,0A2.739,2.739,0,1,1,-2.739,0A2.739,2.739,0,1,1,2.739,0" fill="#984ea3" stroke-width="2" opacity="1"/><path transform="translate(555.8823529411766,37.5)" d="M2.739,0A2.739,2.739,0,1,1,-2.739,0A2.739,2.739,0,1,1,2.739,0" fill="#a65628" stroke-width="2" opacity="1"/><path transform="translate(555.8823529411766,67.5)" d="M2.739,0A2.739,2.739,0,1,1,-2.739,0A2.739,2.739,0,1,1,2.739,0" fill="#377eb8" stroke-width="2" opacity="1"/><path transform="translate(555.8823529411766,82.5)" d="M2.739,0A2.739,2.739,0,1,1,-2.739,0A2.739,2.739,0,1,1,2.739,0" fill="#4daf4a" stroke-width="2" opacity="1"/><path transform="translate(573.5294117647059,7.5)" d="M2.739,0A2.739,2.739,0,1,1,-2.739,0A2.739,2.739,0,1,1,2.739,0" fill="#e41a1c" stroke-width="2" opacity="1"/><path transform="translate(573.5294117647059,52.5)" d="M2.739,0A2.739,2.739,0,1,1,-2.739,0A2.739,2.739,0,1,1,2.739,0" fill="#f781bf" stroke-width="2" opacity="1"/><path transform="translate(573.5294117647059,22.5)" d="M2.739,0A2.739,2.739,0,1,1,-2.739,0A2.739,2.739,0,1,1,2.739,0" fill="#984ea3" stroke-width="2" opacity="1"/><path transform="translate(573.5294117647059,37.5)" d="M2.739,0A2.739,2.739,0,1,1,-2.739,0A2.739,2.739,0,1,1,2.739,0" fill="#a65628" stroke-width="2" opacity="1"/><path transform="translate(573.5294117647059,82.5)" d="M2.739,0A2.739,2.739,0,1,1,-2.739,0A2.739,2.739,0,1,1,2.739,0" fill="#377eb8" stroke-width="2" opacity="1"/><path transform="translate(573.5294117647059,67.5)" d="M2.739,0A2.739,2.739,0,1,1,-2.739,0A2.739,2.739,0,1,1,2.739,0" fill="#4daf4a" stroke-width="2" opacity="1"/><path transform="translate(591.1764705882354,7.5)" d="M2.739,0A2.739,2.739,0,1,1,-2.739,0A2.739,2.739,0,1,1,2.739,0" fill="#e41a1c" stroke-width="2" opacity="1"/><path transform="translate(591.1764705882354,37.5)" d="M2.739,0A2.739,2.739,0,1,1,-2.739,0A2.739,2.739,0,1,1,2.739,0" fill="#f781bf" stroke-width="2" opacity="1"/><path transform="translate(591.1764705882354,22.5)" d="M2.739,0A2.739,2.739,0,1,1,-2.739,0A2.739,2.739,0,1,1,2.739,0" fill="#984ea3" stroke-width="2" opacity="1"/><path transform="translate(591.1764705882354,52.5)" d="M2.739,0A2.739,2.739,0,1,1,-2.739,0A2.739,2.739,0,1,1,2.739,0" fill="#a65628" stroke-width="2" opacity="1"/><path transform="translate(591.1764705882354,82.5)" d="M2.739,0A2.739,2.739,0,1,1,-2.739,0A2.739,2.739,0,1,1,2.739,0" fill="#377eb8" stroke-width="2" opacity="1"/><path transform="translate(591.1764705882354,67.5)" d="M2.739,0A2.739,2.739,0,1,1,-2.739,0A2.739,2.739,0,1,1,2.739,0" fill="#4daf4a" stroke-width="2" opacity="1"/></g><g class="mark-group role-legend" role="graphics-symbol" aria-roledescription="legend" aria-label="Symbol legend titled 'Nationaliteit' for fill color and stroke color with 6 values: Deutschland, Italien, Frankreich, Kosovo, Thailand, Brasilien"><g transform="translate(618,0)"><path class="background" aria-hidden="true" d="M0,0h79v109h-79Z" pointer-events="none"/><g><g class="mark-group role-legend-entry"><g transform="translate(0,16)"><path class="background" aria-hidden="true" d="M0,0h0v0h0Z" pointer-events="none"/><g><g class="mark-group role-scope" role="graphics-object" aria-roledescription="group mark container"><g transform="translate(0,0)"><path class="background" aria-hidden="true" d="M0,0h78.50909042358398v12.5h-78.50909042358398Z" pointer-events="none" opacity="1"/><g><g class="mark-symbol role-legend-symbol" pointer-events="none"><path transform="translate(6,6)" d="M5,0A5,5,0,1,1,-5,0A5,5,0,1,1,5,0" fill="#e41a1c" stroke="#e41a1c" stroke-width="1.5" opacity="1"/></g><g class="mark-text role-legend-label" pointer-events="none"><text text-anchor="start" transform="translate(16,9)" font-family="sans-serif" font-size="10px" fill="#000" opacity="1">Deutschland</text></g></g><path class="foreground" aria-hidden="true" d="" pointer-events="none" display="none"/></g><g transform="translate(0,16)"><path class="background" aria-hidden="true" d="M0,0h78.50909042358398v12.5h-78.50909042358398Z" pointer-events="none" opacity="1"/><g><g class="mark-symbol role-legend-symbol" pointer-events="none"><path transform="translate(6,6)" d="M5,0A5,5,0,1,1,-5,0A5,5,0,1,1,5,0" fill="#984ea3" stroke="#984ea3" stroke-width="1.5" opacity="1"/></g><g class="mark-text role-legend-label" pointer-events="none"><text text-anchor="start" transform="translate(16,9)" font-family="sans-serif" font-size="10px" fill="#000" opacity="1">Italien</text></g></g><path class="foreground" aria-hidden="true" d="" pointer-events="none" display="none"/></g><g transform="translate(0,32)"><path class="background" aria-hidden="true" d="M0,0h78.50909042358398v12.5h-78.50909042358398Z" pointer-events="none" opacity="1"/><g><g class="mark-symbol role-legend-symbol" pointer-events="none"><path transform="translate(6,6)" d="M5,0A5,5,0,1,1,-5,0A5,5,0,1,1,5,0" fill="#f781bf" stroke="#f781bf" stroke-width="1.5" opacity="1"/></g><g class="mark-text role-legend-label" pointer-events="none"><text text-anchor="start" transform="translate(16,9)" font-family="sans-serif" font-size="10px" fill="#000" opacity="1">Frankreich</text></g></g><path class="foreground" aria-hidden="true" d="" pointer-events="none" display="none"/></g><g transform="translate(0,48)"><path class="background" aria-hidden="true" d="M0,0h78.50909042358398v12.5h-78.50909042358398Z" pointer-events="none" opacity="1"/><g><g class="mark-symbol role-legend-symbol" pointer-events="none"><path transform="translate(6,6)" d="M5,0A5,5,0,1,1,-5,0A5,5,0,1,1,5,0" fill="#a65628" stroke="#a65628" stroke-width="1.5" opacity="1"/></g><g class="mark-text role-legend-label" pointer-events="none"><text text-anchor="start" transform="translate(16,9)" font-family="sans-serif" font-size="10px" fill="#000" opacity="1">Kosovo</text></g></g><path class="foreground" aria-hidden="true" d="" pointer-events="none" display="none"/></g><g transform="translate(0,64)"><path class="background" aria-hidden="true" d="M0,0h78.50909042358398v12.5h-78.50909042358398Z" pointer-events="none" opacity="1"/><g><g class="mark-symbol role-legend-symbol" pointer-events="none"><path transform="translate(6,6)" d="M5,0A5,5,0,1,1,-5,0A5,5,0,1,1,5,0" fill="#4daf4a" stroke="#4daf4a" stroke-width="1.5" opacity="1"/></g><g class="mark-text role-legend-label" pointer-events="none"><text text-anchor="start" transform="translate(16,9)" font-family="sans-serif" font-size="10px" fill="#000" opacity="1">Thailand</text></g></g><path class="foreground" aria-hidden="true" d="" pointer-events="none" display="none"/></g><g transform="translate(0,80)"><path class="background" aria-hidden="true" d="M0,0h78.50909042358398v12.5h-78.50909042358398Z" pointer-events="none" opacity="1"/><g><g class="mark-symbol role-legend-symbol" pointer-events="none"><path transform="translate(6,6)" d="M5,0A5,5,0,1,1,-5,0A5,5,0,1,1,5,0" fill="#377eb8" stroke="#377eb8" stroke-width="1.5" opacity="1"/></g><g class="mark-text role-legend-label" pointer-events="none"><text text-anchor="start" transform="translate(16,9)" font-family="sans-serif" font-size="10px" fill="#000" opacity="1">Brasilien</text></g></g><path class="foreground" aria-hidden="true" d="" pointer-events="none" display="none"/></g></g></g><path class="foreground" aria-hidden="true" d="" pointer-events="none" display="none"/></g></g><g class="mark-text role-legend-title" pointer-events="none"><text text-anchor="start" transform="translate(0,9)" font-family="sans-serif" font-size="11px" font-weight="bold" fill="#000" opacity="1">Nationaliteit</text></g></g><path class="foreground" aria-hidden="true" d="" pointer-events="none" display="none"/></g></g><g class="mark-group role-title"><g transform="translate(300,-17)"><path class="background" aria-hidden="true" d="M0,0h0v0h0Z" pointer-events="none"/><g><g class="mark-text role-title-text" role="graphics-symbol" aria-roledescription="title" aria-label="Title text 'Top 6 huwelijken van een Zwitserse man met een buitenlandse vrouw'" pointer-events="none"><text text-anchor="middle" transform="translate(0,10)" font-family="sans-serif" font-size="13px" font-weight="bold" fill="#000" opacity="1">Top 6 huwelijken van een Zwitserse man met een buitenlandse vrouw</text></g></g><path class="foreground" aria-hidden="true" d="" pointer-events="none" display="none"/></g></g></g><path class="foreground" aria-hidden="true" d="" display="none"/></g></g></g></svg>
