<svg xmlns="http://www.w3.org/2000/svg" viewBox="0 0 226.97 113.59"><script xmlns=""/><defs><style type="text/css">.cls-1{fill:#004982;stroke:#004982;stroke-width:0.2px;}.cls-2{fill:#ffed00;stroke:#ffed00;stroke-width:0.22px;}</style></defs><title>Element 1</title><g id="Ebene_2" data-name="Ebene 2"><g id="Ebene_1-2" data-name="Ebene 1"><rect class="cls-1" x="0.1" y="0.1" width="226.77" height="113.39"/><path class="cls-2" d="M99.87,68.67C94.39,68.67,90,63,90,55.92s4.44-12.76,9.92-12.76,9.92,5.71,9.92,12.76S105.35,68.67,99.87,68.67Zm86.82-.1c-5.48,0-9.92-5.71-9.92-12.76s4.44-12.75,9.92-12.75,9.92,5.71,9.92,12.75S192.17,68.57,186.69,68.57Zm-32,14.72a19,19,0,0,0,7,12.13c9,7.48,17.71,8.25,24,8.25a30.7,30.7,0,0,0,21.5-8.06,28.26,28.26,0,0,0,9.62-21.25v-43L197.84,34c-5-5-14.64-6.81-22-5.4-11.7,2.24-19.23,12.2-21.14,22.9V12.59l-22.52,3V52.24C129.65,38.49,116.15,28,99.87,28c-12.84,0-24,6.53-29.31,16L81.32,12.57l-23.63,3L44.37,60.19,31.14,12.59l-22,2.78L31.71,83.29H57.13l10.26-30a27.21,27.21,0,0,0-.26,3.63c0,16,14.66,28.91,32.74,28.91,16.28,0,29.78-10.5,32.31-24.25V83.29H154.7V61.49c1.26,8.56,6.45,14.29,13.24,17.72,7.07,3.57,19.92,3.8,28.66-2.34,0,6.91-1.66,13.42-10,13.42a9.44,9.44,0,0,1-9.36-7Z"/></g></g></svg>