<svg xmlns="http://www.w3.org/2000/svg" viewBox="0 0 753 362" font-weight="normal" text-decoration="none" width="753px" xmlns:xlink="http://www.w3.org/1999/xlink" font-size="15" font-family="sans-serif" font-style="normal" version="1.1" height="362px"><title>Compare the Average Wind Speed in Zürich and Amsterdam</title><defs><clipPath id="plot-sample-bounds-3"><rect x="75.8" width="601.4" y="0" height="340"></rect></clipPath><clipPath id="plot-sample-bounds-scaled-3"><rect x="758.2" width="6013.5" y="0" height="3400"></rect></clipPath></defs><g transform="scale(0.1)" font-weight="normal" text-decoration="none" font-size="15" font-family="sans-serif" font-style="normal"><g clip-path="url(#plot-sample-bounds-scaled-3)"><path stroke-opacity="1.0" d="M758,2144l17,3l16,6l17,6l16,8l17,2l16,-4l17,-5l16,-3l17,-2l16,2l16,-2l17,-3l16,-6l17,-12l16,-16l17,-1l16,7l17,6l16,3l17,1l16,2l17,-4l16,-13l17,-4l16,-11l17,-2l16,-4l17,-1l6,2" stroke-width="20" fill="none" stroke="#592f93"></path><path stroke-opacity="1.0" d="M1476,2107l7,0l17,-4l16,-1l17,5l16,4l17,3l16,3l16,3l17,0l16,6l17,9l16,-3l17,1l16,0l17,2l16,6l17,-4l16,1l17,0l16,0l17,-6l16,-7l17,-5l16,-2l17,-10l16,-6l17,-6l16,-3l16,1l17,1l16,-1l17,7l16,10l17,3l16,-5l17,-1l16,-2l17,-1l16,2l17,3l16,-1l17,-1l16,2l17,4l16,2l17,1l16,1l17,2l16,-2l16,6l17,5l16,7l17,13l16,11l17,10l16,8l17,5l16,2l17,5l16,6l17,6l16,9l17,4l16,2l17,1l16,6l17,1l16,6l16,3l17,3l16,1l17,1l16,2l17,4l16,3l17,7l16,5l17,4l16,7l17,9l16,1l17,-2l16,-3l17,0l16,-1l17,-2l16,1l17,3l16,4l16,0l17,0l16,-2l17,2l16,-2l17,4l16,0l17,1l16,3l17,1l16,4l17,5l16,3l17,6l16,3l17,-2l16,-2l17,-1l16,-7l17,1l16,-8l16,-5l17,-1l16,5l17,4l16,-6l17,-3l16,1l17,3l16,2l17,3l16,1l17,2l16,6l17,3l16,0l17,0l16,5l17,-1l16,-1l16,-2l17,-4l16,-5l17,-2l16,-4l17,3l16,2l17,-2l16,2l17,7l16,-1l17,6l16,2l17,3l16,2l17,4l16,4l17,0l16,4l17,1l16,2l16,0l17,4l16,2l17,1l16,2l17,6l16,6l17,2l16,7l17,5l16,7l17,6l16,7l17,8l16,5l17,2l16,2l17,6l16,4l17,2l16,7l16,4l4,2" stroke-width="20" fill="none" stroke="#592f93"></path><path stroke-opacity="1.0" d="M4494,2445l4,1l17,0l16,-2l17,-8l16,-8l17,-4l16,-3l16,-1l17,-7l16,-2l17,-4l16,-6l17,-5l16,-6l17,-4l16,-2l17,-5l16,-4l17,-2l16,1l17,-3l16,1l17,-1l16,-6l17,-4l16,-2l17,1l16,5l16,-3l17,5l16,4l17,-2l16,-1l17,-1l16,10l17,5l16,-1l17,-8l16,-7l17,4l16,-3l17,-2l16,-1l17,3l16,3l17,3l16,5l17,-2l16,3l16,1l17,-6l16,-7l17,-8l16,-2l17,-2l16,-2l17,-1l16,-3l17,-3l16,-4l17,-11l16,-6l17,0l16,-3l17,-6l16,-6l17,-5l16,2l16,5l17,4l16,0l17,4l16,0l17,-1l16,-2l17,-4l16,-3l17,-2l16,0l17,-5l16,-6l17,-2l16,2l17,0l16,-3l17,1l16,3l17,4l16,1l16,0l17,2l16,3l17,-2l16,-2l17,2l16,1l17,-5l16,-7l17,-9l16,-3l17,-4l16,-6l17,-7l16,-1l17,-4l16,-5l17,-3l16,-13l17,-8l16,-7l16,-8l17,-9l16,-6l17,-6l16,2l17,2l16,-4l17,-9l16,-15l17,-8l16,-6l17,-4l16,4l17,9l16,-6l17,-15l16,-11l17,-4l16,-5l16,-1l17,0l16,3l17,3l16,7l17,-3l16,-1l17,-5l16,-1l17,10" stroke-width="20" fill="none" stroke="#592f93"></path></g><g clip-path="url(#plot-sample-bounds-scaled-3)"><path stroke-opacity="1.0" d="M1008,469l14,1l16,2l17,15l16,15l17,4l16,-2l17,-10l16,-1l17,5l16,2l17,13l16,17l17,18l16,15l17,17l16,13l16,16l17,15l16,0l17,6l16,5l17,0l16,-3l17,9l16,15l17,5l16,-5l17,5l16,0l17,-2l16,2l17,13l16,21l17,9l16,7l16,11l17,17l16,15l17,13l16,15l17,15l16,5l17,2l16,0l17,-2l16,7l17,-1l16,-4l17,-7l16,7l17,5l16,12l17,7l16,9l17,-7l16,-4l16,9l17,13l16,10l17,13l16,11l17,15l16,0l17,-4l16,0l17,5l16,12l17,14l16,19l17,9l16,2l17,4l16,5l17,15l16,15l17,15l16,9l16,11l17,8l16,20l17,20l16,24l17,13l16,19l17,11l16,9l17,10l16,9l17,17l16,9l17,3l16,2l17,4l16,13l17,7l16,12l16,1l17,6l16,-2l17,-7l16,-6l17,-5l16,0l17,3l16,-3l17,7l16,4l17,5l16,10l17,5l16,-11l17,0l16,-13l17,-6l16,-3l17,3l16,6l16,9l17,4l16,-2l17,13l16,6l17,3l16,4l17,4l16,11l17,5l16,15l17,6l16,0l17,7l16,13l17,15l16,7l17,4l16,2l17,0l16,-2l16,-5l17,-2l16,-8l17,2l16,-9l17,4l16,-2l17,5l16,2l17,-2l16,-3l17,1l16,-3l17,-6l16,2l17,0l16,2l17,0l16,4l16,-2l17,-10l16,0l17,-1l16,-6l17,0l16,-5l17,-4l16,2l17,-11l16,-8l17,2l16,4l17,-2l16,7l17,15l16,13l17,6l16,5l17,2l16,7l16,10l17,2l16,1l17,13l16,6l17,7l16,8l17,0l16,2l17,-6l16,2l17,9l16,0l17,0l6,3" stroke-width="20" fill="none" stroke="#03a45e"></path><path stroke-opacity="1.0" d="M4425,1404l7,-5l17,-13l16,-8l17,2l16,-9l17,-15l16,-7l17,-17l16,-9l17,-8l16,-5l16,-11l17,-8l16,-9l17,-9l16,-6l17,-9l16,-2l17,-15l16,-11l17,-15l16,-3l17,0l16,-10l17,0l16,-3l17,-8l16,-3l17,-8l16,-4l17,6l16,13l16,5l17,-5l16,-4l17,-7l16,-4l17,-9l16,-2l17,-7l16,-17l17,-22l16,-11l17,-12l16,-13l17,-7l16,0l17,-2l16,0l17,9l16,-1l17,-8l16,-5l16,-23l17,-16l16,-19l17,-13l16,-9l17,-17l16,-15l17,-16l16,-22l17,-28l16,-17l17,-11l16,-9l17,-4l16,-7l17,-19l16,-2l17,0l16,4l16,5l17,2l16,-3l17,-4l16,-9l17,-10l16,-9l17,-17l16,-5l17,5l16,2l17,-16l16,-4l17,-2l16,2l17,2l16,-6l17,-4l16,-1l17,-2l16,7l16,13l17,4l16,5l17,0l16,-1l17,0l16,3l17,-20l16,-9l17,-4l16,-2l17,0l16,-2l17,0l16,8l17,-2l16,-8l17,-7l16,-15l17,-9l16,-2l16,2l17,-4l16,-4l17,-3l16,-8l17,-15l16,-7l17,-7l16,-11l17,-2l16,-10l17,-7l16,-13l17,-13l16,-15l17,-15l16,-13l17,-9l16,-11l16,-4l17,-1l16,-13l17,-8l16,-5l17,-12l16,-14l17,-13l16,-4l17,-7" stroke-width="20" fill="none" stroke="#03a45e"></path></g></g><g transform="scale(0.1)"></g><g stroke-opacity="0.072" stroke-width="1" fill="none" stroke="#000"><line stroke-opacity="0.12" y1="10" x1="126.1" y2="345" x2="126.1"></line><line stroke-opacity="0.12" y1="10" x1="173.9" y2="345" x2="173.9"></line><line stroke-opacity="0.12" y1="10" x1="224.9" y2="345" x2="224.9"></line><line stroke-opacity="0.12" y1="10" x1="274.4" y2="345" x2="274.4"></line><line stroke-opacity="0.12" y1="10" x1="325.4" y2="345" x2="325.4"></line><line stroke-opacity="0.12" y1="10" x1="374.9" y2="345" x2="374.9"></line><line stroke-opacity="0.12" y1="10" x1="425.9" y2="345" x2="425.9"></line><line stroke-opacity="0.12" y1="10" x1="477" y2="345" x2="477"></line><line stroke-opacity="0.12" y1="10" x1="526.4" y2="345" x2="526.4"></line><line stroke-opacity="0.12" y1="10" x1="577.5" y2="345" x2="577.5"></line><line stroke-opacity="0.12" y1="10" x1="626.9" y2="345" x2="626.9"></line><line y1="340" x1="72" y2="340" x2="681"></line><line y1="280.7" x1="72" y2="280.7" x2="681"></line><line y1="221.4" x1="72" y2="221.4" x2="681"></line><line y1="162.1" x1="72" y2="162.1" x2="681"></line><line y1="102.8" x1="72" y2="102.8" x2="681"></line><line y1="43.5" x1="72" y2="43.5" x2="681"></line></g><g><rect x="75" width="51.1" y="10" fill="#fff" fill-opacity="0.004" height="330"></rect><text text-anchor="middle" x="100.5" y="355.7" stroke="none">Jan</text></g><g><rect x="126.1" width="47.8" y="10" fill="#fff" fill-opacity="0.004" height="330"></rect><text text-anchor="middle" x="150" y="355.7" stroke="none">Feb</text></g><g><rect x="173.9" width="51.1" y="10" fill="#fff" fill-opacity="0.004" height="330"></rect><text text-anchor="middle" x="199.4" y="355.7" stroke="none">Mar</text></g><g><rect x="224.9" width="49.4" y="10" fill="#fff" fill-opacity="0.004" height="330"></rect><text text-anchor="middle" x="249.6" y="355.7" stroke="none">Apr</text></g><g><rect x="274.4" width="51.1" y="10" fill="#fff" fill-opacity="0.004" height="330"></rect><text text-anchor="middle" x="299.9" y="355.7" stroke="none">May</text></g><g><rect x="325.4" width="49.4" y="10" fill="#fff" fill-opacity="0.004" height="330"></rect><text text-anchor="middle" x="350.1" y="355.7" stroke="none">Jun</text></g><g><rect x="374.9" width="51.1" y="10" fill="#fff" fill-opacity="0.004" height="330"></rect><text text-anchor="middle" x="400.4" y="355.7" stroke="none">Jul</text></g><g><rect x="425.9" width="51.1" y="10" fill="#fff" fill-opacity="0.004" height="330"></rect><text text-anchor="middle" x="451.5" y="355.7" stroke="none">Aug</text></g><g><rect x="477" width="49.4" y="10" fill="#fff" fill-opacity="0.004" height="330"></rect><text text-anchor="middle" x="501.7" y="355.7" stroke="none">Sep</text></g><g><rect x="526.4" width="51.1" y="10" fill="#fff" fill-opacity="0.004" height="330"></rect><text text-anchor="middle" x="552" y="355.7" stroke="none">Oct</text></g><g><rect x="577.5" width="49.4" y="10" fill="#fff" fill-opacity="0.004" height="330"></rect><text text-anchor="middle" x="602.2" y="355.7" stroke="none">Nov</text></g><g><rect x="626.9" width="51.1" y="10" fill="#fff" fill-opacity="0.004" height="330"></rect><text text-anchor="middle" x="652.5" y="355.7" stroke="none">Dec</text></g><g fill="#666" stroke="none"><text text-anchor="end" x="71" y="345">0 kph</text><text x="682" y="345">0 kph</text><text text-anchor="end" x="71" y="285.7">5 kph</text><text x="682" y="285.7">5 kph</text><text text-anchor="end" x="71" y="226.4">10 kph</text><text x="682" y="226.4">10 kph</text><text text-anchor="end" x="71" y="167.1">15 kph</text><text x="682" y="167.1">15 kph</text><text text-anchor="end" x="71" y="107.8">20 kph</text><text x="682" y="107.8">20 kph</text><text text-anchor="end" x="71" y="48.5">25 kph</text><text x="682" y="48.5">25 kph</text></g><g font-weight="normal" text-decoration="none" font-size="10" font-family="sans-serif" font-style="normal"><text font-weight="normal" text-decoration="none" text-anchor="middle" x="135.1" font-size="10" y="212.1" font-family="sans-serif" font-style="normal" opacity="1" fill="#592f93" stroke="none">11.1</text></g><g font-weight="normal" text-decoration="none" font-size="10" font-family="sans-serif" font-style="normal"><text font-weight="normal" text-decoration="none" text-anchor="middle" x="439.9" font-size="10" y="248.2" font-family="sans-serif" font-style="normal" opacity="1" fill="#592f93" stroke="none">8.0</text></g><g font-weight="normal" text-decoration="none" font-size="10" font-family="sans-serif" font-style="normal"><text font-weight="normal" text-decoration="none" text-anchor="middle" x="88.3" font-size="10" y="48.3" font-family="sans-serif" font-style="normal" opacity="1" fill="#03a45e" stroke="none">24.9</text></g><g font-weight="normal" text-decoration="none" font-size="10" font-family="sans-serif" font-style="normal"><text font-weight="normal" text-decoration="none" text-anchor="middle" x="430" font-size="10" y="147.5" font-family="sans-serif" font-style="normal" opacity="1" fill="#03a45e" stroke="none">16.5</text></g><g font-weight="normal" text-decoration="none" font-size="15" font-family="sans-serif" font-style="normal"><g font-weight="normal" text-decoration="none" font-size="15" font-family="sans-serif" font-style="normal" opacity="1" fill="#03a45e" stroke="none"><g opacity="0.6"><text text-anchor="end" x="629.4" y="69.2" stroke-linejoin="bevel" stroke-width="4" fill="#fff" stroke="#fff">Amsterdam</text></g><text text-anchor="end" x="629.4" y="69.2">Amsterdam</text></g></g><g font-weight="normal" text-decoration="none" font-size="15" font-family="sans-serif" font-style="normal"><g font-weight="normal" text-decoration="none" font-size="15" font-family="sans-serif" font-style="normal" opacity="1" fill="#592f93" stroke="none"><g opacity="0.6"><text text-anchor="end" x="583.3" y="227.2" stroke-linejoin="bevel" stroke-width="4" fill="#fff" stroke="#fff">Zürich</text></g><text text-anchor="end" x="583.3" y="227.2">Zürich</text></g></g></svg>
